<?xml version="1.0" encoding="UTF-8" standalone="yes"?>
<!DOCTYPE svg PUBLIC "-//W3C//DTD SVG 1.0//EN" "http://www.w3.org/TR/2001/REC-SVG-20010904/DTD/svg10.dtd">
<svg height="377" width="870" xmlns="http://www.w3.org/2000/svg" xmlns:svg="http://www.w3.org/2000/svg" xmlns:xlink="http://www.w3.org/1999/xlink">
	<path d="M 40 98.71 L 40 43.54 A 11.04 11.04 0 0 1 51.04,32.5 L 240 32.5" style="fill: none; stroke: black; stroke-width: 1.5" />
	<text fill="black" font-family="Arial" font-size="15" stroke="none" text-anchor="start" x="247.5" y="37.5">RW373</text>
	<path d="M 40 98.71 L 40 156.96 A 7.96 7.96 0 0 0 47.96,164.92 L 87.75 164.92" style="fill: none; stroke: black; stroke-width: 1.5" />
	<path d="M 87.75 164.92 L 87.75 84.22 A 2.5 2.5 0 0 1 90.25,81.72 L 102.73 81.72" style="fill: none; stroke: black; stroke-width: 1.5" />
	<path d="M 87.75 164.92 L 87.75 245.79 A 2.34 2.34 0 0 0 90.09,248.13 L 101.77 248.13" style="fill: none; stroke: black; stroke-width: 1.5" />
	<path d="M 102.73 81.72 L 102.73 61.54 A 4.04 4.04 0 0 1 106.77,57.5 L 240 57.5" style="fill: none; stroke: black; stroke-width: 1.5" />
	<text fill="black" font-family="Arial" font-size="15" stroke="none" text-anchor="start" x="247.5" y="62.5">R37J162</text>
	<path d="M 102.73 81.72 L 102.73 101.9 A 4.04 4.04 0 0 0 106.77,105.94 L 131.25 105.94" style="fill: none; stroke: black; stroke-width: 1.5" />
	<path d="M 131.25 105.94 L 131.25 86.41 A 3.91 3.91 0 0 1 135.16,82.5 L 240 82.5" style="fill: none; stroke: black; stroke-width: 1.5" />
	<text fill="black" font-family="Arial" font-size="15" stroke="none" text-anchor="start" x="247.5" y="87.5">R37J161</text>
	<path d="M 131.25 105.94 L 131.25 128.67 A 0.71 0.71 0 0 0 131.96,129.38 L 135.51 129.38" style="fill: none; stroke: black; stroke-width: 1.5" />
	<path d="M 135.51 129.38 L 135.51 111.15 A 3.65 3.65 0 0 1 139.16,107.5 L 240 107.5" style="fill: none; stroke: black; stroke-width: 1.5" />
	<text fill="black" font-family="Arial" font-size="15" stroke="none" text-anchor="start" x="247.5" y="112.5">JXBR161</text>
	<path d="M 135.51 129.38 L 135.51 148.39 A 2.86 2.86 0 0 0 138.37,151.25 L 152.65 151.25" style="fill: none; stroke: black; stroke-width: 1.5" />
	<path d="M 101.77 248.13 L 101.77 224.48 A 4.48 4.48 0 0 1 106.25,220 L 128.64 220" style="fill: none; stroke: black; stroke-width: 1.5" />
	<path d="M 101.77 248.13 L 101.77 275.6 A 0.65 0.65 0 0 0 102.42,276.25 L 105.69 276.25" style="fill: none; stroke: black; stroke-width: 1.5" />
	<path d="M 152.65 151.25 L 152.65 135.63 A 3.13 3.13 0 0 1 155.78,132.5 L 240 132.5" style="fill: none; stroke: black; stroke-width: 1.5" />
	<text fill="black" font-family="Arial" font-size="15" stroke="none" text-anchor="start" x="247.5" y="137.5">JXBR162</text>
	<path d="M 152.65 151.25 L 152.65 168.1 A 1.9 1.9 0 0 0 154.55,170 L 164.02 170" style="fill: none; stroke: black; stroke-width: 1.5" />
	<path d="M 105.69 276.25 L 105.69 260.63 A 3.13 3.13 0 0 1 108.82,257.5 L 240.01 257.5" style="fill: none; stroke: black; stroke-width: 1.5" />
	<text fill="black" font-family="Arial" font-size="15" stroke="none" text-anchor="start" x="247.51" y="262.5">CK1</text>
	<path d="M 105.69 276.25 L 105.69 292.2 A 2.8 2.8 0 0 0 108.49,295 L 122.51 295" style="fill: none; stroke: black; stroke-width: 1.5" />
	<path d="M 164.02 170 L 164.02 159.58 A 2.08 2.08 0 0 1 166.1,157.5 L 239.99 157.5" style="fill: none; stroke: black; stroke-width: 1.5" />
	<text fill="black" font-family="Arial" font-size="15" stroke="none" text-anchor="start" x="247.49" y="162.5">JXBR163</text>
	<path d="M 164.02 170 L 164.02 180.42 A 2.08 2.08 0 0 0 166.1,182.5 L 239.99 182.5" style="fill: none; stroke: black; stroke-width: 1.5" />
	<text fill="black" font-family="Arial" font-size="15" stroke="none" text-anchor="start" x="247.49" y="187.5">R37J163</text>
	<path d="M 128.64 220 L 128.64 209.58 A 2.08 2.08 0 0 1 130.72,207.5 L 240.01 207.5" style="fill: none; stroke: black; stroke-width: 1.5" />
	<text fill="black" font-family="Arial" font-size="15" stroke="none" text-anchor="start" x="247.51" y="212.5">CK2</text>
	<path d="M 128.64 220 L 128.64 230.42 A 2.08 2.08 0 0 0 130.72,232.5 L 240.01 232.5" style="fill: none; stroke: black; stroke-width: 1.5" />
	<text fill="black" font-family="Arial" font-size="15" stroke="none" text-anchor="start" x="247.51" y="237.5">CK3</text>
	<path d="M 122.51 295 L 122.51 284.58 A 2.08 2.08 0 0 1 124.59,282.5 L 240.01 282.5" style="fill: none; stroke: black; stroke-width: 1.5" />
	<text fill="black" font-family="Arial" font-size="15" stroke="none" text-anchor="start" x="247.51" y="287.5">RW371</text>
	<path d="M 122.51 295 L 122.51 305.42 A 2.08 2.08 0 0 0 124.59,307.5 L 240.01 307.5" style="fill: none; stroke: black; stroke-width: 1.5" />
	<text fill="black" font-family="Arial" font-size="15" stroke="none" text-anchor="start" x="247.51" y="312.5">RW372</text>
	<text fill="black" font-family="Arial" font-size="15" stroke="none" text-anchor="start" x="40" y="340">Bray Curtis Distance</text>
	<line stroke="black" stroke-width="1.5" x1="40" x2="240" y1="355" y2="355" />
	<line stroke="black" stroke-width="1.5" x1="40" x2="40" y1="355" y2="347.5" />
	<text fill="black" font-family="Arial" font-size="15" stroke="none" text-anchor="middle" x="40" y="370">0</text>
	<line stroke="black" stroke-width="1.5" x1="44.1487388298244" x2="44.1487388298244" y1="355" y2="351.25" />
	<line stroke="black" stroke-width="1.5" x1="48.2974776596488" x2="48.2974776596488" y1="355" y2="351.25" />
	<line stroke="black" stroke-width="1.5" x1="52.4462164894733" x2="52.4462164894733" y1="355" y2="351.25" />
	<line stroke="black" stroke-width="1.5" x1="56.5949553192977" x2="56.5949553192977" y1="355" y2="351.25" />
	<line stroke="black" stroke-width="1.5" x1="60.7436941491221" x2="60.7436941491221" y1="355" y2="347.5" />
	<line stroke="black" stroke-width="1.5" x1="64.8924329789465" x2="64.8924329789465" y1="355" y2="351.25" />
	<line stroke="black" stroke-width="1.5" x1="69.0411718087709" x2="69.0411718087709" y1="355" y2="351.25" />
	<line stroke="black" stroke-width="1.5" x1="73.1899106385953" x2="73.1899106385953" y1="355" y2="351.25" />
	<line stroke="black" stroke-width="1.5" x1="77.3386494684197" x2="77.3386494684197" y1="355" y2="351.25" />
	<line stroke="black" stroke-width="1.5" x1="81.4873882982441" x2="81.4873882982441" y1="355" y2="347.5" />
	<text fill="black" font-family="Arial" font-size="15" stroke="none" text-anchor="middle" x="81.4873882982441" y="370">0.1</text>
	<line stroke="black" stroke-width="1.5" x1="85.6361271280686" x2="85.6361271280686" y1="355" y2="351.25" />
	<line stroke="black" stroke-width="1.5" x1="89.784865957893" x2="89.784865957893" y1="355" y2="351.25" />
	<line stroke="black" stroke-width="1.5" x1="93.9336047877174" x2="93.9336047877174" y1="355" y2="351.25" />
	<line stroke="black" stroke-width="1.5" x1="98.0823436175418" x2="98.0823436175418" y1="355" y2="351.25" />
	<line stroke="black" stroke-width="1.5" x1="102.231082447366" x2="102.231082447366" y1="355" y2="347.5" />
	<line stroke="black" stroke-width="1.5" x1="106.379821277191" x2="106.379821277191" y1="355" y2="351.25" />
	<line stroke="black" stroke-width="1.5" x1="110.528560107015" x2="110.528560107015" y1="355" y2="351.25" />
	<line stroke="black" stroke-width="1.5" x1="114.677298936839" x2="114.677298936839" y1="355" y2="351.25" />
	<line stroke="black" stroke-width="1.5" x1="118.826037766664" x2="118.826037766664" y1="355" y2="351.25" />
	<line stroke="black" stroke-width="1.5" x1="122.974776596488" x2="122.974776596488" y1="355" y2="347.5" />
	<text fill="black" font-family="Arial" font-size="15" stroke="none" text-anchor="middle" x="122.974776596488" y="370">0.2</text>
	<line stroke="black" stroke-width="1.5" x1="127.123515426313" x2="127.123515426313" y1="355" y2="351.25" />
	<line stroke="black" stroke-width="1.5" x1="131.272254256137" x2="131.272254256137" y1="355" y2="351.25" />
	<line stroke="black" stroke-width="1.5" x1="135.420993085961" x2="135.420993085961" y1="355" y2="351.25" />
	<line stroke="black" stroke-width="1.5" x1="139.569731915786" x2="139.569731915786" y1="355" y2="351.25" />
	<line stroke="black" stroke-width="1.5" x1="143.71847074561" x2="143.71847074561" y1="355" y2="347.5" />
	<line stroke="black" stroke-width="1.5" x1="147.867209575435" x2="147.867209575435" y1="355" y2="351.25" />
	<line stroke="black" stroke-width="1.5" x1="152.015948405259" x2="152.015948405259" y1="355" y2="351.25" />
	<line stroke="black" stroke-width="1.5" x1="156.164687235084" x2="156.164687235084" y1="355" y2="351.25" />
	<line stroke="black" stroke-width="1.5" x1="160.313426064908" x2="160.313426064908" y1="355" y2="351.25" />
	<line stroke="black" stroke-width="1.5" x1="164.462164894732" x2="164.462164894732" y1="355" y2="347.5" />
	<text fill="black" font-family="Arial" font-size="15" stroke="none" text-anchor="middle" x="164.462164894732" y="370">0.3</text>
	<line stroke="black" stroke-width="1.5" x1="168.610903724557" x2="168.610903724557" y1="355" y2="351.25" />
	<line stroke="black" stroke-width="1.5" x1="172.759642554381" x2="172.759642554381" y1="355" y2="351.25" />
	<line stroke="black" stroke-width="1.5" x1="176.908381384206" x2="176.908381384206" y1="355" y2="351.25" />
	<line stroke="black" stroke-width="1.5" x1="181.05712021403" x2="181.05712021403" y1="355" y2="351.25" />
	<line stroke="black" stroke-width="1.5" x1="185.205859043855" x2="185.205859043855" y1="355" y2="347.5" />
	<line stroke="black" stroke-width="1.5" x1="189.354597873679" x2="189.354597873679" y1="355" y2="351.25" />
	<line stroke="black" stroke-width="1.5" x1="193.503336703503" x2="193.503336703503" y1="355" y2="351.25" />
	<line stroke="black" stroke-width="1.5" x1="197.652075533328" x2="197.652075533328" y1="355" y2="351.25" />
	<line stroke="black" stroke-width="1.5" x1="201.800814363152" x2="201.800814363152" y1="355" y2="351.25" />
	<line stroke="black" stroke-width="1.5" x1="205.949553192977" x2="205.949553192977" y1="355" y2="347.5" />
	<text fill="black" font-family="Arial" font-size="15" stroke="none" text-anchor="middle" x="205.949553192977" y="370">0.4</text>
	<line stroke="black" stroke-width="1.5" x1="210.098292022801" x2="210.098292022801" y1="355" y2="351.25" />
	<line stroke="black" stroke-width="1.5" x1="214.247030852626" x2="214.247030852626" y1="355" y2="351.25" />
	<line stroke="black" stroke-width="1.5" x1="218.39576968245" x2="218.39576968245" y1="355" y2="351.25" />
	<line stroke="black" stroke-width="1.5" x1="222.544508512274" x2="222.544508512274" y1="355" y2="351.25" />
	<line stroke="black" stroke-width="1.5" x1="226.693247342099" x2="226.693247342099" y1="355" y2="347.5" />
	<line stroke="black" stroke-width="1.5" x1="230.841986171923" x2="230.841986171923" y1="355" y2="351.25" />
	<line stroke="black" stroke-width="1.5" x1="234.990725001748" x2="234.990725001748" y1="355" y2="351.25" />
	<line stroke="black" stroke-width="1.5" x1="239.139463831572" x2="239.139463831572" y1="355" y2="351.25" />
	<rect fill="crimson" height="20" stroke="black" width="357.53" x="330" y="22.5" />
	<rect fill="blue" height="20" stroke="black" width="5.18" x="687.53" y="22.5" />
	<rect fill="lightseagreen" height="20" stroke="black" width="1.29" x="692.71" y="22.5" />
	<rect fill="orange" height="20" stroke="black" width="2.82" x="694" y="22.5" />
	<rect fill="mediumpurple" height="20" stroke="black" width="6.35" x="696.82" y="22.5" />
	<rect fill="lightcoral" height="20" stroke="black" width="0.14" x="703.17" y="22.5" />
	<rect fill="dodgerblue" height="20" stroke="black" width="1.22" x="703.31" y="22.5" />
	<rect fill="lawngreen" height="20" stroke="black" width="0.1" x="704.53" y="22.5" />
	<rect fill="yellow" height="20" stroke="black" width="25.36" x="704.63" y="22.5" />
	<rect fill="crimson" height="20" stroke="black" width="316.55" x="330" y="47.5" />
	<line stroke="black" stroke-width="1" x1="687.53" x2="646.55" y1="42.5" y2="47.5" />
	<rect fill="blue" height="20" stroke="black" width="39.63" x="646.55" y="47.5" />
	<line stroke="black" stroke-width="1" x1="692.71" x2="686.18" y1="42.5" y2="47.5" />
	<rect fill="lightseagreen" height="20" stroke="black" width="1.83" x="686.18" y="47.5" />
	<line stroke="black" stroke-width="1" x1="694" x2="688.01" y1="42.5" y2="47.5" />
	<rect fill="orange" height="20" stroke="black" width="6.68" x="688.01" y="47.5" />
	<line stroke="black" stroke-width="1" x1="696.82" x2="694.69" y1="42.5" y2="47.5" />
	<rect fill="mediumpurple" height="20" stroke="black" width="1.78" x="694.69" y="47.5" />
	<line stroke="black" stroke-width="1" x1="703.17" x2="696.47" y1="42.5" y2="47.5" />
	<rect fill="palegreen" height="20" stroke="black" width="2.41" x="696.47" y="47.5" />
	<line stroke="black" stroke-width="1" x1="703.17" x2="698.88" y1="42.5" y2="47.5" />
	<rect fill="lightcoral" height="20" stroke="black" width="0.15" x="698.88" y="47.5" />
	<line stroke="black" stroke-width="1" x1="703.31" x2="699.03" y1="42.5" y2="47.5" />
	<rect fill="dodgerblue" height="20" stroke="black" width="1.85" x="699.03" y="47.5" />
	<line stroke="black" stroke-width="1" x1="704.53" x2="700.88" y1="42.5" y2="47.5" />
	<rect fill="lawngreen" height="20" stroke="black" width="0.03" x="700.88" y="47.5" />
	<line stroke="black" stroke-width="1" x1="704.63" x2="700.91" y1="42.5" y2="47.5" />
	<line stroke="black" stroke-width="1" x1="704.63" x2="700.91" y1="42.5" y2="47.5" />
	<rect fill="yellow" height="20" stroke="black" width="29.1" x="700.91" y="47.5" />
	<line stroke="black" stroke-width="1" x1="729.99" x2="730.01" y1="42.5" y2="47.5" />
	<rect fill="crimson" height="20" stroke="black" width="268.58" x="330" y="72.5" />
	<line stroke="black" stroke-width="1" x1="646.55" x2="598.58" y1="67.5" y2="72.5" />
	<rect fill="blue" height="20" stroke="black" width="43.23" x="598.58" y="72.5" />
	<line stroke="black" stroke-width="1" x1="686.18" x2="641.81" y1="67.5" y2="72.5" />
	<rect fill="lightseagreen" height="20" stroke="black" width="48.34" x="641.81" y="72.5" />
	<line stroke="black" stroke-width="1" x1="688.01" x2="690.15" y1="67.5" y2="72.5" />
	<rect fill="orange" height="20" stroke="black" width="8.67" x="690.15" y="72.5" />
	<line stroke="black" stroke-width="1" x1="694.69" x2="698.82" y1="67.5" y2="72.5" />
	<rect fill="mediumpurple" height="20" stroke="black" width="2.86" x="698.82" y="72.5" />
	<line stroke="black" stroke-width="1" x1="696.47" x2="701.68" y1="67.5" y2="72.5" />
	<rect fill="palegreen" height="20" stroke="black" width="4.44" x="701.68" y="72.5" />
	<line stroke="black" stroke-width="1" x1="698.88" x2="706.12" y1="67.5" y2="72.5" />
	<rect fill="lightcoral" height="20" stroke="black" width="0.62" x="706.12" y="72.5" />
	<line stroke="black" stroke-width="1" x1="699.03" x2="706.74" y1="67.5" y2="72.5" />
	<rect fill="dodgerblue" height="20" stroke="black" width="0.1" x="706.74" y="72.5" />
	<line stroke="black" stroke-width="1" x1="700.88" x2="706.84" y1="67.5" y2="72.5" />
	<rect fill="lawngreen" height="20" stroke="black" width="0.18" x="706.84" y="72.5" />
	<line stroke="black" stroke-width="1" x1="700.91" x2="707.02" y1="67.5" y2="72.5" />
	<rect fill="olive" height="20" stroke="black" width="0.00387660758070612" x="707.02" y="72.5" />
	<line stroke="black" stroke-width="1" x1="700.91" x2="707.023876607581" y1="67.5" y2="72.5" />
	<rect fill="yellow" height="20" stroke="black" width="22.97" x="707.02" y="72.5" />
	<line stroke="black" stroke-width="1" x1="730.01" x2="729.99" y1="67.5" y2="72.5" />
	<rect fill="crimson" height="20" stroke="black" width="282.41" x="330" y="97.5" />
	<line stroke="black" stroke-width="1" x1="598.58" x2="612.41" y1="92.5" y2="97.5" />
	<rect fill="blue" height="20" stroke="black" width="58" x="612.41" y="97.5" />
	<line stroke="black" stroke-width="1" x1="641.81" x2="670.41" y1="92.5" y2="97.5" />
	<rect fill="lightseagreen" height="20" stroke="black" width="34.95" x="670.41" y="97.5" />
	<line stroke="black" stroke-width="1" x1="690.15" x2="705.36" y1="92.5" y2="97.5" />
	<rect fill="orange" height="20" stroke="black" width="11.9" x="705.36" y="97.5" />
	<line stroke="black" stroke-width="1" x1="698.82" x2="717.26" y1="92.5" y2="97.5" />
	<rect fill="mediumpurple" height="20" stroke="black" width="0.55" x="717.26" y="97.5" />
	<line stroke="black" stroke-width="1" x1="701.68" x2="717.81" y1="92.5" y2="97.5" />
	<rect fill="palegreen" height="20" stroke="black" width="0.07" x="717.81" y="97.5" />
	<line stroke="black" stroke-width="1" x1="706.12" x2="717.88" y1="92.5" y2="97.5" />
	<rect fill="lightcoral" height="20" stroke="black" width="0.6" x="717.88" y="97.5" />
	<line stroke="black" stroke-width="1" x1="706.74" x2="718.48" y1="92.5" y2="97.5" />
	<rect fill="dodgerblue" height="20" stroke="black" width="0.3" x="718.48" y="97.5" />
	<line stroke="black" stroke-width="1" x1="706.84" x2="718.78" y1="92.5" y2="97.5" />
	<rect fill="lawngreen" height="20" stroke="black" width="0.22" x="718.78" y="97.5" />
	<line stroke="black" stroke-width="1" x1="707.02" x2="719" y1="92.5" y2="97.5" />
	<line stroke="black" stroke-width="1" x1="707.02" x2="719" y1="92.5" y2="97.5" />
	<rect fill="yellow" height="20" stroke="black" width="11.01" x="719" y="97.5" />
	<line stroke="black" stroke-width="1" x1="729.99" x2="730.01" y1="92.5" y2="97.5" />
	<rect fill="crimson" height="20" stroke="black" width="328.28" x="330" y="122.5" />
	<line stroke="black" stroke-width="1" x1="612.41" x2="658.28" y1="117.5" y2="122.5" />
	<rect fill="blue" height="20" stroke="black" width="36.79" x="658.28" y="122.5" />
	<line stroke="black" stroke-width="1" x1="670.41" x2="695.07" y1="117.5" y2="122.5" />
	<rect fill="lightseagreen" height="20" stroke="black" width="19.47" x="695.07" y="122.5" />
	<line stroke="black" stroke-width="1" x1="705.36" x2="714.54" y1="117.5" y2="122.5" />
	<rect fill="orange" height="20" stroke="black" width="4.82" x="714.54" y="122.5" />
	<line stroke="black" stroke-width="1" x1="717.26" x2="719.36" y1="117.5" y2="122.5" />
	<rect fill="mediumpurple" height="20" stroke="black" width="0.33" x="719.36" y="122.5" />
	<line stroke="black" stroke-width="1" x1="717.81" x2="719.69" y1="117.5" y2="122.5" />
	<rect fill="palegreen" height="20" stroke="black" width="0.46" x="719.69" y="122.5" />
	<line stroke="black" stroke-width="1" x1="717.88" x2="720.15" y1="117.5" y2="122.5" />
	<rect fill="lightcoral" height="20" stroke="black" width="0.31" x="720.15" y="122.5" />
	<line stroke="black" stroke-width="1" x1="718.48" x2="720.46" y1="117.5" y2="122.5" />
	<rect fill="dodgerblue" height="20" stroke="black" width="0.2" x="720.46" y="122.5" />
	<line stroke="black" stroke-width="1" x1="718.78" x2="720.66" y1="117.5" y2="122.5" />
	<rect fill="lawngreen" height="20" stroke="black" width="0.09" x="720.66" y="122.5" />
	<line stroke="black" stroke-width="1" x1="719" x2="720.75" y1="117.5" y2="122.5" />
	<rect fill="olive" height="20" stroke="black" width="0.02" x="720.75" y="122.5" />
	<line stroke="black" stroke-width="1" x1="719" x2="720.77" y1="117.5" y2="122.5" />
	<rect fill="yellow" height="20" stroke="black" width="9.23" x="720.77" y="122.5" />
	<line stroke="black" stroke-width="1" x1="730.01" x2="730" y1="117.5" y2="122.5" />
	<rect fill="crimson" height="20" stroke="black" width="344.76" x="330" y="147.5" />
	<line stroke="black" stroke-width="1" x1="658.28" x2="674.76" y1="142.5" y2="147.5" />
	<rect fill="blue" height="20" stroke="black" width="44.36" x="674.76" y="147.5" />
	<line stroke="black" stroke-width="1" x1="695.07" x2="719.12" y1="142.5" y2="147.5" />
	<rect fill="lightseagreen" height="20" stroke="black" width="4.78" x="719.12" y="147.5" />
	<line stroke="black" stroke-width="1" x1="714.54" x2="723.9" y1="142.5" y2="147.5" />
	<rect fill="orange" height="20" stroke="black" width="1.52" x="723.9" y="147.5" />
	<line stroke="black" stroke-width="1" x1="719.36" x2="725.42" y1="142.5" y2="147.5" />
	<rect fill="mediumpurple" height="20" stroke="black" width="0.27" x="725.42" y="147.5" />
	<line stroke="black" stroke-width="1" x1="719.69" x2="725.69" y1="142.5" y2="147.5" />
	<rect fill="palegreen" height="20" stroke="black" width="0.18" x="725.69" y="147.5" />
	<line stroke="black" stroke-width="1" x1="720.15" x2="725.87" y1="142.5" y2="147.5" />
	<rect fill="lightcoral" height="20" stroke="black" width="0.08" x="725.87" y="147.5" />
	<line stroke="black" stroke-width="1" x1="720.46" x2="725.95" y1="142.5" y2="147.5" />
	<rect fill="dodgerblue" height="20" stroke="black" width="0.11" x="725.95" y="147.5" />
	<line stroke="black" stroke-width="1" x1="720.66" x2="726.06" y1="142.5" y2="147.5" />
	<rect fill="lawngreen" height="20" stroke="black" width="0.02" x="726.06" y="147.5" />
	<line stroke="black" stroke-width="1" x1="720.75" x2="726.08" y1="142.5" y2="147.5" />
	<line stroke="black" stroke-width="1" x1="720.77" x2="726.08" y1="142.5" y2="147.5" />
	<rect fill="yellow" height="20" stroke="black" width="3.92" x="726.08" y="147.5" />
	<line stroke="black" stroke-width="1" x1="730" x2="730" y1="142.5" y2="147.5" />
	<rect fill="crimson" height="20" stroke="black" width="329.75" x="330" y="172.5" />
	<line stroke="black" stroke-width="1" x1="674.76" x2="659.75" y1="167.5" y2="172.5" />
	<rect fill="blue" height="20" stroke="black" width="31.1" x="659.75" y="172.5" />
	<line stroke="black" stroke-width="1" x1="719.12" x2="690.85" y1="167.5" y2="172.5" />
	<rect fill="lightseagreen" height="20" stroke="black" width="17.07" x="690.85" y="172.5" />
	<line stroke="black" stroke-width="1" x1="723.9" x2="707.92" y1="167.5" y2="172.5" />
	<rect fill="orange" height="20" stroke="black" width="7.2" x="707.92" y="172.5" />
	<line stroke="black" stroke-width="1" x1="725.42" x2="715.12" y1="167.5" y2="172.5" />
	<rect fill="mediumpurple" height="20" stroke="black" width="1.67" x="715.12" y="172.5" />
	<line stroke="black" stroke-width="1" x1="725.69" x2="716.79" y1="167.5" y2="172.5" />
	<rect fill="palegreen" height="20" stroke="black" width="0.72" x="716.79" y="172.5" />
	<line stroke="black" stroke-width="1" x1="725.87" x2="717.51" y1="167.5" y2="172.5" />
	<rect fill="lightcoral" height="20" stroke="black" width="0.27" x="717.51" y="172.5" />
	<line stroke="black" stroke-width="1" x1="725.95" x2="717.78" y1="167.5" y2="172.5" />
	<rect fill="dodgerblue" height="20" stroke="black" width="0.44" x="717.78" y="172.5" />
	<line stroke="black" stroke-width="1" x1="726.06" x2="718.22" y1="167.5" y2="172.5" />
	<rect fill="lawngreen" height="20" stroke="black" width="0.12" x="718.22" y="172.5" />
	<line stroke="black" stroke-width="1" x1="726.08" x2="718.34" y1="167.5" y2="172.5" />
	<line stroke="black" stroke-width="1" x1="726.08" x2="718.34" y1="167.5" y2="172.5" />
	<rect fill="yellow" height="20" stroke="black" width="11.66" x="718.34" y="172.5" />
	<line stroke="black" stroke-width="1" x1="730" x2="730" y1="167.5" y2="172.5" />
	<rect fill="crimson" height="20" stroke="black" width="320.37" x="330" y="197.5" />
	<line stroke="black" stroke-width="1" x1="659.75" x2="650.37" y1="192.5" y2="197.5" />
	<rect fill="blue" height="20" stroke="black" width="31.68" x="650.37" y="197.5" />
	<line stroke="black" stroke-width="1" x1="690.85" x2="682.05" y1="192.5" y2="197.5" />
	<rect fill="lightseagreen" height="20" stroke="black" width="5.93" x="682.05" y="197.5" />
	<line stroke="black" stroke-width="1" x1="707.92" x2="687.98" y1="192.5" y2="197.5" />
	<rect fill="orange" height="20" stroke="black" width="8.06" x="687.98" y="197.5" />
	<line stroke="black" stroke-width="1" x1="715.12" x2="696.04" y1="192.5" y2="197.5" />
	<rect fill="mediumpurple" height="20" stroke="black" width="2.99" x="696.04" y="197.5" />
	<line stroke="black" stroke-width="1" x1="716.79" x2="699.03" y1="192.5" y2="197.5" />
	<rect fill="palegreen" height="20" stroke="black" width="0.37" x="699.03" y="197.5" />
	<line stroke="black" stroke-width="1" x1="717.51" x2="699.4" y1="192.5" y2="197.5" />
	<rect fill="lightcoral" height="20" stroke="black" width="0.86" x="699.4" y="197.5" />
	<line stroke="black" stroke-width="1" x1="717.78" x2="700.26" y1="192.5" y2="197.5" />
	<rect fill="dodgerblue" height="20" stroke="black" width="1.2" x="700.26" y="197.5" />
	<line stroke="black" stroke-width="1" x1="718.22" x2="701.46" y1="192.5" y2="197.5" />
	<rect fill="lawngreen" height="20" stroke="black" width="0.11" x="701.46" y="197.5" />
	<line stroke="black" stroke-width="1" x1="718.34" x2="701.57" y1="192.5" y2="197.5" />
	<line stroke="black" stroke-width="1" x1="718.34" x2="701.57" y1="192.5" y2="197.5" />
	<rect fill="yellow" height="20" stroke="black" width="28.43" x="701.57" y="197.5" />
	<line stroke="black" stroke-width="1" x1="730" x2="730" y1="192.5" y2="197.5" />
	<rect fill="crimson" height="20" stroke="black" width="333.98" x="330" y="222.5" />
	<line stroke="black" stroke-width="1" x1="650.37" x2="663.98" y1="217.5" y2="222.5" />
	<rect fill="blue" height="20" stroke="black" width="32.14" x="663.98" y="222.5" />
	<line stroke="black" stroke-width="1" x1="682.05" x2="696.12" y1="217.5" y2="222.5" />
	<rect fill="lightseagreen" height="20" stroke="black" width="13.01" x="696.12" y="222.5" />
	<line stroke="black" stroke-width="1" x1="687.98" x2="709.13" y1="217.5" y2="222.5" />
	<rect fill="orange" height="20" stroke="black" width="2.12" x="709.13" y="222.5" />
	<line stroke="black" stroke-width="1" x1="696.04" x2="711.25" y1="217.5" y2="222.5" />
	<rect fill="mediumpurple" height="20" stroke="black" width="0.77" x="711.25" y="222.5" />
	<line stroke="black" stroke-width="1" x1="699.03" x2="712.02" y1="217.5" y2="222.5" />
	<rect fill="palegreen" height="20" stroke="black" width="0.23" x="712.02" y="222.5" />
	<line stroke="black" stroke-width="1" x1="699.4" x2="712.25" y1="217.5" y2="222.5" />
	<rect fill="lightcoral" height="20" stroke="black" width="0.79" x="712.25" y="222.5" />
	<line stroke="black" stroke-width="1" x1="700.26" x2="713.04" y1="217.5" y2="222.5" />
	<rect fill="dodgerblue" height="20" stroke="black" width="1.25" x="713.04" y="222.5" />
	<line stroke="black" stroke-width="1" x1="701.46" x2="714.29" y1="217.5" y2="222.5" />
	<rect fill="lawngreen" height="20" stroke="black" width="0.08" x="714.29" y="222.5" />
	<line stroke="black" stroke-width="1" x1="701.57" x2="714.37" y1="217.5" y2="222.5" />
	<rect fill="olive" height="20" stroke="black" width="0.01" x="714.37" y="222.5" />
	<line stroke="black" stroke-width="1" x1="701.57" x2="714.38" y1="217.5" y2="222.5" />
	<rect fill="yellow" height="20" stroke="black" width="15.62" x="714.38" y="222.5" />
	<line stroke="black" stroke-width="1" x1="730" x2="730" y1="217.5" y2="222.5" />
	<rect fill="crimson" height="20" stroke="black" width="250.49" x="330" y="247.5" />
	<line stroke="black" stroke-width="1" x1="663.98" x2="580.49" y1="242.5" y2="247.5" />
	<rect fill="blue" height="20" stroke="black" width="85.65" x="580.49" y="247.5" />
	<line stroke="black" stroke-width="1" x1="696.12" x2="666.14" y1="242.5" y2="247.5" />
	<rect fill="lightseagreen" height="20" stroke="black" width="15.06" x="666.14" y="247.5" />
	<line stroke="black" stroke-width="1" x1="709.13" x2="681.2" y1="242.5" y2="247.5" />
	<rect fill="orange" height="20" stroke="black" width="4.47" x="681.2" y="247.5" />
	<line stroke="black" stroke-width="1" x1="711.25" x2="685.67" y1="242.5" y2="247.5" />
	<rect fill="mediumpurple" height="20" stroke="black" width="1.42" x="685.67" y="247.5" />
	<line stroke="black" stroke-width="1" x1="712.02" x2="687.09" y1="242.5" y2="247.5" />
	<rect fill="palegreen" height="20" stroke="black" width="0.35" x="687.09" y="247.5" />
	<line stroke="black" stroke-width="1" x1="712.25" x2="687.44" y1="242.5" y2="247.5" />
	<rect fill="lightcoral" height="20" stroke="black" width="4.29" x="687.44" y="247.5" />
	<line stroke="black" stroke-width="1" x1="713.04" x2="691.73" y1="242.5" y2="247.5" />
	<rect fill="dodgerblue" height="20" stroke="black" width="0.77" x="691.73" y="247.5" />
	<line stroke="black" stroke-width="1" x1="714.29" x2="692.5" y1="242.5" y2="247.5" />
	<rect fill="lawngreen" height="20" stroke="black" width="0.14" x="692.5" y="247.5" />
	<line stroke="black" stroke-width="1" x1="714.37" x2="692.64" y1="242.5" y2="247.5" />
	<line stroke="black" stroke-width="1" x1="714.38" x2="692.64" y1="242.5" y2="247.5" />
	<rect fill="yellow" height="20" stroke="black" width="37.34" x="692.64" y="247.5" />
	<line stroke="black" stroke-width="1" x1="730" x2="729.98" y1="242.5" y2="247.5" />
	<rect fill="crimson" height="20" stroke="black" width="252.55" x="330" y="272.5" />
	<line stroke="black" stroke-width="1" x1="580.49" x2="582.55" y1="267.5" y2="272.5" />
	<rect fill="blue" height="20" stroke="black" width="71.51" x="582.55" y="272.5" />
	<line stroke="black" stroke-width="1" x1="666.14" x2="654.06" y1="267.5" y2="272.5" />
	<rect fill="lightseagreen" height="20" stroke="black" width="45.24" x="654.06" y="272.5" />
	<line stroke="black" stroke-width="1" x1="681.2" x2="699.3" y1="267.5" y2="272.5" />
	<rect fill="orange" height="20" stroke="black" width="7.11" x="699.3" y="272.5" />
	<line stroke="black" stroke-width="1" x1="685.67" x2="706.41" y1="267.5" y2="272.5" />
	<rect fill="mediumpurple" height="20" stroke="black" width="5.02" x="706.41" y="272.5" />
	<line stroke="black" stroke-width="1" x1="687.09" x2="711.43" y1="267.5" y2="272.5" />
	<rect fill="palegreen" height="20" stroke="black" width="0.1" x="711.43" y="272.5" />
	<line stroke="black" stroke-width="1" x1="687.44" x2="711.53" y1="267.5" y2="272.5" />
	<rect fill="lightcoral" height="20" stroke="black" width="1.3" x="711.53" y="272.5" />
	<line stroke="black" stroke-width="1" x1="691.73" x2="712.83" y1="267.5" y2="272.5" />
	<rect fill="dodgerblue" height="20" stroke="black" width="1.79" x="712.83" y="272.5" />
	<line stroke="black" stroke-width="1" x1="692.5" x2="714.62" y1="267.5" y2="272.5" />
	<rect fill="lawngreen" height="20" stroke="black" width="0.24" x="714.62" y="272.5" />
	<line stroke="black" stroke-width="1" x1="692.64" x2="714.86" y1="267.5" y2="272.5" />
	<line stroke="black" stroke-width="1" x1="692.64" x2="714.86" y1="267.5" y2="272.5" />
	<rect fill="yellow" height="20" stroke="black" width="15.14" x="714.86" y="272.5" />
	<line stroke="black" stroke-width="1" x1="729.98" x2="730" y1="267.5" y2="272.5" />
	<rect fill="crimson" height="20" stroke="black" width="259.17" x="330" y="297.5" />
	<line stroke="black" stroke-width="1" x1="582.55" x2="589.17" y1="292.5" y2="297.5" />
	<rect fill="blue" height="20" stroke="black" width="48.01" x="589.17" y="297.5" />
	<line stroke="black" stroke-width="1" x1="654.06" x2="637.18" y1="292.5" y2="297.5" />
	<rect fill="lightseagreen" height="20" stroke="black" width="33.86" x="637.18" y="297.5" />
	<line stroke="black" stroke-width="1" x1="699.3" x2="671.04" y1="292.5" y2="297.5" />
	<rect fill="orange" height="20" stroke="black" width="32.77" x="671.04" y="297.5" />
	<line stroke="black" stroke-width="1" x1="706.41" x2="703.81" y1="292.5" y2="297.5" />
	<rect fill="mediumpurple" height="20" stroke="black" width="6.49" x="703.81" y="297.5" />
	<line stroke="black" stroke-width="1" x1="711.43" x2="710.3" y1="292.5" y2="297.5" />
	<rect fill="palegreen" height="20" stroke="black" width="0.67" x="710.3" y="297.5" />
	<line stroke="black" stroke-width="1" x1="711.53" x2="710.97" y1="292.5" y2="297.5" />
	<rect fill="lightcoral" height="20" stroke="black" width="0.66" x="710.97" y="297.5" />
	<line stroke="black" stroke-width="1" x1="712.83" x2="711.63" y1="292.5" y2="297.5" />
	<rect fill="dodgerblue" height="20" stroke="black" width="0.9" x="711.63" y="297.5" />
	<line stroke="black" stroke-width="1" x1="714.62" x2="712.53" y1="292.5" y2="297.5" />
	<rect fill="lawngreen" height="20" stroke="black" width="0.25" x="712.53" y="297.5" />
	<line stroke="black" stroke-width="1" x1="714.86" x2="712.78" y1="292.5" y2="297.5" />
	<rect fill="olive" height="20" stroke="black" width="0.01" x="712.78" y="297.5" />
	<line stroke="black" stroke-width="1" x1="714.86" x2="712.79" y1="292.5" y2="297.5" />
	<rect fill="yellow" height="20" stroke="black" width="17.2" x="712.79" y="297.5" />
	<line stroke="black" stroke-width="1" x1="730" x2="729.99" y1="292.5" y2="297.5" />
	<line stroke="black" stroke-width="1" x1="330" x2="730" y1="322.5" y2="322.5" />
	<line stroke="black" stroke-width="1" x1="330" x2="330" y1="322.5" y2="330" />
	<text fill="black" font-family="Arial" font-size="15" stroke="none" text-anchor="middle" x="330" y="345">0</text>
	<line stroke="black" stroke-width="1" x1="430" x2="430" y1="322.5" y2="330" />
	<text fill="black" font-family="Arial" font-size="15" stroke="none" text-anchor="middle" x="430" y="345">0.25</text>
	<line stroke="black" stroke-width="1" x1="530" x2="530" y1="322.5" y2="330" />
	<text fill="black" font-family="Arial" font-size="15" stroke="none" text-anchor="middle" x="530" y="345">0.5</text>
	<line stroke="black" stroke-width="1" x1="630" x2="630" y1="322.5" y2="330" />
	<text fill="black" font-family="Arial" font-size="15" stroke="none" text-anchor="middle" x="630" y="345">0.75</text>
	<line stroke="black" stroke-width="1" x1="730" x2="730" y1="322.5" y2="330" />
	<text fill="black" font-family="Arial" font-size="15" stroke="none" text-anchor="middle" x="730" y="345">1</text>
	<text fill="black" font-family="Arial" font-size="15" stroke="none" text-anchor="middle" x="530" y="360">Relative Abundance in Phylum Level</text>
	<rect fill="crimson" height="11.6666666666667" stroke="black" width="11.6666666666667" x="741.666666666667" y="22.5" />
	<text fill="black" font-family="Arial" font-size="11.6666666666667" stroke="none" text-anchor="start" x="759.166666666667" y="32.4166666666667">Ascomycota</text>
	<rect fill="blue" height="11.6666666666667" stroke="black" width="11.6666666666667" x="741.666666666667" y="40" />
	<text fill="black" font-family="Arial" font-size="11.6666666666667" stroke="none" text-anchor="start" x="759.166666666667" y="49.9166666666667">Basidiomycota</text>
	<rect fill="lightseagreen" height="11.6666666666667" stroke="black" width="11.6666666666667" x="741.666666666667" y="57.5" />
	<text fill="black" font-family="Arial" font-size="11.6666666666667" stroke="none" text-anchor="start" x="759.166666666667" y="67.4166666666667">Zygomycota</text>
	<rect fill="orange" height="11.6666666666667" stroke="black" width="11.6666666666667" x="741.666666666667" y="75" />
	<text fill="black" font-family="Arial" font-size="11.6666666666667" stroke="none" text-anchor="start" x="759.166666666667" y="84.9166666666667">Ciliophora</text>
	<rect fill="mediumpurple" height="11.6666666666667" stroke="black" width="11.6666666666667" x="741.666666666667" y="92.5" />
	<text fill="black" font-family="Arial" font-size="11.6666666666667" stroke="none" text-anchor="start" x="759.166666666667" y="102.416666666667">Chytridiomycota</text>
	<rect fill="palegreen" height="11.6666666666667" stroke="black" width="11.6666666666667" x="741.666666666667" y="110" />
	<text fill="black" font-family="Arial" font-size="11.6666666666667" stroke="none" text-anchor="start" x="759.166666666667" y="119.916666666667">Rozellomycota</text>
	<rect fill="lightcoral" height="11.6666666666667" stroke="black" width="11.6666666666667" x="741.666666666667" y="127.5" />
	<text fill="black" font-family="Arial" font-size="11.6666666666667" stroke="none" text-anchor="start" x="759.166666666667" y="137.416666666667">Glomeromycota</text>
	<rect fill="dodgerblue" height="11.6666666666667" stroke="black" width="11.6666666666667" x="741.666666666667" y="145" />
	<text fill="black" font-family="Arial" font-size="11.6666666666667" stroke="none" text-anchor="start" x="759.166666666667" y="154.916666666667">Chlorophyta</text>
	<rect fill="lawngreen" height="11.6666666666667" stroke="black" width="11.6666666666667" x="741.666666666667" y="162.5" />
	<text fill="black" font-family="Arial" font-size="11.6666666666667" stroke="none" text-anchor="start" x="759.166666666667" y="172.416666666667">Cercozoa</text>
	<rect fill="olive" height="11.6666666666667" stroke="black" width="11.6666666666667" x="741.666666666667" y="180" />
	<text fill="black" font-family="Arial" font-size="11.6666666666667" stroke="none" text-anchor="start" x="759.166666666667" y="189.916666666667">Arthropoda</text>
	<rect fill="yellow" height="11.6666666666667" stroke="black" width="11.6666666666667" x="741.666666666667" y="197.5" />
	<text fill="black" font-family="Arial" font-size="11.6666666666667" stroke="none" text-anchor="start" x="759.166666666667" y="207.416666666667">Others</text>
	<!-- 
	Generated using the Perl SVG Module V2.64
	by Ronan Oger
	Info: http://www.roitsystems.com/
 -->
</svg>