<?xml version="1.0" encoding="UTF-8" standalone="yes"?>
<!DOCTYPE svg PUBLIC "-//W3C//DTD SVG 1.0//EN" "http://www.w3.org/TR/2001/REC-SVG-20010904/DTD/svg10.dtd">
<svg height="450" width="650" xmlns="http://www.w3.org/2000/svg" xmlns:svg="http://www.w3.org/2000/svg" xmlns:xlink="http://www.w3.org/1999/xlink">
	<text fill="black" font-family="Arial" font-size="15" stroke="none" text-anchor="end" x="92.5" y="355">0</text>
	<line stroke="black" stroke-width="2" x1="100" x2="95" y1="350" y2="350" />
	<text fill="black" font-family="Arial" font-size="15" stroke="none" text-anchor="end" x="92.5" y="295">2000</text>
	<line stroke="black" stroke-width="2" x1="100" x2="95" y1="290" y2="290" />
	<text fill="black" font-family="Arial" font-size="15" stroke="none" text-anchor="end" x="92.5" y="235">4000</text>
	<line stroke="black" stroke-width="2" x1="100" x2="95" y1="230" y2="230" />
	<text fill="black" font-family="Arial" font-size="15" stroke="none" text-anchor="end" x="92.5" y="175">6000</text>
	<line stroke="black" stroke-width="2" x1="100" x2="95" y1="170" y2="170" />
	<text fill="black" font-family="Arial" font-size="15" stroke="none" text-anchor="end" x="92.5" y="115">8000</text>
	<line stroke="black" stroke-width="2" x1="100" x2="95" y1="110" y2="110" />
	<text fill="black" font-family="Arial" font-size="15" stroke="none" text-anchor="end" x="92.5" y="55">10000</text>
	<line stroke="black" stroke-width="2" x1="100" x2="95" y1="50" y2="50" />
	<line stroke="black" stroke-width="1" x1="100" x2="100" y1="50" y2="350" />
	<text fill="black" font-family="Arial" font-size="15" stroke="none" text-anchor="middle" x="325" y="410.574363164907">Group Name</text>
	<g transform="rotate(-90,40,200)">
		<text fill="black" font-family="Arial" font-size="15" stroke="none" text-anchor="middle" x="40" y="200">OTU Number</text>
	</g>
	<line stroke="black" stroke-width="2" x1="212.5" x2="212.5" y1="350" y2="352.7" />
	<g fill="black" font-family="Arial" font-size="13.5" stroke="none" text-anchor="end" transform="rotate(-45,156.25,359)">
		<text x="156.25" y="363.5">CK</text>
	</g>
	<rect fill="blue" height="23.19" stroke="blue" width="56.25" x="128.125" y="326.81" />
	<rect fill="lightseagreen" height="14.07" stroke="lightseagreen" width="56.25" x="128.125" y="312.74" />
	<rect fill="orange" height="6.15" stroke="orange" width="56.25" x="128.125" y="306.59" />
	<rect fill="mediumpurple" height="37.8" stroke="mediumpurple" width="56.25" x="128.125" y="268.79" />
	<rect fill="palegreen" height="22.71" stroke="palegreen" width="56.25" x="128.125" y="246.08" />
	<rect fill="lightcoral" height="61.2" stroke="lightcoral" width="56.25" x="128.125" y="184.88" />
	<rect fill="dodgerblue" height="52.47" stroke="dodgerblue" width="56.25" x="128.125" y="132.41" />
	<line stroke="black" stroke-width="2" x1="325" x2="325" y1="350" y2="352.7" />
	<g fill="black" font-family="Arial" font-size="13.5" stroke="none" text-anchor="end" transform="rotate(-45,268.75,359)">
		<text x="268.75" y="363.5">JXBR16</text>
	</g>
	<rect fill="blue" height="16.8" stroke="blue" width="56.25" x="240.625" y="333.2" />
	<rect fill="lightseagreen" height="12.48" stroke="lightseagreen" width="56.25" x="240.625" y="320.72" />
	<rect fill="orange" height="4.44" stroke="orange" width="56.25" x="240.625" y="316.28" />
	<rect fill="mediumpurple" height="36.33" stroke="mediumpurple" width="56.25" x="240.625" y="279.95" />
	<rect fill="palegreen" height="15.12" stroke="palegreen" width="56.25" x="240.625" y="264.83" />
	<rect fill="lightcoral" height="42.48" stroke="lightcoral" width="56.25" x="240.625" y="222.35" />
	<rect fill="dodgerblue" height="87.3" stroke="dodgerblue" width="56.25" x="240.625" y="135.05" />
	<line stroke="black" stroke-width="2" x1="437.5" x2="437.5" y1="350" y2="352.7" />
	<g fill="black" font-family="Arial" font-size="13.5" stroke="none" text-anchor="end" transform="rotate(-45,381.25,359)">
		<text x="381.25" y="363.5">RW37</text>
	</g>
	<rect fill="blue" height="25.05" stroke="blue" width="56.25" x="353.125" y="324.95" />
	<rect fill="lightseagreen" height="18.81" stroke="lightseagreen" width="56.25" x="353.125" y="306.14" />
	<rect fill="orange" height="4.71" stroke="orange" width="56.25" x="353.125" y="301.43" />
	<rect fill="mediumpurple" height="37.89" stroke="mediumpurple" width="56.25" x="353.125" y="263.54" />
	<rect fill="palegreen" height="17.49" stroke="palegreen" width="56.25" x="353.125" y="246.05" />
	<rect fill="lightcoral" height="57.06" stroke="lightcoral" width="56.25" x="353.125" y="188.99" />
	<rect fill="dodgerblue" height="97.65" stroke="dodgerblue" width="56.25" x="353.125" y="91.34" />
	<line stroke="black" stroke-width="2" x1="550" x2="550" y1="350" y2="352.7" />
	<g fill="black" font-family="Arial" font-size="13.5" stroke="none" text-anchor="end" transform="rotate(-45,493.75,359)">
		<text x="493.75" y="363.5">R37J16</text>
	</g>
	<rect fill="blue" height="20.04" stroke="blue" width="56.25" x="465.625" y="329.96" />
	<rect fill="lightseagreen" height="20.88" stroke="lightseagreen" width="56.25" x="465.625" y="309.08" />
	<rect fill="orange" height="5.07" stroke="orange" width="56.25" x="465.625" y="304.01" />
	<rect fill="mediumpurple" height="31.35" stroke="mediumpurple" width="56.25" x="465.625" y="272.66" />
	<rect fill="palegreen" height="12.48" stroke="palegreen" width="56.25" x="465.625" y="260.18" />
	<rect fill="lightcoral" height="43.89" stroke="lightcoral" width="56.25" x="465.625" y="216.29" />
	<rect fill="dodgerblue" height="49.41" stroke="dodgerblue" width="56.25" x="465.625" y="166.88" />
	<line stroke="black" stroke-width="2" x1="100" x2="550" y1="350" y2="350" />
	<line stroke="black" stroke-width="2" x1="100" x2="100" y1="50" y2="352.7" />
	<rect fill="crimson" height="8.16666666666667" stroke="crimson" width="8.16666666666667" x="564" y="102.833333333333" />
	<text fill="black" font-family="Arial" font-size="11.6666666666667" stroke="none" x="576.25" y="111">Unassigned</text>
	<rect fill="blue" height="8.16666666666667" stroke="blue" width="8.16666666666667" x="564" y="116.833333333333" />
	<text fill="black" font-family="Arial" font-size="11.6666666666667" stroke="none" x="576.25" y="125">Kingdom</text>
	<rect fill="lightseagreen" height="8.16666666666667" stroke="lightseagreen" width="8.16666666666667" x="564" y="130.833333333333" />
	<text fill="black" font-family="Arial" font-size="11.6666666666667" stroke="none" x="576.25" y="139">Phylum</text>
	<rect fill="orange" height="8.16666666666667" stroke="orange" width="8.16666666666667" x="564" y="144.833333333333" />
	<text fill="black" font-family="Arial" font-size="11.6666666666667" stroke="none" x="576.25" y="153">Class</text>
	<rect fill="mediumpurple" height="8.16666666666667" stroke="mediumpurple" width="8.16666666666667" x="564" y="158.833333333333" />
	<text fill="black" font-family="Arial" font-size="11.6666666666667" stroke="none" x="576.25" y="167">Order</text>
	<rect fill="palegreen" height="8.16666666666667" stroke="palegreen" width="8.16666666666667" x="564" y="172.833333333333" />
	<text fill="black" font-family="Arial" font-size="11.6666666666667" stroke="none" x="576.25" y="181">Family</text>
	<rect fill="lightcoral" height="8.16666666666667" stroke="lightcoral" width="8.16666666666667" x="564" y="186.833333333333" />
	<text fill="black" font-family="Arial" font-size="11.6666666666667" stroke="none" x="576.25" y="195">Genus</text>
	<rect fill="dodgerblue" height="8.16666666666667" stroke="dodgerblue" width="8.16666666666667" x="564" y="200.833333333333" />
	<text fill="black" font-family="Arial" font-size="11.6666666666667" stroke="none" x="576.25" y="209">Species</text>
	<!-- 
	Generated using the Perl SVG Module V2.64
	by Ronan Oger
	Info: http://www.roitsystems.com/
 -->
</svg>