<?xml version="1.0" encoding="UTF-8" standalone="yes"?>
<!DOCTYPE svg PUBLIC "-//W3C//DTD SVG 1.0//EN" "http://www.w3.org/TR/2001/REC-SVG-20010904/DTD/svg10.dtd">
<svg height="377" width="860.999999999837" xmlns="http://www.w3.org/2000/svg" xmlns:svg="http://www.w3.org/2000/svg" xmlns:xlink="http://www.w3.org/1999/xlink">
	<path d="M 40 123.13 L 40 68.44 A 10.94 10.94 0 0 1 50.94,57.5 L 240 57.5" style="fill: none; stroke: black; stroke-width: 1.5" />
	<text fill="black" font-family="Arial" font-size="15" stroke="none" text-anchor="start" x="247.5" y="62.5">RW37</text>
	<path d="M 40 123.13 L 40 185.35 A 3.4 3.4 0 0 0 43.4,188.75 L 60.43 188.75" style="fill: none; stroke: black; stroke-width: 1.5" />
	<path d="M 60.43 188.75 L 60.43 141.88 A 9.38 9.38 0 0 1 69.81,132.5 L 240 132.5" style="fill: none; stroke: black; stroke-width: 1.5" />
	<text fill="black" font-family="Arial" font-size="15" stroke="none" text-anchor="start" x="247.5" y="137.5">CK</text>
	<path d="M 60.43 188.75 L 60.43 235.63 A 9.38 9.38 0 0 0 69.81,245 L 135.24 245" style="fill: none; stroke: black; stroke-width: 1.5" />
	<path d="M 135.24 245 L 135.24 213.75 A 6.25 6.25 0 0 1 141.49,207.5 L 240 207.5" style="fill: none; stroke: black; stroke-width: 1.5" />
	<text fill="black" font-family="Arial" font-size="15" stroke="none" text-anchor="start" x="247.5" y="212.5">JXBR16</text>
	<path d="M 135.24 245 L 135.24 276.25 A 6.25 6.25 0 0 0 141.49,282.5 L 240 282.5" style="fill: none; stroke: black; stroke-width: 1.5" />
	<text fill="black" font-family="Arial" font-size="15" stroke="none" text-anchor="start" x="247.5" y="287.5">R37J16</text>
	<text fill="black" font-family="Arial" font-size="15" stroke="none" text-anchor="start" x="40" y="340">Bray Curtis Distance</text>
	<line stroke="black" stroke-width="1.5" x1="40" x2="240" y1="355" y2="355" />
	<line stroke="black" stroke-width="1.5" x1="40" x2="40" y1="355" y2="347.5" />
	<text fill="black" font-family="Arial" font-size="15" stroke="none" text-anchor="middle" x="40" y="370">0</text>
	<line stroke="black" stroke-width="1.5" x1="45.4456331440154" x2="45.4456331440154" y1="355" y2="351.25" />
	<line stroke="black" stroke-width="1.5" x1="50.8912662880309" x2="50.8912662880309" y1="355" y2="351.25" />
	<line stroke="black" stroke-width="1.5" x1="56.3368994320463" x2="56.3368994320463" y1="355" y2="351.25" />
	<line stroke="black" stroke-width="1.5" x1="61.7825325760617" x2="61.7825325760617" y1="355" y2="351.25" />
	<line stroke="black" stroke-width="1.5" x1="67.2281657200772" x2="67.2281657200772" y1="355" y2="347.5" />
	<line stroke="black" stroke-width="1.5" x1="72.6737988640926" x2="72.6737988640926" y1="355" y2="351.25" />
	<line stroke="black" stroke-width="1.5" x1="78.119432008108" x2="78.119432008108" y1="355" y2="351.25" />
	<line stroke="black" stroke-width="1.5" x1="83.5650651521235" x2="83.5650651521235" y1="355" y2="351.25" />
	<line stroke="black" stroke-width="1.5" x1="89.0106982961389" x2="89.0106982961389" y1="355" y2="351.25" />
	<line stroke="black" stroke-width="1.5" x1="94.4563314401543" x2="94.4563314401543" y1="355" y2="347.5" />
	<text fill="black" font-family="Arial" font-size="15" stroke="none" text-anchor="middle" x="94.4563314401543" y="370">0.1</text>
	<line stroke="black" stroke-width="1.5" x1="99.9019645841697" x2="99.9019645841697" y1="355" y2="351.25" />
	<line stroke="black" stroke-width="1.5" x1="105.347597728185" x2="105.347597728185" y1="355" y2="351.25" />
	<line stroke="black" stroke-width="1.5" x1="110.793230872201" x2="110.793230872201" y1="355" y2="351.25" />
	<line stroke="black" stroke-width="1.5" x1="116.238864016216" x2="116.238864016216" y1="355" y2="351.25" />
	<line stroke="black" stroke-width="1.5" x1="121.684497160231" x2="121.684497160231" y1="355" y2="347.5" />
	<line stroke="black" stroke-width="1.5" x1="127.130130304247" x2="127.130130304247" y1="355" y2="351.25" />
	<line stroke="black" stroke-width="1.5" x1="132.575763448262" x2="132.575763448262" y1="355" y2="351.25" />
	<line stroke="black" stroke-width="1.5" x1="138.021396592278" x2="138.021396592278" y1="355" y2="351.25" />
	<line stroke="black" stroke-width="1.5" x1="143.467029736293" x2="143.467029736293" y1="355" y2="351.25" />
	<line stroke="black" stroke-width="1.5" x1="148.912662880309" x2="148.912662880309" y1="355" y2="347.5" />
	<text fill="black" font-family="Arial" font-size="15" stroke="none" text-anchor="middle" x="148.912662880309" y="370">0.2</text>
	<line stroke="black" stroke-width="1.5" x1="154.358296024324" x2="154.358296024324" y1="355" y2="351.25" />
	<line stroke="black" stroke-width="1.5" x1="159.803929168339" x2="159.803929168339" y1="355" y2="351.25" />
	<line stroke="black" stroke-width="1.5" x1="165.249562312355" x2="165.249562312355" y1="355" y2="351.25" />
	<line stroke="black" stroke-width="1.5" x1="170.69519545637" x2="170.69519545637" y1="355" y2="351.25" />
	<line stroke="black" stroke-width="1.5" x1="176.140828600386" x2="176.140828600386" y1="355" y2="347.5" />
	<line stroke="black" stroke-width="1.5" x1="181.586461744401" x2="181.586461744401" y1="355" y2="351.25" />
	<line stroke="black" stroke-width="1.5" x1="187.032094888417" x2="187.032094888417" y1="355" y2="351.25" />
	<line stroke="black" stroke-width="1.5" x1="192.477728032432" x2="192.477728032432" y1="355" y2="351.25" />
	<line stroke="black" stroke-width="1.5" x1="197.923361176448" x2="197.923361176448" y1="355" y2="351.25" />
	<line stroke="black" stroke-width="1.5" x1="203.368994320463" x2="203.368994320463" y1="355" y2="347.5" />
	<text fill="black" font-family="Arial" font-size="15" stroke="none" text-anchor="middle" x="203.368994320463" y="370">0.3</text>
	<line stroke="black" stroke-width="1.5" x1="208.814627464478" x2="208.814627464478" y1="355" y2="351.25" />
	<line stroke="black" stroke-width="1.5" x1="214.260260608494" x2="214.260260608494" y1="355" y2="351.25" />
	<line stroke="black" stroke-width="1.5" x1="219.705893752509" x2="219.705893752509" y1="355" y2="351.25" />
	<line stroke="black" stroke-width="1.5" x1="225.151526896525" x2="225.151526896525" y1="355" y2="351.25" />
	<line stroke="black" stroke-width="1.5" x1="230.59716004054" x2="230.59716004054" y1="355" y2="347.5" />
	<line stroke="black" stroke-width="1.5" x1="236.042793184556" x2="236.042793184556" y1="355" y2="351.25" />
	<rect fill="crimson" height="60" stroke="black" width="319" x="321" y="27.5" />
	<rect fill="blue" height="60" stroke="black" width="25.79" x="640" y="27.5" />
	<rect fill="lightseagreen" height="60" stroke="black" width="15.76" x="665.79" y="27.5" />
	<rect fill="orange" height="60" stroke="black" width="9.41" x="681.55" y="27.5" />
	<rect fill="mediumpurple" height="60" stroke="black" width="6.13" x="690.96" y="27.5" />
	<rect fill="palegreen" height="60" stroke="black" width="0.15" x="697.09" y="27.5" />
	<rect fill="lightcoral" height="60" stroke="black" width="0.46" x="697.24" y="27.5" />
	<rect fill="dodgerblue" height="60" stroke="black" width="1.27" x="697.7" y="27.5" />
	<rect fill="lawngreen" height="60" stroke="black" width="0.15" x="698.97" y="27.5" />
	<rect fill="olive" height="60" stroke="black" width="0.00275295340282246" x="699.12" y="27.5" />
	<rect fill="yellow" height="60" stroke="black" width="21.88" x="699.12" y="27.5" />
	<rect fill="crimson" height="60" stroke="black" width="301.46" x="321" y="102.5" />
	<line stroke="black" stroke-width="1" x1="640" x2="622.46" y1="87.5" y2="102.5" />
	<rect fill="blue" height="60" stroke="black" width="50.34" x="622.46" y="102.5" />
	<line stroke="black" stroke-width="1" x1="665.79" x2="672.8" y1="87.5" y2="102.5" />
	<rect fill="lightseagreen" height="60" stroke="black" width="11.68" x="672.8" y="102.5" />
	<line stroke="black" stroke-width="1" x1="681.55" x2="684.48" y1="87.5" y2="102.5" />
	<rect fill="orange" height="60" stroke="black" width="4.63" x="684.48" y="102.5" />
	<line stroke="black" stroke-width="1" x1="690.96" x2="689.11" y1="87.5" y2="102.5" />
	<rect fill="mediumpurple" height="60" stroke="black" width="1.63" x="689.11" y="102.5" />
	<line stroke="black" stroke-width="1" x1="697.09" x2="690.74" y1="87.5" y2="102.5" />
	<rect fill="palegreen" height="60" stroke="black" width="0.31" x="690.74" y="102.5" />
	<line stroke="black" stroke-width="1" x1="697.24" x2="691.05" y1="87.5" y2="102.5" />
	<rect fill="lightcoral" height="60" stroke="black" width="2.01" x="691.05" y="102.5" />
	<line stroke="black" stroke-width="1" x1="697.7" x2="693.06" y1="87.5" y2="102.5" />
	<rect fill="dodgerblue" height="60" stroke="black" width="1.07" x="693.06" y="102.5" />
	<line stroke="black" stroke-width="1" x1="698.97" x2="694.13" y1="87.5" y2="102.5" />
	<rect fill="lawngreen" height="60" stroke="black" width="0.11" x="694.13" y="102.5" />
	<line stroke="black" stroke-width="1" x1="699.12" x2="694.24" y1="87.5" y2="102.5" />
	<rect fill="olive" height="60" stroke="black" width="0.01" x="694.24" y="102.5" />
	<line stroke="black" stroke-width="1" x1="699.12" x2="694.25" y1="87.5" y2="102.5" />
	<rect fill="yellow" height="60" stroke="black" width="26.75" x="694.25" y="102.5" />
	<line stroke="black" stroke-width="1" x1="721" x2="721" y1="87.5" y2="102.5" />
	<rect fill="crimson" height="60" stroke="black" width="323.24" x="321" y="177.5" />
	<line stroke="black" stroke-width="1" x1="622.46" x2="644.24" y1="162.5" y2="177.5" />
	<rect fill="blue" height="60" stroke="black" width="44.4" x="644.24" y="177.5" />
	<line stroke="black" stroke-width="1" x1="672.8" x2="688.64" y1="162.5" y2="177.5" />
	<rect fill="lightseagreen" height="60" stroke="black" width="18" x="688.64" y="177.5" />
	<line stroke="black" stroke-width="1" x1="684.48" x2="706.64" y1="162.5" y2="177.5" />
	<rect fill="orange" height="60" stroke="black" width="5.33" x="706.64" y="177.5" />
	<line stroke="black" stroke-width="1" x1="689.11" x2="711.97" y1="162.5" y2="177.5" />
	<rect fill="mediumpurple" height="60" stroke="black" width="0.36" x="711.97" y="177.5" />
	<line stroke="black" stroke-width="1" x1="690.74" x2="712.33" y1="162.5" y2="177.5" />
	<rect fill="palegreen" height="60" stroke="black" width="0.27" x="712.33" y="177.5" />
	<line stroke="black" stroke-width="1" x1="691.05" x2="712.6" y1="162.5" y2="177.5" />
	<rect fill="lightcoral" height="60" stroke="black" width="0.3" x="712.6" y="177.5" />
	<line stroke="black" stroke-width="1" x1="693.06" x2="712.9" y1="162.5" y2="177.5" />
	<rect fill="dodgerblue" height="60" stroke="black" width="0.19" x="712.9" y="177.5" />
	<line stroke="black" stroke-width="1" x1="694.13" x2="713.09" y1="162.5" y2="177.5" />
	<rect fill="lawngreen" height="60" stroke="black" width="0.09" x="713.09" y="177.5" />
	<line stroke="black" stroke-width="1" x1="694.24" x2="713.18" y1="162.5" y2="177.5" />
	<rect fill="olive" height="60" stroke="black" width="0.01" x="713.18" y="177.5" />
	<line stroke="black" stroke-width="1" x1="694.25" x2="713.19" y1="162.5" y2="177.5" />
	<rect fill="yellow" height="60" stroke="black" width="7.8" x="713.19" y="177.5" />
	<line stroke="black" stroke-width="1" x1="721" x2="720.99" y1="162.5" y2="177.5" />
	<rect fill="crimson" height="60" stroke="black" width="300.39" x="321" y="252.5" />
	<line stroke="black" stroke-width="1" x1="644.24" x2="621.39" y1="237.5" y2="252.5" />
	<rect fill="blue" height="60" stroke="black" width="38.79" x="621.39" y="252.5" />
	<line stroke="black" stroke-width="1" x1="688.64" x2="660.18" y1="237.5" y2="252.5" />
	<rect fill="lightseagreen" height="60" stroke="black" width="25.1" x="660.18" y="252.5" />
	<line stroke="black" stroke-width="1" x1="706.64" x2="685.28" y1="237.5" y2="252.5" />
	<rect fill="orange" height="60" stroke="black" width="7.64" x="685.28" y="252.5" />
	<line stroke="black" stroke-width="1" x1="711.97" x2="692.92" y1="237.5" y2="252.5" />
	<rect fill="mediumpurple" height="60" stroke="black" width="2.2" x="692.92" y="252.5" />
	<line stroke="black" stroke-width="1" x1="712.33" x2="695.12" y1="237.5" y2="252.5" />
	<rect fill="palegreen" height="60" stroke="black" width="2.79" x="695.12" y="252.5" />
	<line stroke="black" stroke-width="1" x1="712.6" x2="697.91" y1="237.5" y2="252.5" />
	<rect fill="lightcoral" height="60" stroke="black" width="0.38" x="697.91" y="252.5" />
	<line stroke="black" stroke-width="1" x1="712.9" x2="698.29" y1="237.5" y2="252.5" />
	<rect fill="dodgerblue" height="60" stroke="black" width="0.74" x="698.29" y="252.5" />
	<line stroke="black" stroke-width="1" x1="713.09" x2="699.03" y1="237.5" y2="252.5" />
	<rect fill="lawngreen" height="60" stroke="black" width="0.12" x="699.03" y="252.5" />
	<line stroke="black" stroke-width="1" x1="713.18" x2="699.15" y1="237.5" y2="252.5" />
	<rect fill="olive" height="60" stroke="black" width="0.00159516982576758" x="699.15" y="252.5" />
	<line stroke="black" stroke-width="1" x1="713.19" x2="699.151595169826" y1="237.5" y2="252.5" />
	<rect fill="yellow" height="60" stroke="black" width="21.84" x="699.15" y="252.5" />
	<line stroke="black" stroke-width="1" x1="720.99" x2="720.99" y1="237.5" y2="252.5" />
	<line stroke="black" stroke-width="1" x1="321" x2="721" y1="327.5" y2="327.5" />
	<line stroke="black" stroke-width="1" x1="321" x2="321" y1="327.5" y2="335" />
	<text fill="black" font-family="Arial" font-size="15" stroke="none" text-anchor="middle" x="321" y="350">0</text>
	<line stroke="black" stroke-width="1" x1="421" x2="421" y1="327.5" y2="335" />
	<text fill="black" font-family="Arial" font-size="15" stroke="none" text-anchor="middle" x="421" y="350">0.25</text>
	<line stroke="black" stroke-width="1" x1="521" x2="521" y1="327.5" y2="335" />
	<text fill="black" font-family="Arial" font-size="15" stroke="none" text-anchor="middle" x="521" y="350">0.5</text>
	<line stroke="black" stroke-width="1" x1="621" x2="621" y1="327.5" y2="335" />
	<text fill="black" font-family="Arial" font-size="15" stroke="none" text-anchor="middle" x="621" y="350">0.75</text>
	<line stroke="black" stroke-width="1" x1="721" x2="721" y1="327.5" y2="335" />
	<text fill="black" font-family="Arial" font-size="15" stroke="none" text-anchor="middle" x="721" y="350">1</text>
	<text fill="black" font-family="Arial" font-size="15" stroke="none" text-anchor="middle" x="521" y="365">Relative Abundance in Phylum Level</text>
	<rect fill="crimson" height="11.6666666666667" stroke="black" width="11.6666666666667" x="732.666666666503" y="27.5" />
	<text fill="black" font-family="Arial" font-size="11.6666666666667" stroke="none" text-anchor="start" x="750.166666666503" y="37.4166666666667">Ascomycota</text>
	<rect fill="blue" height="11.6666666666667" stroke="black" width="11.6666666666667" x="732.666666666503" y="45" />
	<text fill="black" font-family="Arial" font-size="11.6666666666667" stroke="none" text-anchor="start" x="750.166666666503" y="54.9166666666667">Basidiomycota</text>
	<rect fill="lightseagreen" height="11.6666666666667" stroke="black" width="11.6666666666667" x="732.666666666503" y="62.5" />
	<text fill="black" font-family="Arial" font-size="11.6666666666667" stroke="none" text-anchor="start" x="750.166666666503" y="72.4166666666667">Zygomycota</text>
	<rect fill="orange" height="11.6666666666667" stroke="black" width="11.6666666666667" x="732.666666666503" y="80" />
	<text fill="black" font-family="Arial" font-size="11.6666666666667" stroke="none" text-anchor="start" x="750.166666666503" y="89.9166666666667">Ciliophora</text>
	<rect fill="mediumpurple" height="11.6666666666667" stroke="black" width="11.6666666666667" x="732.666666666503" y="97.5" />
	<text fill="black" font-family="Arial" font-size="11.6666666666667" stroke="none" text-anchor="start" x="750.166666666503" y="107.416666666667">Chytridiomycota</text>
	<rect fill="palegreen" height="11.6666666666667" stroke="black" width="11.6666666666667" x="732.666666666503" y="115" />
	<text fill="black" font-family="Arial" font-size="11.6666666666667" stroke="none" text-anchor="start" x="750.166666666503" y="124.916666666667">Rozellomycota</text>
	<rect fill="lightcoral" height="11.6666666666667" stroke="black" width="11.6666666666667" x="732.666666666503" y="132.5" />
	<text fill="black" font-family="Arial" font-size="11.6666666666667" stroke="none" text-anchor="start" x="750.166666666503" y="142.416666666667">Glomeromycota</text>
	<rect fill="dodgerblue" height="11.6666666666667" stroke="black" width="11.6666666666667" x="732.666666666503" y="150" />
	<text fill="black" font-family="Arial" font-size="11.6666666666667" stroke="none" text-anchor="start" x="750.166666666503" y="159.916666666667">Chlorophyta</text>
	<rect fill="lawngreen" height="11.6666666666667" stroke="black" width="11.6666666666667" x="732.666666666503" y="167.5" />
	<text fill="black" font-family="Arial" font-size="11.6666666666667" stroke="none" text-anchor="start" x="750.166666666503" y="177.416666666667">Cercozoa</text>
	<rect fill="olive" height="11.6666666666667" stroke="black" width="11.6666666666667" x="732.666666666503" y="185" />
	<text fill="black" font-family="Arial" font-size="11.6666666666667" stroke="none" text-anchor="start" x="750.166666666503" y="194.916666666667">Arthropoda</text>
	<rect fill="yellow" height="11.6666666666667" stroke="black" width="11.6666666666667" x="732.666666666503" y="202.5" />
	<text fill="black" font-family="Arial" font-size="11.6666666666667" stroke="none" text-anchor="start" x="750.166666666503" y="212.416666666667">Others</text>
	<!-- 
	Generated using the Perl SVG Module V2.64
	by Ronan Oger
	Info: http://www.roitsystems.com/
 -->
</svg>