<?xml version="1.0" encoding="UTF-8" standalone="yes"?>
<!DOCTYPE svg PUBLIC "-//W3C//DTD SVG 1.0//EN" "http://www.w3.org/TR/2001/REC-SVG-20010904/DTD/svg10.dtd">
<svg height="377" width="861" xmlns="http://www.w3.org/2000/svg" xmlns:svg="http://www.w3.org/2000/svg" xmlns:xlink="http://www.w3.org/1999/xlink">
	<path d="M 40 123.13 L 40 68.44 A 10.94 10.94 0 0 1 50.94,57.5 L 240 57.5" style="fill: none; stroke: black; stroke-width: 1.5" />
	<text fill="black" font-family="Arial" font-size="15" stroke="none" text-anchor="start" x="247.5" y="62.5">JXBR16</text>
	<path d="M 40 123.13 L 40 177.81 A 10.94 10.94 0 0 0 50.94,188.75 L 126.81 188.75" style="fill: none; stroke: black; stroke-width: 1.5" />
	<path d="M 126.81 188.75 L 126.81 141.88 A 9.38 9.38 0 0 1 136.19,132.5 L 240 132.5" style="fill: none; stroke: black; stroke-width: 1.5" />
	<text fill="black" font-family="Arial" font-size="15" stroke="none" text-anchor="start" x="247.5" y="137.5">CK</text>
	<path d="M 126.81 188.75 L 126.81 235.63 A 9.38 9.38 0 0 0 136.19,245 L 194.94 245" style="fill: none; stroke: black; stroke-width: 1.5" />
	<path d="M 194.94 245 L 194.94 213.75 A 6.25 6.25 0 0 1 201.19,207.5 L 240 207.5" style="fill: none; stroke: black; stroke-width: 1.5" />
	<text fill="black" font-family="Arial" font-size="15" stroke="none" text-anchor="start" x="247.5" y="212.5">R37J16</text>
	<path d="M 194.94 245 L 194.94 276.25 A 6.25 6.25 0 0 0 201.19,282.5 L 240 282.5" style="fill: none; stroke: black; stroke-width: 1.5" />
	<text fill="black" font-family="Arial" font-size="15" stroke="none" text-anchor="start" x="247.5" y="287.5">RW37</text>
	<text fill="black" font-family="Arial" font-size="12" stroke="none" text-anchor="start" x="40" y="340">Weighted Unifrac Distance</text>
	<line stroke="black" stroke-width="1.5" x1="40" x2="240" y1="355" y2="355" />
	<line stroke="black" stroke-width="1.5" x1="40" x2="40" y1="355" y2="347.5" />
	<text fill="black" font-family="Arial" font-size="15" stroke="none" text-anchor="middle" x="40" y="370">0</text>
	<line stroke="black" stroke-width="1.5" x1="44.4113003353249" x2="44.4113003353249" y1="355" y2="351.25" />
	<line stroke="black" stroke-width="1.5" x1="48.8226006706499" x2="48.8226006706499" y1="355" y2="351.25" />
	<line stroke="black" stroke-width="1.5" x1="53.2339010059748" x2="53.2339010059748" y1="355" y2="351.25" />
	<line stroke="black" stroke-width="1.5" x1="57.6452013412998" x2="57.6452013412998" y1="355" y2="351.25" />
	<line stroke="black" stroke-width="1.5" x1="62.0565016766247" x2="62.0565016766247" y1="355" y2="347.5" />
	<line stroke="black" stroke-width="1.5" x1="66.4678020119496" x2="66.4678020119496" y1="355" y2="351.25" />
	<line stroke="black" stroke-width="1.5" x1="70.8791023472746" x2="70.8791023472746" y1="355" y2="351.25" />
	<line stroke="black" stroke-width="1.5" x1="75.2904026825995" x2="75.2904026825995" y1="355" y2="351.25" />
	<line stroke="black" stroke-width="1.5" x1="79.7017030179244" x2="79.7017030179244" y1="355" y2="351.25" />
	<line stroke="black" stroke-width="1.5" x1="84.1130033532494" x2="84.1130033532494" y1="355" y2="347.5" />
	<text fill="black" font-family="Arial" font-size="15" stroke="none" text-anchor="middle" x="84.1130033532494" y="370">0.01</text>
	<line stroke="black" stroke-width="1.5" x1="88.5243036885743" x2="88.5243036885743" y1="355" y2="351.25" />
	<line stroke="black" stroke-width="1.5" x1="92.9356040238993" x2="92.9356040238993" y1="355" y2="351.25" />
	<line stroke="black" stroke-width="1.5" x1="97.3469043592242" x2="97.3469043592242" y1="355" y2="351.25" />
	<line stroke="black" stroke-width="1.5" x1="101.758204694549" x2="101.758204694549" y1="355" y2="351.25" />
	<line stroke="black" stroke-width="1.5" x1="106.169505029874" x2="106.169505029874" y1="355" y2="347.5" />
	<line stroke="black" stroke-width="1.5" x1="110.580805365199" x2="110.580805365199" y1="355" y2="351.25" />
	<line stroke="black" stroke-width="1.5" x1="114.992105700524" x2="114.992105700524" y1="355" y2="351.25" />
	<line stroke="black" stroke-width="1.5" x1="119.403406035849" x2="119.403406035849" y1="355" y2="351.25" />
	<line stroke="black" stroke-width="1.5" x1="123.814706371174" x2="123.814706371174" y1="355" y2="351.25" />
	<line stroke="black" stroke-width="1.5" x1="128.226006706499" x2="128.226006706499" y1="355" y2="347.5" />
	<text fill="black" font-family="Arial" font-size="15" stroke="none" text-anchor="middle" x="128.226006706499" y="370">0.02</text>
	<line stroke="black" stroke-width="1.5" x1="132.637307041824" x2="132.637307041824" y1="355" y2="351.25" />
	<line stroke="black" stroke-width="1.5" x1="137.048607377149" x2="137.048607377149" y1="355" y2="351.25" />
	<line stroke="black" stroke-width="1.5" x1="141.459907712474" x2="141.459907712474" y1="355" y2="351.25" />
	<line stroke="black" stroke-width="1.5" x1="145.871208047799" x2="145.871208047799" y1="355" y2="351.25" />
	<line stroke="black" stroke-width="1.5" x1="150.282508383123" x2="150.282508383123" y1="355" y2="347.5" />
	<line stroke="black" stroke-width="1.5" x1="154.693808718448" x2="154.693808718448" y1="355" y2="351.25" />
	<line stroke="black" stroke-width="1.5" x1="159.105109053773" x2="159.105109053773" y1="355" y2="351.25" />
	<line stroke="black" stroke-width="1.5" x1="163.516409389098" x2="163.516409389098" y1="355" y2="351.25" />
	<line stroke="black" stroke-width="1.5" x1="167.927709724423" x2="167.927709724423" y1="355" y2="351.25" />
	<line stroke="black" stroke-width="1.5" x1="172.339010059748" x2="172.339010059748" y1="355" y2="347.5" />
	<text fill="black" font-family="Arial" font-size="15" stroke="none" text-anchor="middle" x="172.339010059748" y="370">0.03</text>
	<line stroke="black" stroke-width="1.5" x1="176.750310395073" x2="176.750310395073" y1="355" y2="351.25" />
	<line stroke="black" stroke-width="1.5" x1="181.161610730398" x2="181.161610730398" y1="355" y2="351.25" />
	<line stroke="black" stroke-width="1.5" x1="185.572911065723" x2="185.572911065723" y1="355" y2="351.25" />
	<line stroke="black" stroke-width="1.5" x1="189.984211401048" x2="189.984211401048" y1="355" y2="351.25" />
	<line stroke="black" stroke-width="1.5" x1="194.395511736373" x2="194.395511736373" y1="355" y2="347.5" />
	<line stroke="black" stroke-width="1.5" x1="198.806812071698" x2="198.806812071698" y1="355" y2="351.25" />
	<line stroke="black" stroke-width="1.5" x1="203.218112407023" x2="203.218112407023" y1="355" y2="351.25" />
	<line stroke="black" stroke-width="1.5" x1="207.629412742348" x2="207.629412742348" y1="355" y2="351.25" />
	<line stroke="black" stroke-width="1.5" x1="212.040713077673" x2="212.040713077673" y1="355" y2="351.25" />
	<line stroke="black" stroke-width="1.5" x1="216.452013412998" x2="216.452013412998" y1="355" y2="347.5" />
	<text fill="black" font-family="Arial" font-size="15" stroke="none" text-anchor="middle" x="216.452013412998" y="370">0.04</text>
	<line stroke="black" stroke-width="1.5" x1="220.863313748322" x2="220.863313748322" y1="355" y2="351.25" />
	<line stroke="black" stroke-width="1.5" x1="225.274614083647" x2="225.274614083647" y1="355" y2="351.25" />
	<line stroke="black" stroke-width="1.5" x1="229.685914418972" x2="229.685914418972" y1="355" y2="351.25" />
	<line stroke="black" stroke-width="1.5" x1="234.097214754297" x2="234.097214754297" y1="355" y2="351.25" />
	<line stroke="black" stroke-width="1.5" x1="238.508515089622" x2="238.508515089622" y1="355" y2="347.5" />
	<rect fill="crimson" height="60" stroke="black" width="124.08" x="321" y="27.5" />
	<rect fill="blue" height="60" stroke="black" width="76.08" x="445.08" y="27.5" />
	<rect fill="lightseagreen" height="60" stroke="black" width="39" x="521.16" y="27.5" />
	<rect fill="orange" height="60" stroke="black" width="48.05" x="560.16" y="27.5" />
	<rect fill="mediumpurple" height="60" stroke="black" width="25.87" x="608.21" y="27.5" />
	<rect fill="palegreen" height="60" stroke="black" width="20.85" x="634.08" y="27.5" />
	<rect fill="lightcoral" height="60" stroke="black" width="15.36" x="654.93" y="27.5" />
	<rect fill="dodgerblue" height="60" stroke="black" width="9.78" x="670.29" y="27.5" />
	<rect fill="lawngreen" height="60" stroke="black" width="6.96" x="680.07" y="27.5" />
	<rect fill="olive" height="60" stroke="black" width="0.81" x="687.03" y="27.5" />
	<rect fill="yellow" height="60" stroke="black" width="33.16" x="687.84" y="27.5" />
	<rect fill="crimson" height="60" stroke="black" width="109.99" x="321" y="102.5" />
	<line stroke="black" stroke-width="1" x1="445.08" x2="430.99" y1="87.5" y2="102.5" />
	<rect fill="blue" height="60" stroke="black" width="65.74" x="430.99" y="102.5" />
	<line stroke="black" stroke-width="1" x1="521.16" x2="496.73" y1="87.5" y2="102.5" />
	<rect fill="lightseagreen" height="60" stroke="black" width="70.89" x="496.73" y="102.5" />
	<line stroke="black" stroke-width="1" x1="560.16" x2="567.62" y1="87.5" y2="102.5" />
	<rect fill="orange" height="60" stroke="black" width="58.27" x="567.62" y="102.5" />
	<line stroke="black" stroke-width="1" x1="608.21" x2="625.89" y1="87.5" y2="102.5" />
	<rect fill="mediumpurple" height="60" stroke="black" width="28.42" x="625.89" y="102.5" />
	<line stroke="black" stroke-width="1" x1="634.08" x2="654.31" y1="87.5" y2="102.5" />
	<rect fill="palegreen" height="60" stroke="black" width="10.48" x="654.31" y="102.5" />
	<line stroke="black" stroke-width="1" x1="654.93" x2="664.79" y1="87.5" y2="102.5" />
	<rect fill="lightcoral" height="60" stroke="black" width="12.45" x="664.79" y="102.5" />
	<line stroke="black" stroke-width="1" x1="670.29" x2="677.24" y1="87.5" y2="102.5" />
	<rect fill="dodgerblue" height="60" stroke="black" width="2.61" x="677.24" y="102.5" />
	<line stroke="black" stroke-width="1" x1="680.07" x2="679.85" y1="87.5" y2="102.5" />
	<rect fill="lawngreen" height="60" stroke="black" width="2.01" x="679.85" y="102.5" />
	<line stroke="black" stroke-width="1" x1="687.03" x2="681.86" y1="87.5" y2="102.5" />
	<rect fill="olive" height="60" stroke="black" width="5.42" x="681.86" y="102.5" />
	<line stroke="black" stroke-width="1" x1="687.84" x2="687.28" y1="87.5" y2="102.5" />
	<rect fill="yellow" height="60" stroke="black" width="33.73" x="687.28" y="102.5" />
	<line stroke="black" stroke-width="1" x1="721" x2="721.01" y1="87.5" y2="102.5" />
	<rect fill="crimson" height="60" stroke="black" width="131.9" x="321" y="177.5" />
	<line stroke="black" stroke-width="1" x1="430.99" x2="452.9" y1="162.5" y2="177.5" />
	<rect fill="blue" height="60" stroke="black" width="49.31" x="452.9" y="177.5" />
	<line stroke="black" stroke-width="1" x1="496.73" x2="502.21" y1="162.5" y2="177.5" />
	<rect fill="lightseagreen" height="60" stroke="black" width="68.58" x="502.21" y="177.5" />
	<line stroke="black" stroke-width="1" x1="567.62" x2="570.79" y1="162.5" y2="177.5" />
	<rect fill="orange" height="60" stroke="black" width="53.13" x="570.79" y="177.5" />
	<line stroke="black" stroke-width="1" x1="625.89" x2="623.92" y1="162.5" y2="177.5" />
	<rect fill="mediumpurple" height="60" stroke="black" width="19.02" x="623.92" y="177.5" />
	<line stroke="black" stroke-width="1" x1="654.31" x2="642.94" y1="162.5" y2="177.5" />
	<rect fill="palegreen" height="60" stroke="black" width="17.98" x="642.94" y="177.5" />
	<line stroke="black" stroke-width="1" x1="664.79" x2="660.92" y1="162.5" y2="177.5" />
	<rect fill="lightcoral" height="60" stroke="black" width="23.6" x="660.92" y="177.5" />
	<line stroke="black" stroke-width="1" x1="677.24" x2="684.52" y1="162.5" y2="177.5" />
	<rect fill="dodgerblue" height="60" stroke="black" width="2.54" x="684.52" y="177.5" />
	<line stroke="black" stroke-width="1" x1="679.85" x2="687.06" y1="162.5" y2="177.5" />
	<rect fill="lawngreen" height="60" stroke="black" width="1.1" x="687.06" y="177.5" />
	<line stroke="black" stroke-width="1" x1="681.86" x2="688.16" y1="162.5" y2="177.5" />
	<rect fill="olive" height="60" stroke="black" width="6" x="688.16" y="177.5" />
	<line stroke="black" stroke-width="1" x1="687.28" x2="694.16" y1="162.5" y2="177.5" />
	<rect fill="yellow" height="60" stroke="black" width="26.83" x="694.16" y="177.5" />
	<line stroke="black" stroke-width="1" x1="721.01" x2="720.99" y1="162.5" y2="177.5" />
	<rect fill="crimson" height="60" stroke="black" width="143.03" x="321" y="252.5" />
	<line stroke="black" stroke-width="1" x1="452.9" x2="464.03" y1="237.5" y2="252.5" />
	<rect fill="blue" height="60" stroke="black" width="45.99" x="464.03" y="252.5" />
	<line stroke="black" stroke-width="1" x1="502.21" x2="510.02" y1="237.5" y2="252.5" />
	<rect fill="lightseagreen" height="60" stroke="black" width="52.19" x="510.02" y="252.5" />
	<line stroke="black" stroke-width="1" x1="570.79" x2="562.21" y1="237.5" y2="252.5" />
	<rect fill="orange" height="60" stroke="black" width="51.18" x="562.21" y="252.5" />
	<line stroke="black" stroke-width="1" x1="623.92" x2="613.39" y1="237.5" y2="252.5" />
	<rect fill="mediumpurple" height="60" stroke="black" width="28.53" x="613.39" y="252.5" />
	<line stroke="black" stroke-width="1" x1="642.94" x2="641.92" y1="237.5" y2="252.5" />
	<rect fill="palegreen" height="60" stroke="black" width="25" x="641.92" y="252.5" />
	<line stroke="black" stroke-width="1" x1="660.92" x2="666.92" y1="237.5" y2="252.5" />
	<rect fill="lightcoral" height="60" stroke="black" width="24.16" x="666.92" y="252.5" />
	<line stroke="black" stroke-width="1" x1="684.52" x2="691.08" y1="237.5" y2="252.5" />
	<rect fill="dodgerblue" height="60" stroke="black" width="2.29" x="691.08" y="252.5" />
	<line stroke="black" stroke-width="1" x1="687.06" x2="693.37" y1="237.5" y2="252.5" />
	<rect fill="lawngreen" height="60" stroke="black" width="0.86" x="693.37" y="252.5" />
	<line stroke="black" stroke-width="1" x1="688.16" x2="694.23" y1="237.5" y2="252.5" />
	<rect fill="olive" height="60" stroke="black" width="4.5" x="694.23" y="252.5" />
	<line stroke="black" stroke-width="1" x1="694.16" x2="698.73" y1="237.5" y2="252.5" />
	<rect fill="yellow" height="60" stroke="black" width="22.27" x="698.73" y="252.5" />
	<line stroke="black" stroke-width="1" x1="720.99" x2="721" y1="237.5" y2="252.5" />
	<line stroke="black" stroke-width="1" x1="321" x2="721" y1="327.5" y2="327.5" />
	<line stroke="black" stroke-width="1" x1="321" x2="321" y1="327.5" y2="335" />
	<text fill="black" font-family="Arial" font-size="15" stroke="none" text-anchor="middle" x="321" y="350">0</text>
	<line stroke="black" stroke-width="1" x1="421" x2="421" y1="327.5" y2="335" />
	<text fill="black" font-family="Arial" font-size="15" stroke="none" text-anchor="middle" x="421" y="350">0.25</text>
	<line stroke="black" stroke-width="1" x1="521" x2="521" y1="327.5" y2="335" />
	<text fill="black" font-family="Arial" font-size="15" stroke="none" text-anchor="middle" x="521" y="350">0.5</text>
	<line stroke="black" stroke-width="1" x1="621" x2="621" y1="327.5" y2="335" />
	<text fill="black" font-family="Arial" font-size="15" stroke="none" text-anchor="middle" x="621" y="350">0.75</text>
	<line stroke="black" stroke-width="1" x1="721" x2="721" y1="327.5" y2="335" />
	<text fill="black" font-family="Arial" font-size="15" stroke="none" text-anchor="middle" x="721" y="350">1</text>
	<text fill="black" font-family="Arial" font-size="15" stroke="none" text-anchor="middle" x="521" y="365">Relative Abundance in Phylum Level</text>
	<rect fill="crimson" height="11.1111111111111" stroke="black" width="11.1111111111111" x="732.111111111111" y="27.5" />
	<text fill="black" font-family="Arial" font-size="11.1111111111111" stroke="none" text-anchor="start" x="748.777777777778" y="36.9444444444444">Proteobacteria</text>
	<rect fill="blue" height="11.1111111111111" stroke="black" width="11.1111111111111" x="732.111111111111" y="44.1666666666667" />
	<text fill="black" font-family="Arial" font-size="11.1111111111111" stroke="none" text-anchor="start" x="748.777777777778" y="53.6111111111111">Acidobacteria</text>
	<rect fill="lightseagreen" height="11.1111111111111" stroke="black" width="11.1111111111111" x="732.111111111111" y="60.8333333333333" />
	<text fill="black" font-family="Arial" font-size="11.1111111111111" stroke="none" text-anchor="start" x="748.777777777778" y="70.2777777777778">Chloroflexi</text>
	<rect fill="orange" height="11.1111111111111" stroke="black" width="11.1111111111111" x="732.111111111111" y="77.5" />
	<text fill="black" font-family="Arial" font-size="11.1111111111111" stroke="none" text-anchor="start" x="748.777777777778" y="86.9444444444444">Actinobacteria</text>
	<rect fill="mediumpurple" height="11.1111111111111" stroke="black" width="11.1111111111111" x="732.111111111111" y="94.1666666666667" />
	<text fill="black" font-family="Arial" font-size="11.1111111111111" stroke="none" text-anchor="start" x="748.777777777778" y="103.611111111111">Bacteroidetes</text>
	<rect fill="palegreen" height="11.1111111111111" stroke="black" width="11.1111111111111" x="732.111111111111" y="110.833333333333" />
	<text fill="black" font-family="Arial" font-size="11.1111111111111" stroke="none" text-anchor="start" x="748.777777777778" y="120.277777777778">Gemmatimonadetes</text>
	<rect fill="lightcoral" height="11.1111111111111" stroke="black" width="11.1111111111111" x="732.111111111111" y="127.5" />
	<text fill="black" font-family="Arial" font-size="11.1111111111111" stroke="none" text-anchor="start" x="748.777777777778" y="136.944444444444">Saccharibacteria</text>
	<rect fill="dodgerblue" height="11.1111111111111" stroke="black" width="11.1111111111111" x="732.111111111111" y="144.166666666667" />
	<text fill="black" font-family="Arial" font-size="11.1111111111111" stroke="none" text-anchor="start" x="748.777777777778" y="153.611111111111">Nitrospirae</text>
	<rect fill="lawngreen" height="11.1111111111111" stroke="black" width="11.1111111111111" x="732.111111111111" y="160.833333333333" />
	<text fill="black" font-family="Arial" font-size="11.1111111111111" stroke="none" text-anchor="start" x="748.777777777778" y="170.277777777778">Verrucomicrobia</text>
	<rect fill="olive" height="11.1111111111111" stroke="black" width="11.1111111111111" x="732.111111111111" y="177.5" />
	<text fill="black" font-family="Arial" font-size="11.1111111111111" stroke="none" text-anchor="start" x="748.777777777778" y="186.944444444444">Cyanobacteria</text>
	<rect fill="yellow" height="11.1111111111111" stroke="black" width="11.1111111111111" x="732.111111111111" y="194.166666666667" />
	<text fill="black" font-family="Arial" font-size="11.1111111111111" stroke="none" text-anchor="start" x="748.777777777778" y="203.611111111111">Others</text>
	<!-- 
	Generated using the Perl SVG Module V2.64
	by Ronan Oger
	Info: http://www.roitsystems.com/
 -->
</svg>