<?xml version="1.0" encoding="UTF-8" standalone="yes"?>
<!DOCTYPE svg PUBLIC "-//W3C//DTD SVG 1.0//EN" "http://www.w3.org/TR/2001/REC-SVG-20010904/DTD/svg10.dtd">
<svg height="450" width="650" xmlns="http://www.w3.org/2000/svg" xmlns:svg="http://www.w3.org/2000/svg" xmlns:xlink="http://www.w3.org/1999/xlink">
	<text fill="black" font-family="Arial" font-size="15" stroke="none" text-anchor="end" x="92.5" y="355">0</text>
	<line stroke="black" stroke-width="2" x1="100" x2="95" y1="350" y2="350" />
	<text fill="black" font-family="Arial" font-size="15" stroke="none" text-anchor="end" x="92.5" y="305">5000</text>
	<line stroke="black" stroke-width="2" x1="100" x2="95" y1="300" y2="300" />
	<text fill="black" font-family="Arial" font-size="15" stroke="none" text-anchor="end" x="92.5" y="255">10000</text>
	<line stroke="black" stroke-width="2" x1="100" x2="95" y1="250" y2="250" />
	<text fill="black" font-family="Arial" font-size="15" stroke="none" text-anchor="end" x="92.5" y="205">15000</text>
	<line stroke="black" stroke-width="2" x1="100" x2="95" y1="200" y2="200" />
	<text fill="black" font-family="Arial" font-size="15" stroke="none" text-anchor="end" x="92.5" y="155">20000</text>
	<line stroke="black" stroke-width="2" x1="100" x2="95" y1="150" y2="150" />
	<text fill="black" font-family="Arial" font-size="15" stroke="none" text-anchor="end" x="92.5" y="105">25000</text>
	<line stroke="black" stroke-width="2" x1="100" x2="95" y1="100" y2="100" />
	<text fill="black" font-family="Arial" font-size="15" stroke="none" text-anchor="end" x="92.5" y="55">30000</text>
	<line stroke="black" stroke-width="2" x1="100" x2="95" y1="50" y2="50" />
	<line stroke="black" stroke-width="1" x1="100" x2="100" y1="50" y2="350" />
	<text fill="black" font-family="Arial" font-size="15" stroke="none" text-anchor="middle" x="325" y="415.920090359058">Sample Name</text>
	<g transform="rotate(-90,40,200)">
		<text fill="black" font-family="Arial" font-size="15" stroke="none" text-anchor="middle" x="40" y="200">OTU Number</text>
	</g>
	<line stroke="black" stroke-width="2" x1="137.5" x2="137.5" y1="350" y2="352.7" />
	<g fill="black" font-family="Arial" font-size="13.5" stroke="none" text-anchor="end" transform="rotate(-45,118.75,359)">
		<text x="118.75" y="363.5">CK1</text>
	</g>
	<rect fill="crimson" height="19.01" stroke="crimson" width="18.75" x="109.375" y="330.99" />
	<rect fill="blue" height="0.26" stroke="blue" width="18.75" x="109.375" y="330.73" />
	<rect fill="lightseagreen" height="9.85" stroke="lightseagreen" width="18.75" x="109.375" y="320.88" />
	<rect fill="orange" height="20.71" stroke="orange" width="18.75" x="109.375" y="300.17" />
	<rect fill="mediumpurple" height="38.47" stroke="mediumpurple" width="18.75" x="109.375" y="261.7" />
	<rect fill="palegreen" height="51.19" stroke="palegreen" width="18.75" x="109.375" y="210.51" />
	<rect fill="lightcoral" height="56.02" stroke="lightcoral" width="18.75" x="109.375" y="154.49" />
	<rect fill="dodgerblue" height="0.87" stroke="dodgerblue" width="18.75" x="109.375" y="153.62" />
	<line stroke="black" stroke-width="2" x1="175" x2="175" y1="350" y2="352.7" />
	<g fill="black" font-family="Arial" font-size="13.5" stroke="none" text-anchor="end" transform="rotate(-45,156.25,359)">
		<text x="156.25" y="363.5">CK2</text>
	</g>
	<rect fill="crimson" height="19.94" stroke="crimson" width="18.75" x="146.875" y="330.06" />
	<rect fill="blue" height="0.19" stroke="blue" width="18.75" x="146.875" y="329.87" />
	<rect fill="lightseagreen" height="10.91" stroke="lightseagreen" width="18.75" x="146.875" y="318.96" />
	<rect fill="orange" height="23.27" stroke="orange" width="18.75" x="146.875" y="295.69" />
	<rect fill="mediumpurple" height="46.62" stroke="mediumpurple" width="18.75" x="146.875" y="249.07" />
	<rect fill="palegreen" height="59.75" stroke="palegreen" width="18.75" x="146.875" y="189.32" />
	<rect fill="lightcoral" height="69.61" stroke="lightcoral" width="18.75" x="146.875" y="119.71" />
	<rect fill="dodgerblue" height="1.05" stroke="dodgerblue" width="18.75" x="146.875" y="118.66" />
	<line stroke="black" stroke-width="2" x1="212.5" x2="212.5" y1="350" y2="352.7" />
	<g fill="black" font-family="Arial" font-size="13.5" stroke="none" text-anchor="end" transform="rotate(-45,193.75,359)">
		<text x="193.75" y="363.5">CK3</text>
	</g>
	<rect fill="crimson" height="13.64" stroke="crimson" width="18.75" x="184.375" y="336.36" />
	<rect fill="blue" height="0.11" stroke="blue" width="18.75" x="184.375" y="336.25" />
	<rect fill="lightseagreen" height="10.12" stroke="lightseagreen" width="18.75" x="184.375" y="326.13" />
	<rect fill="orange" height="16.07" stroke="orange" width="18.75" x="184.375" y="310.06" />
	<rect fill="mediumpurple" height="37.8" stroke="mediumpurple" width="18.75" x="184.375" y="272.26" />
	<rect fill="palegreen" height="45.37" stroke="palegreen" width="18.75" x="184.375" y="226.89" />
	<rect fill="lightcoral" height="60.58" stroke="lightcoral" width="18.75" x="184.375" y="166.31" />
	<rect fill="dodgerblue" height="0.95" stroke="dodgerblue" width="18.75" x="184.375" y="165.36" />
	<line stroke="black" stroke-width="2" x1="250" x2="250" y1="350" y2="352.7" />
	<g fill="black" font-family="Arial" font-size="13.5" stroke="none" text-anchor="end" transform="rotate(-45,231.25,359)">
		<text x="231.25" y="363.5">JXBR161</text>
	</g>
	<rect fill="crimson" height="26.04" stroke="crimson" width="18.75" x="221.875" y="323.96" />
	<rect fill="blue" height="0.66" stroke="blue" width="18.75" x="221.875" y="323.3" />
	<rect fill="lightseagreen" height="8.68" stroke="lightseagreen" width="18.75" x="221.875" y="314.62" />
	<rect fill="orange" height="20.62" stroke="orange" width="18.75" x="221.875" y="294" />
	<rect fill="mediumpurple" height="59.9" stroke="mediumpurple" width="18.75" x="221.875" y="234.1" />
	<rect fill="palegreen" height="57.05" stroke="palegreen" width="18.75" x="221.875" y="177.05" />
	<rect fill="lightcoral" height="56.82" stroke="lightcoral" width="18.75" x="221.875" y="120.23" />
	<rect fill="dodgerblue" height="0.6" stroke="dodgerblue" width="18.75" x="221.875" y="119.63" />
	<line stroke="black" stroke-width="2" x1="287.5" x2="287.5" y1="350" y2="352.7" />
	<g fill="black" font-family="Arial" font-size="13.5" stroke="none" text-anchor="end" transform="rotate(-45,268.75,359)">
		<text x="268.75" y="363.5">JXBR162</text>
	</g>
	<rect fill="crimson" height="10.96" stroke="crimson" width="18.75" x="259.375" y="339.04" />
	<rect fill="blue" height="0.2" stroke="blue" width="18.75" x="259.375" y="338.84" />
	<rect fill="lightseagreen" height="7.44" stroke="lightseagreen" width="18.75" x="259.375" y="331.4" />
	<rect fill="orange" height="14.87" stroke="orange" width="18.75" x="259.375" y="316.53" />
	<rect fill="mediumpurple" height="43.25" stroke="mediumpurple" width="18.75" x="259.375" y="273.28" />
	<rect fill="palegreen" height="45.78" stroke="palegreen" width="18.75" x="259.375" y="227.5" />
	<rect fill="lightcoral" height="50.42" stroke="lightcoral" width="18.75" x="259.375" y="177.08" />
	<rect fill="dodgerblue" height="0.54" stroke="dodgerblue" width="18.75" x="259.375" y="176.54" />
	<line stroke="black" stroke-width="2" x1="325" x2="325" y1="350" y2="352.7" />
	<g fill="black" font-family="Arial" font-size="13.5" stroke="none" text-anchor="end" transform="rotate(-45,306.25,359)">
		<text x="306.25" y="363.5">JXBR163</text>
	</g>
	<rect fill="crimson" height="18.83" stroke="crimson" width="18.75" x="296.875" y="331.17" />
	<rect fill="blue" height="0.41" stroke="blue" width="18.75" x="296.875" y="330.76" />
	<rect fill="lightseagreen" height="10.78" stroke="lightseagreen" width="18.75" x="296.875" y="319.98" />
	<rect fill="orange" height="22.31" stroke="orange" width="18.75" x="296.875" y="297.67" />
	<rect fill="mediumpurple" height="47.65" stroke="mediumpurple" width="18.75" x="296.875" y="250.02" />
	<rect fill="palegreen" height="54.12" stroke="palegreen" width="18.75" x="296.875" y="195.9" />
	<rect fill="lightcoral" height="54.83" stroke="lightcoral" width="18.75" x="296.875" y="141.07" />
	<rect fill="dodgerblue" height="0.63" stroke="dodgerblue" width="18.75" x="296.875" y="140.44" />
	<line stroke="black" stroke-width="2" x1="362.5" x2="362.5" y1="350" y2="352.7" />
	<g fill="black" font-family="Arial" font-size="13.5" stroke="none" text-anchor="end" transform="rotate(-45,343.75,359)">
		<text x="343.75" y="363.5">RW371</text>
	</g>
	<rect fill="crimson" height="13.73" stroke="crimson" width="18.75" x="334.375" y="336.27" />
	<rect fill="blue" height="0.19" stroke="blue" width="18.75" x="334.375" y="336.08" />
	<rect fill="lightseagreen" height="12.15" stroke="lightseagreen" width="18.75" x="334.375" y="323.93" />
	<rect fill="orange" height="17.14" stroke="orange" width="18.75" x="334.375" y="306.79" />
	<rect fill="mediumpurple" height="36.88" stroke="mediumpurple" width="18.75" x="334.375" y="269.91" />
	<rect fill="palegreen" height="42.19" stroke="palegreen" width="18.75" x="334.375" y="227.72" />
	<rect fill="lightcoral" height="69.32" stroke="lightcoral" width="18.75" x="334.375" y="158.4" />
	<rect fill="dodgerblue" height="1.1" stroke="dodgerblue" width="18.75" x="334.375" y="157.3" />
	<line stroke="black" stroke-width="2" x1="400" x2="400" y1="350" y2="352.7" />
	<g fill="black" font-family="Arial" font-size="13.5" stroke="none" text-anchor="end" transform="rotate(-45,381.25,359)">
		<text x="381.25" y="363.5">RW372</text>
	</g>
	<rect fill="crimson" height="13.43" stroke="crimson" width="18.75" x="371.875" y="336.57" />
	<rect fill="blue" height="0.19" stroke="blue" width="18.75" x="371.875" y="336.38" />
	<rect fill="lightseagreen" height="12.67" stroke="lightseagreen" width="18.75" x="371.875" y="323.71" />
	<rect fill="orange" height="14.47" stroke="orange" width="18.75" x="371.875" y="309.24" />
	<rect fill="mediumpurple" height="35.4" stroke="mediumpurple" width="18.75" x="371.875" y="273.84" />
	<rect fill="palegreen" height="44.4" stroke="palegreen" width="18.75" x="371.875" y="229.44" />
	<rect fill="lightcoral" height="74.33" stroke="lightcoral" width="18.75" x="371.875" y="155.11" />
	<rect fill="dodgerblue" height="1.13" stroke="dodgerblue" width="18.75" x="371.875" y="153.98" />
	<line stroke="black" stroke-width="2" x1="437.5" x2="437.5" y1="350" y2="352.7" />
	<g fill="black" font-family="Arial" font-size="13.5" stroke="none" text-anchor="end" transform="rotate(-45,418.75,359)">
		<text x="418.75" y="363.5">RW373</text>
	</g>
	<rect fill="crimson" height="27.57" stroke="crimson" width="18.75" x="409.375" y="322.43" />
	<rect fill="blue" height="0.41" stroke="blue" width="18.75" x="409.375" y="322.02" />
	<rect fill="lightseagreen" height="13.34" stroke="lightseagreen" width="18.75" x="409.375" y="308.68" />
	<rect fill="orange" height="22.31" stroke="orange" width="18.75" x="409.375" y="286.37" />
	<rect fill="mediumpurple" height="52.56" stroke="mediumpurple" width="18.75" x="409.375" y="233.81" />
	<rect fill="palegreen" height="63.89" stroke="palegreen" width="18.75" x="409.375" y="169.92" />
	<rect fill="lightcoral" height="89.34" stroke="lightcoral" width="18.75" x="409.375" y="80.58" />
	<rect fill="dodgerblue" height="0.93" stroke="dodgerblue" width="18.75" x="409.375" y="79.65" />
	<line stroke="black" stroke-width="2" x1="475" x2="475" y1="350" y2="352.7" />
	<g fill="black" font-family="Arial" font-size="13.5" stroke="none" text-anchor="end" transform="rotate(-45,456.25,359)">
		<text x="456.25" y="363.5">R37J161</text>
	</g>
	<rect fill="crimson" height="22.6" stroke="crimson" width="18.75" x="446.875" y="327.4" />
	<rect fill="blue" height="0.4" stroke="blue" width="18.75" x="446.875" y="327" />
	<rect fill="lightseagreen" height="12.97" stroke="lightseagreen" width="18.75" x="446.875" y="314.03" />
	<rect fill="orange" height="23.93" stroke="orange" width="18.75" x="446.875" y="290.1" />
	<rect fill="mediumpurple" height="48.8" stroke="mediumpurple" width="18.75" x="446.875" y="241.3" />
	<rect fill="palegreen" height="56.93" stroke="palegreen" width="18.75" x="446.875" y="184.37" />
	<rect fill="lightcoral" height="81.58" stroke="lightcoral" width="18.75" x="446.875" y="102.79" />
	<rect fill="dodgerblue" height="1.31" stroke="dodgerblue" width="18.75" x="446.875" y="101.48" />
	<line stroke="black" stroke-width="2" x1="512.5" x2="512.5" y1="350" y2="352.7" />
	<g fill="black" font-family="Arial" font-size="13.5" stroke="none" text-anchor="end" transform="rotate(-45,493.75,359)">
		<text x="493.75" y="363.5">R37J162</text>
	</g>
	<rect fill="crimson" height="23.13" stroke="crimson" width="18.75" x="484.375" y="326.87" />
	<rect fill="blue" height="0.15" stroke="blue" width="18.75" x="484.375" y="326.72" />
	<rect fill="lightseagreen" height="12.97" stroke="lightseagreen" width="18.75" x="484.375" y="313.75" />
	<rect fill="orange" height="23.95" stroke="orange" width="18.75" x="484.375" y="289.8" />
	<rect fill="mediumpurple" height="38.22" stroke="mediumpurple" width="18.75" x="484.375" y="251.58" />
	<rect fill="palegreen" height="47.02" stroke="palegreen" width="18.75" x="484.375" y="204.56" />
	<rect fill="lightcoral" height="69.5" stroke="lightcoral" width="18.75" x="484.375" y="135.06" />
	<rect fill="dodgerblue" height="1.28" stroke="dodgerblue" width="18.75" x="484.375" y="133.78" />
	<line stroke="black" stroke-width="2" x1="550" x2="550" y1="350" y2="352.7" />
	<g fill="black" font-family="Arial" font-size="13.5" stroke="none" text-anchor="end" transform="rotate(-45,531.25,359)">
		<text x="531.25" y="363.5">R37J163</text>
	</g>
	<rect fill="crimson" height="13.28" stroke="crimson" width="18.75" x="521.875" y="336.72" />
	<rect fill="blue" height="0.09" stroke="blue" width="18.75" x="521.875" y="336.63" />
	<rect fill="lightseagreen" height="10.08" stroke="lightseagreen" width="18.75" x="521.875" y="326.55" />
	<rect fill="orange" height="13.07" stroke="orange" width="18.75" x="521.875" y="313.48" />
	<rect fill="mediumpurple" height="32.33" stroke="mediumpurple" width="18.75" x="521.875" y="281.15" />
	<rect fill="palegreen" height="42.64" stroke="palegreen" width="18.75" x="521.875" y="238.51" />
	<rect fill="lightcoral" height="60.57" stroke="lightcoral" width="18.75" x="521.875" y="177.94" />
	<rect fill="dodgerblue" height="0.99" stroke="dodgerblue" width="18.75" x="521.875" y="176.95" />
	<line stroke="black" stroke-width="2" x1="100" x2="550" y1="350" y2="350" />
	<line stroke="black" stroke-width="2" x1="100" x2="100" y1="50" y2="352.7" />
	<rect fill="crimson" height="8.4" stroke="crimson" width="8.4" x="564.4" y="102.2" />
	<text fill="black" font-family="Arial" font-size="12" stroke="none" x="577" y="110.6">Unassigned</text>
	<rect fill="blue" height="8.4" stroke="blue" width="8.4" x="564.4" y="116.6" />
	<text fill="black" font-family="Arial" font-size="12" stroke="none" x="577" y="125">Kingdom</text>
	<rect fill="lightseagreen" height="8.4" stroke="lightseagreen" width="8.4" x="564.4" y="131" />
	<text fill="black" font-family="Arial" font-size="12" stroke="none" x="577" y="139.4">Phylum</text>
	<rect fill="orange" height="8.4" stroke="orange" width="8.4" x="564.4" y="145.4" />
	<text fill="black" font-family="Arial" font-size="12" stroke="none" x="577" y="153.8">Class</text>
	<rect fill="mediumpurple" height="8.4" stroke="mediumpurple" width="8.4" x="564.4" y="159.8" />
	<text fill="black" font-family="Arial" font-size="12" stroke="none" x="577" y="168.2">Order</text>
	<rect fill="palegreen" height="8.4" stroke="palegreen" width="8.4" x="564.4" y="174.2" />
	<text fill="black" font-family="Arial" font-size="12" stroke="none" x="577" y="182.6">Family</text>
	<rect fill="lightcoral" height="8.4" stroke="lightcoral" width="8.4" x="564.4" y="188.6" />
	<text fill="black" font-family="Arial" font-size="12" stroke="none" x="577" y="197">Genus</text>
	<rect fill="dodgerblue" height="8.4" stroke="dodgerblue" width="8.4" x="564.4" y="203" />
	<text fill="black" font-family="Arial" font-size="12" stroke="none" x="577" y="211.4">Species</text>
	<!-- 
	Generated using the Perl SVG Module V2.64
	by Ronan Oger
	Info: http://www.roitsystems.com/
 -->
</svg>