<?xml version="1.0" encoding="UTF-8" standalone="yes"?>
<!DOCTYPE svg PUBLIC "-//W3C//DTD SVG 1.0//EN" "http://www.w3.org/TR/2001/REC-SVG-20010904/DTD/svg10.dtd">
<svg height="502.123106012294" width="803.033008588991" xmlns="http://www.w3.org/2000/svg" xmlns:svg="http://www.w3.org/2000/svg" xmlns:xlink="http://www.w3.org/1999/xlink">
	<polygon fill="rgb(245,158,162)" points="390.909902576697, 52.1231060122937, 360.909902576697, 82.1231060122937, 390.909902576697, 112.123106012294, 420.909902576697, 82.1231060122937" stroke="none" />
	<text fill="black" font-family="Arial" font-size="10.00" stroke="none" text-anchor="middle" x="390.909902576697" y="85.4564393456271">0.380</text>
	<polygon fill="rgb(246,150,154)" points="360.909902576697, 82.1231060122937, 330.909902576697, 112.123106012294, 360.909902576697, 142.123106012294, 390.909902576697, 112.123106012294" stroke="none" />
	<text fill="black" font-family="Arial" font-size="10.00" stroke="none" text-anchor="middle" x="360.909902576697" y="115.456439345627">0.362</text>
	<polygon fill="rgb(246,150,154)" points="330.909902576697, 112.123106012294, 300.909902576697, 142.123106012294, 330.909902576697, 172.123106012294, 360.909902576697, 142.123106012294" stroke="none" />
	<text fill="black" font-family="Arial" font-size="10.00" stroke="none" text-anchor="middle" x="330.909902576697" y="145.456439345627">0.362</text>
	<polygon fill="rgb(246,153,157)" points="300.909902576697, 142.123106012294, 270.909902576697, 172.123106012294, 300.909902576697, 202.123106012294, 330.909902576697, 172.123106012294" stroke="none" />
	<text fill="black" font-family="Arial" font-size="10.00" stroke="none" text-anchor="middle" x="300.909902576697" y="175.456439345627">0.369</text>
	<polygon fill="rgb(246,154,158)" points="270.909902576697, 172.123106012294, 240.909902576697, 202.123106012294, 270.909902576697, 232.123106012294, 300.909902576697, 202.123106012294" stroke="none" />
	<text fill="black" font-family="Arial" font-size="10.00" stroke="none" text-anchor="middle" x="270.909902576697" y="205.456439345627">0.372</text>
	<polygon fill="rgb(245,160,165)" points="240.909902576697, 202.123106012294, 210.909902576697, 232.123106012294, 240.909902576697, 262.123106012294, 270.909902576697, 232.123106012294" stroke="none" />
	<text fill="black" font-family="Arial" font-size="10.00" stroke="none" text-anchor="middle" x="240.909902576697" y="235.456439345627">0.388</text>
	<polygon fill="rgb(244,186,191)" points="210.909902576697, 232.123106012294, 180.909902576697, 262.123106012294, 210.909902576697, 292.123106012294, 240.909902576697, 262.123106012294" stroke="none" />
	<text fill="black" font-family="Arial" font-size="10.00" stroke="none" text-anchor="middle" x="210.909902576697" y="265.456439345627">0.448</text>
	<polygon fill="rgb(243,192,197)" points="180.909902576697, 262.123106012294, 150.909902576697, 292.123106012294, 180.909902576697, 322.123106012294, 210.909902576697, 292.123106012294" stroke="none" />
	<text fill="black" font-family="Arial" font-size="10.00" stroke="none" text-anchor="middle" x="180.909902576697" y="295.456439345627">0.463</text>
	<polygon fill="rgb(244,176,181)" points="150.909902576697, 292.123106012294, 120.909902576697, 322.123106012294, 150.909902576697, 352.123106012294, 180.909902576697, 322.123106012294" stroke="none" />
	<text fill="black" font-family="Arial" font-size="10.00" stroke="none" text-anchor="middle" x="150.909902576697" y="325.456439345627">0.426</text>
	<polygon fill="rgb(246,149,153)" points="120.909902576697, 322.123106012294, 90.9099025766973, 352.123106012294, 120.909902576697, 382.123106012294, 150.909902576697, 352.123106012294" stroke="none" />
	<text fill="black" font-family="Arial" font-size="10.00" stroke="none" text-anchor="middle" x="120.909902576697" y="355.456439345627">0.360</text>
	<polygon fill="rgb(246,145,149)" points="90.9099025766973, 352.123106012294, 60.9099025766973, 382.123106012294, 90.9099025766973, 412.123106012294, 120.909902576697, 382.123106012294" stroke="none" />
	<text fill="black" font-family="Arial" font-size="10.00" stroke="none" text-anchor="middle" x="90.9099025766973" y="385.456439345627">0.351</text>
	<polygon fill="rgb(255,0,0)" points="60.9099025766973, 382.123106012294, 30.9099025766973, 412.123106012294, 60.9099025766973, 442.123106012294, 90.9099025766973, 412.123106012294" stroke="none" />
	<text fill="black" font-family="Arial" font-size="10.00" stroke="none" text-anchor="middle" x="60.9099025766973" y="415.456439345627">0.0</text>
	<polygon fill="rgb(245,160,165)" points="420.909902576697, 82.1231060122937, 390.909902576697, 112.123106012294, 420.909902576697, 142.123106012294, 450.909902576697, 112.123106012294" stroke="none" />
	<text fill="black" font-family="Arial" font-size="10.00" stroke="none" text-anchor="middle" x="420.909902576697" y="115.456439345627">0.388</text>
	<polygon fill="rgb(246,155,159)" points="390.909902576697, 112.123106012294, 360.909902576697, 142.123106012294, 390.909902576697, 172.123106012294, 420.909902576697, 142.123106012294" stroke="none" />
	<text fill="black" font-family="Arial" font-size="10.00" stroke="none" text-anchor="middle" x="390.909902576697" y="145.456439345627">0.374</text>
	<polygon fill="rgb(246,153,157)" points="360.909902576697, 142.123106012294, 330.909902576697, 172.123106012294, 360.909902576697, 202.123106012294, 390.909902576697, 172.123106012294" stroke="none" />
	<text fill="black" font-family="Arial" font-size="10.00" stroke="none" text-anchor="middle" x="360.909902576697" y="175.456439345627">0.370</text>
	<polygon fill="rgb(246,152,156)" points="330.909902576697, 172.123106012294, 300.909902576697, 202.123106012294, 330.909902576697, 232.123106012294, 360.909902576697, 202.123106012294" stroke="none" />
	<text fill="black" font-family="Arial" font-size="10.00" stroke="none" text-anchor="middle" x="330.909902576697" y="205.456439345627">0.367</text>
	<polygon fill="rgb(246,154,158)" points="300.909902576697, 202.123106012294, 270.909902576697, 232.123106012294, 300.909902576697, 262.123106012294, 330.909902576697, 232.123106012294" stroke="none" />
	<text fill="black" font-family="Arial" font-size="10.00" stroke="none" text-anchor="middle" x="300.909902576697" y="235.456439345627">0.371</text>
	<polygon fill="rgb(245,169,174)" points="270.909902576697, 232.123106012294, 240.909902576697, 262.123106012294, 270.909902576697, 292.123106012294, 300.909902576697, 262.123106012294" stroke="none" />
	<text fill="black" font-family="Arial" font-size="10.00" stroke="none" text-anchor="middle" x="270.909902576697" y="265.456439345627">0.410</text>
	<polygon fill="rgb(243,194,199)" points="240.909902576697, 262.123106012294, 210.909902576697, 292.123106012294, 240.909902576697, 322.123106012294, 270.909902576697, 292.123106012294" stroke="none" />
	<text fill="black" font-family="Arial" font-size="10.00" stroke="none" text-anchor="middle" x="240.909902576697" y="295.456439345627">0.468</text>
	<polygon fill="rgb(243,200,206)" points="210.909902576697, 292.123106012294, 180.909902576697, 322.123106012294, 210.909902576697, 352.123106012294, 240.909902576697, 322.123106012294" stroke="none" />
	<text fill="black" font-family="Arial" font-size="10.00" stroke="none" text-anchor="middle" x="210.909902576697" y="325.456439345627">0.483</text>
	<polygon fill="rgb(244,190,195)" points="180.909902576697, 322.123106012294, 150.909902576697, 352.123106012294, 180.909902576697, 382.123106012294, 210.909902576697, 352.123106012294" stroke="none" />
	<text fill="black" font-family="Arial" font-size="10.00" stroke="none" text-anchor="middle" x="180.909902576697" y="355.456439345627">0.458</text>
	<polygon fill="rgb(246,149,153)" points="150.909902576697, 352.123106012294, 120.909902576697, 382.123106012294, 150.909902576697, 412.123106012294, 180.909902576697, 382.123106012294" stroke="none" />
	<text fill="black" font-family="Arial" font-size="10.00" stroke="none" text-anchor="middle" x="150.909902576697" y="385.456439345627">0.359</text>
	<polygon fill="rgb(255,0,0)" points="120.909902576697, 382.123106012294, 90.9099025766973, 412.123106012294, 120.909902576697, 442.123106012294, 150.909902576697, 412.123106012294" stroke="none" />
	<text fill="black" font-family="Arial" font-size="10.00" stroke="none" text-anchor="middle" x="120.909902576697" y="415.456439345627">0.0</text>
	<polygon fill="rgb(246,153,157)" points="450.909902576697, 112.123106012294, 420.909902576697, 142.123106012294, 450.909902576697, 172.123106012294, 480.909902576697, 142.123106012294" stroke="none" />
	<text fill="black" font-family="Arial" font-size="10.00" stroke="none" text-anchor="middle" x="450.909902576697" y="145.456439345627">0.369</text>
	<polygon fill="rgb(246,156,160)" points="420.909902576697, 142.123106012294, 390.909902576697, 172.123106012294, 420.909902576697, 202.123106012294, 450.909902576697, 172.123106012294" stroke="none" />
	<text fill="black" font-family="Arial" font-size="10.00" stroke="none" text-anchor="middle" x="420.909902576697" y="175.456439345627">0.377</text>
	<polygon fill="rgb(246,149,153)" points="390.909902576697, 172.123106012294, 360.909902576697, 202.123106012294, 390.909902576697, 232.123106012294, 420.909902576697, 202.123106012294" stroke="none" />
	<text fill="black" font-family="Arial" font-size="10.00" stroke="none" text-anchor="middle" x="390.909902576697" y="205.456439345627">0.359</text>
	<polygon fill="rgb(246,150,154)" points="360.909902576697, 202.123106012294, 330.909902576697, 232.123106012294, 360.909902576697, 262.123106012294, 390.909902576697, 232.123106012294" stroke="none" />
	<text fill="black" font-family="Arial" font-size="10.00" stroke="none" text-anchor="middle" x="360.909902576697" y="235.456439345627">0.362</text>
	<polygon fill="rgb(246,150,154)" points="330.909902576697, 232.123106012294, 300.909902576697, 262.123106012294, 330.909902576697, 292.123106012294, 360.909902576697, 262.123106012294" stroke="none" />
	<text fill="black" font-family="Arial" font-size="10.00" stroke="none" text-anchor="middle" x="330.909902576697" y="265.456439345627">0.362</text>
	<polygon fill="rgb(246,157,161)" points="300.909902576697, 262.123106012294, 270.909902576697, 292.123106012294, 300.909902576697, 322.123106012294, 330.909902576697, 292.123106012294" stroke="none" />
	<text fill="black" font-family="Arial" font-size="10.00" stroke="none" text-anchor="middle" x="300.909902576697" y="295.456439345627">0.379</text>
	<polygon fill="rgb(244,187,192)" points="270.909902576697, 292.123106012294, 240.909902576697, 322.123106012294, 270.909902576697, 352.123106012294, 300.909902576697, 322.123106012294" stroke="none" />
	<text fill="black" font-family="Arial" font-size="10.00" stroke="none" text-anchor="middle" x="270.909902576697" y="325.456439345627">0.451</text>
	<polygon fill="rgb(243,195,200)" points="240.909902576697, 322.123106012294, 210.909902576697, 352.123106012294, 240.909902576697, 382.123106012294, 270.909902576697, 352.123106012294" stroke="none" />
	<text fill="black" font-family="Arial" font-size="10.00" stroke="none" text-anchor="middle" x="240.909902576697" y="355.456439345627">0.469</text>
	<polygon fill="rgb(244,186,191)" points="210.909902576697, 352.123106012294, 180.909902576697, 382.123106012294, 210.909902576697, 412.123106012294, 240.909902576697, 382.123106012294" stroke="none" />
	<text fill="black" font-family="Arial" font-size="10.00" stroke="none" text-anchor="middle" x="210.909902576697" y="385.456439345627">0.448</text>
	<polygon fill="rgb(255,0,0)" points="180.909902576697, 382.123106012294, 150.909902576697, 412.123106012294, 180.909902576697, 442.123106012294, 210.909902576697, 412.123106012294" stroke="none" />
	<text fill="black" font-family="Arial" font-size="10.00" stroke="none" text-anchor="middle" x="180.909902576697" y="415.456439345627">0.0</text>
	<polygon fill="rgb(244,179,184)" points="480.909902576697, 142.123106012294, 450.909902576697, 172.123106012294, 480.909902576697, 202.123106012294, 510.909902576697, 172.123106012294" stroke="none" />
	<text fill="black" font-family="Arial" font-size="10.00" stroke="none" text-anchor="middle" x="480.909902576697" y="175.456439345627">0.433</text>
	<polygon fill="rgb(244,176,181)" points="450.909902576697, 172.123106012294, 420.909902576697, 202.123106012294, 450.909902576697, 232.123106012294, 480.909902576697, 202.123106012294" stroke="none" />
	<text fill="black" font-family="Arial" font-size="10.00" stroke="none" text-anchor="middle" x="450.909902576697" y="205.456439345627">0.425</text>
	<polygon fill="rgb(244,182,187)" points="420.909902576697, 202.123106012294, 390.909902576697, 232.123106012294, 420.909902576697, 262.123106012294, 450.909902576697, 232.123106012294" stroke="none" />
	<text fill="black" font-family="Arial" font-size="10.00" stroke="none" text-anchor="middle" x="420.909902576697" y="235.456439345627">0.439</text>
	<polygon fill="rgb(244,178,183)" points="390.909902576697, 232.123106012294, 360.909902576697, 262.123106012294, 390.909902576697, 292.123106012294, 420.909902576697, 262.123106012294" stroke="none" />
	<text fill="black" font-family="Arial" font-size="10.00" stroke="none" text-anchor="middle" x="390.909902576697" y="265.456439345627">0.429</text>
	<polygon fill="rgb(244,186,191)" points="360.909902576697, 262.123106012294, 330.909902576697, 292.123106012294, 360.909902576697, 322.123106012294, 390.909902576697, 292.123106012294" stroke="none" />
	<text fill="black" font-family="Arial" font-size="10.00" stroke="none" text-anchor="middle" x="360.909902576697" y="295.456439345627">0.448</text>
	<polygon fill="rgb(243,192,197)" points="330.909902576697, 292.123106012294, 300.909902576697, 322.123106012294, 330.909902576697, 352.123106012294, 360.909902576697, 322.123106012294" stroke="none" />
	<text fill="black" font-family="Arial" font-size="10.00" stroke="none" text-anchor="middle" x="330.909902576697" y="325.456439345627">0.462</text>
	<polygon fill="rgb(247,139,143)" points="300.909902576697, 322.123106012294, 270.909902576697, 352.123106012294, 300.909902576697, 382.123106012294, 330.909902576697, 352.123106012294" stroke="none" />
	<text fill="black" font-family="Arial" font-size="10.00" stroke="none" text-anchor="middle" x="300.909902576697" y="355.456439345627">0.337</text>
	<polygon fill="rgb(246,150,154)" points="270.909902576697, 352.123106012294, 240.909902576697, 382.123106012294, 270.909902576697, 412.123106012294, 300.909902576697, 382.123106012294" stroke="none" />
	<text fill="black" font-family="Arial" font-size="10.00" stroke="none" text-anchor="middle" x="270.909902576697" y="385.456439345627">0.363</text>
	<polygon fill="rgb(255,0,0)" points="240.909902576697, 382.123106012294, 210.909902576697, 412.123106012294, 240.909902576697, 442.123106012294, 270.909902576697, 412.123106012294" stroke="none" />
	<text fill="black" font-family="Arial" font-size="10.00" stroke="none" text-anchor="middle" x="240.909902576697" y="415.456439345627">0.0</text>
	<polygon fill="rgb(244,188,193)" points="510.909902576697, 172.123106012294, 480.909902576697, 202.123106012294, 510.909902576697, 232.123106012294, 540.909902576697, 202.123106012294" stroke="none" />
	<text fill="black" font-family="Arial" font-size="10.00" stroke="none" text-anchor="middle" x="510.909902576697" y="205.456439345627">0.453</text>
	<polygon fill="rgb(244,189,194)" points="480.909902576697, 202.123106012294, 450.909902576697, 232.123106012294, 480.909902576697, 262.123106012294, 510.909902576697, 232.123106012294" stroke="none" />
	<text fill="black" font-family="Arial" font-size="10.00" stroke="none" text-anchor="middle" x="480.909902576697" y="235.456439345627">0.457</text>
	<polygon fill="rgb(243,195,200)" points="450.909902576697, 232.123106012294, 420.909902576697, 262.123106012294, 450.909902576697, 292.123106012294, 480.909902576697, 262.123106012294" stroke="none" />
	<text fill="black" font-family="Arial" font-size="10.00" stroke="none" text-anchor="middle" x="450.909902576697" y="265.456439345627">0.470</text>
	<polygon fill="rgb(244,184,189)" points="420.909902576697, 262.123106012294, 390.909902576697, 292.123106012294, 420.909902576697, 322.123106012294, 450.909902576697, 292.123106012294" stroke="none" />
	<text fill="black" font-family="Arial" font-size="10.00" stroke="none" text-anchor="middle" x="420.909902576697" y="295.456439345627">0.445</text>
	<polygon fill="rgb(244,189,194)" points="390.909902576697, 292.123106012294, 360.909902576697, 322.123106012294, 390.909902576697, 352.123106012294, 420.909902576697, 322.123106012294" stroke="none" />
	<text fill="black" font-family="Arial" font-size="10.00" stroke="none" text-anchor="middle" x="390.909902576697" y="325.456439345627">0.457</text>
	<polygon fill="rgb(243,195,200)" points="360.909902576697, 322.123106012294, 330.909902576697, 352.123106012294, 360.909902576697, 382.123106012294, 390.909902576697, 352.123106012294" stroke="none" />
	<text fill="black" font-family="Arial" font-size="10.00" stroke="none" text-anchor="middle" x="360.909902576697" y="355.456439345627">0.470</text>
	<polygon fill="rgb(246,151,155)" points="330.909902576697, 352.123106012294, 300.909902576697, 382.123106012294, 330.909902576697, 412.123106012294, 360.909902576697, 382.123106012294" stroke="none" />
	<text fill="black" font-family="Arial" font-size="10.00" stroke="none" text-anchor="middle" x="330.909902576697" y="385.456439345627">0.365</text>
	<polygon fill="rgb(255,0,0)" points="300.909902576697, 382.123106012294, 270.909902576697, 412.123106012294, 300.909902576697, 442.123106012294, 330.909902576697, 412.123106012294" stroke="none" />
	<text fill="black" font-family="Arial" font-size="10.00" stroke="none" text-anchor="middle" x="300.909902576697" y="415.456439345627">0.0</text>
	<polygon fill="rgb(244,186,191)" points="540.909902576697, 202.123106012294, 510.909902576697, 232.123106012294, 540.909902576697, 262.123106012294, 570.909902576697, 232.123106012294" stroke="none" />
	<text fill="black" font-family="Arial" font-size="10.00" stroke="none" text-anchor="middle" x="540.909902576697" y="235.456439345627">0.448</text>
	<polygon fill="rgb(244,188,193)" points="510.909902576697, 232.123106012294, 480.909902576697, 262.123106012294, 510.909902576697, 292.123106012294, 540.909902576697, 262.123106012294" stroke="none" />
	<text fill="black" font-family="Arial" font-size="10.00" stroke="none" text-anchor="middle" x="510.909902576697" y="265.456439345627">0.454</text>
	<polygon fill="rgb(244,190,195)" points="480.909902576697, 262.123106012294, 450.909902576697, 292.123106012294, 480.909902576697, 322.123106012294, 510.909902576697, 292.123106012294" stroke="none" />
	<text fill="black" font-family="Arial" font-size="10.00" stroke="none" text-anchor="middle" x="480.909902576697" y="295.456439345627">0.458</text>
	<polygon fill="rgb(244,181,186)" points="450.909902576697, 292.123106012294, 420.909902576697, 322.123106012294, 450.909902576697, 352.123106012294, 480.909902576697, 322.123106012294" stroke="none" />
	<text fill="black" font-family="Arial" font-size="10.00" stroke="none" text-anchor="middle" x="450.909902576697" y="325.456439345627">0.436</text>
	<polygon fill="rgb(243,192,197)" points="420.909902576697, 322.123106012294, 390.909902576697, 352.123106012294, 420.909902576697, 382.123106012294, 450.909902576697, 352.123106012294" stroke="none" />
	<text fill="black" font-family="Arial" font-size="10.00" stroke="none" text-anchor="middle" x="420.909902576697" y="355.456439345627">0.464</text>
	<polygon fill="rgb(243,195,201)" points="390.909902576697, 352.123106012294, 360.909902576697, 382.123106012294, 390.909902576697, 412.123106012294, 420.909902576697, 382.123106012294" stroke="none" />
	<text fill="black" font-family="Arial" font-size="10.00" stroke="none" text-anchor="middle" x="390.909902576697" y="385.456439345627">0.472</text>
	<polygon fill="rgb(255,0,0)" points="360.909902576697, 382.123106012294, 330.909902576697, 412.123106012294, 360.909902576697, 442.123106012294, 390.909902576697, 412.123106012294" stroke="none" />
	<text fill="black" font-family="Arial" font-size="10.00" stroke="none" text-anchor="middle" x="360.909902576697" y="415.456439345627">0.0</text>
	<polygon fill="rgb(246,157,161)" points="570.909902576697, 232.123106012294, 540.909902576697, 262.123106012294, 570.909902576697, 292.123106012294, 600.909902576697, 262.123106012294" stroke="none" />
	<text fill="black" font-family="Arial" font-size="10.00" stroke="none" text-anchor="middle" x="570.909902576697" y="265.456439345627">0.378</text>
	<polygon fill="rgb(245,160,165)" points="540.909902576697, 262.123106012294, 510.909902576697, 292.123106012294, 540.909902576697, 322.123106012294, 570.909902576697, 292.123106012294" stroke="none" />
	<text fill="black" font-family="Arial" font-size="10.00" stroke="none" text-anchor="middle" x="540.909902576697" y="295.456439345627">0.387</text>
	<polygon fill="rgb(245,158,162)" points="510.909902576697, 292.123106012294, 480.909902576697, 322.123106012294, 510.909902576697, 352.123106012294, 540.909902576697, 322.123106012294" stroke="none" />
	<text fill="black" font-family="Arial" font-size="10.00" stroke="none" text-anchor="middle" x="510.909902576697" y="325.456439345627">0.381</text>
	<polygon fill="rgb(246,154,158)" points="480.909902576697, 322.123106012294, 450.909902576697, 352.123106012294, 480.909902576697, 382.123106012294, 510.909902576697, 352.123106012294" stroke="none" />
	<text fill="black" font-family="Arial" font-size="10.00" stroke="none" text-anchor="middle" x="480.909902576697" y="355.456439345627">0.372</text>
	<polygon fill="rgb(246,153,157)" points="450.909902576697, 352.123106012294, 420.909902576697, 382.123106012294, 450.909902576697, 412.123106012294, 480.909902576697, 382.123106012294" stroke="none" />
	<text fill="black" font-family="Arial" font-size="10.00" stroke="none" text-anchor="middle" x="450.909902576697" y="385.456439345627">0.369</text>
	<polygon fill="rgb(255,0,0)" points="420.909902576697, 382.123106012294, 390.909902576697, 412.123106012294, 420.909902576697, 442.123106012294, 450.909902576697, 412.123106012294" stroke="none" />
	<text fill="black" font-family="Arial" font-size="10.00" stroke="none" text-anchor="middle" x="420.909902576697" y="415.456439345627">0.0</text>
	<polygon fill="rgb(246,152,156)" points="600.909902576697, 262.123106012294, 570.909902576697, 292.123106012294, 600.909902576697, 322.123106012294, 630.909902576697, 292.123106012294" stroke="none" />
	<text fill="black" font-family="Arial" font-size="10.00" stroke="none" text-anchor="middle" x="600.909902576697" y="295.456439345627">0.366</text>
	<polygon fill="rgb(246,153,157)" points="570.909902576697, 292.123106012294, 540.909902576697, 322.123106012294, 570.909902576697, 352.123106012294, 600.909902576697, 322.123106012294" stroke="none" />
	<text fill="black" font-family="Arial" font-size="10.00" stroke="none" text-anchor="middle" x="570.909902576697" y="325.456439345627">0.370</text>
	<polygon fill="rgb(246,148,152)" points="540.909902576697, 322.123106012294, 510.909902576697, 352.123106012294, 540.909902576697, 382.123106012294, 570.909902576697, 352.123106012294" stroke="none" />
	<text fill="black" font-family="Arial" font-size="10.00" stroke="none" text-anchor="middle" x="540.909902576697" y="355.456439345627">0.358</text>
	<polygon fill="rgb(246,145,149)" points="510.909902576697, 352.123106012294, 480.909902576697, 382.123106012294, 510.909902576697, 412.123106012294, 540.909902576697, 382.123106012294" stroke="none" />
	<text fill="black" font-family="Arial" font-size="10.00" stroke="none" text-anchor="middle" x="510.909902576697" y="385.456439345627">0.351</text>
	<polygon fill="rgb(255,0,0)" points="480.909902576697, 382.123106012294, 450.909902576697, 412.123106012294, 480.909902576697, 442.123106012294, 510.909902576697, 412.123106012294" stroke="none" />
	<text fill="black" font-family="Arial" font-size="10.00" stroke="none" text-anchor="middle" x="480.909902576697" y="415.456439345627">0.0</text>
	<polygon fill="rgb(246,148,152)" points="630.909902576697, 292.123106012294, 600.909902576697, 322.123106012294, 630.909902576697, 352.123106012294, 660.909902576697, 322.123106012294" stroke="none" />
	<text fill="black" font-family="Arial" font-size="10.00" stroke="none" text-anchor="middle" x="630.909902576697" y="325.456439345627">0.357</text>
	<polygon fill="rgb(246,146,150)" points="600.909902576697, 322.123106012294, 570.909902576697, 352.123106012294, 600.909902576697, 382.123106012294, 630.909902576697, 352.123106012294" stroke="none" />
	<text fill="black" font-family="Arial" font-size="10.00" stroke="none" text-anchor="middle" x="600.909902576697" y="355.456439345627">0.353</text>
	<polygon fill="rgb(246,143,147)" points="570.909902576697, 352.123106012294, 540.909902576697, 382.123106012294, 570.909902576697, 412.123106012294, 600.909902576697, 382.123106012294" stroke="none" />
	<text fill="black" font-family="Arial" font-size="10.00" stroke="none" text-anchor="middle" x="570.909902576697" y="385.456439345627">0.346</text>
	<polygon fill="rgb(255,0,0)" points="540.909902576697, 382.123106012294, 510.909902576697, 412.123106012294, 540.909902576697, 442.123106012294, 570.909902576697, 412.123106012294" stroke="none" />
	<text fill="black" font-family="Arial" font-size="10.00" stroke="none" text-anchor="middle" x="540.909902576697" y="415.456439345627">0.0</text>
	<polygon fill="rgb(246,148,152)" points="660.909902576697, 322.123106012294, 630.909902576697, 352.123106012294, 660.909902576697, 382.123106012294, 690.909902576697, 352.123106012294" stroke="none" />
	<text fill="black" font-family="Arial" font-size="10.00" stroke="none" text-anchor="middle" x="660.909902576697" y="355.456439345627">0.358</text>
	<polygon fill="rgb(246,145,149)" points="630.909902576697, 352.123106012294, 600.909902576697, 382.123106012294, 630.909902576697, 412.123106012294, 660.909902576697, 382.123106012294" stroke="none" />
	<text fill="black" font-family="Arial" font-size="10.00" stroke="none" text-anchor="middle" x="630.909902576697" y="385.456439345627">0.350</text>
	<polygon fill="rgb(255,0,0)" points="600.909902576697, 382.123106012294, 570.909902576697, 412.123106012294, 600.909902576697, 442.123106012294, 630.909902576697, 412.123106012294" stroke="none" />
	<text fill="black" font-family="Arial" font-size="10.00" stroke="none" text-anchor="middle" x="600.909902576697" y="415.456439345627">0.0</text>
	<polygon fill="rgb(246,148,152)" points="690.909902576697, 352.123106012294, 660.909902576697, 382.123106012294, 690.909902576697, 412.123106012294, 720.909902576697, 382.123106012294" stroke="none" />
	<text fill="black" font-family="Arial" font-size="10.00" stroke="none" text-anchor="middle" x="690.909902576697" y="385.456439345627">0.357</text>
	<polygon fill="rgb(255,0,0)" points="660.909902576697, 382.123106012294, 630.909902576697, 412.123106012294, 660.909902576697, 442.123106012294, 690.909902576697, 412.123106012294" stroke="none" />
	<text fill="black" font-family="Arial" font-size="10.00" stroke="none" text-anchor="middle" x="660.909902576697" y="415.456439345627">0.0</text>
	<polygon fill="rgb(255,0,0)" points="720.909902576697, 382.123106012294, 690.909902576697, 412.123106012294, 720.909902576697, 442.123106012294, 750.909902576697, 412.123106012294" stroke="none" />
	<text fill="black" font-family="Arial" font-size="10.00" stroke="none" text-anchor="middle" x="720.909902576697" y="415.456439345627">0.0</text>
	<line stroke="black" stroke-width="1" x1="30.9099025766973" x2="390.909902576697" y1="412.123106012294" y2="52.1231060122937" />
	<g fill="black" font-family="Arial" font-size="15" stroke="none" transform="rotate(-45,413.409902576697,59.6231060122937)">
		<text x="413.409902576697" y="64.6231060122937">CK1</text>
	</g>
	<line stroke="black" stroke-width="1" x1="420.909902576697" x2="60.9099025766973" y1="82.1231060122937" y2="442.123106012294" />
	<g fill="black" font-family="Arial" font-size="15" stroke="none" transform="rotate(-45,443.409902576697,89.6231060122937)">
		<text x="443.409902576697" y="94.6231060122937">CK2</text>
	</g>
	<g fill="black" font-family="Arial" font-size="15" stroke="none" transform="rotate(45,38.4099025766973,389.623106012294)">
		<text text-anchor="end" x="38.4099025766973" y="394.623106012294">CK1</text>
	</g>
	<line stroke="black" stroke-width="1" x1="30.9099025766973" x2="60.9099025766973" y1="412.123106012294" y2="442.123106012294" />
	<line stroke="black" stroke-width="1" x1="450.909902576697" x2="120.909902576697" y1="112.123106012294" y2="442.123106012294" />
	<g fill="black" font-family="Arial" font-size="15" stroke="none" transform="rotate(-45,473.409902576697,119.623106012294)">
		<text x="473.409902576697" y="124.623106012294">CK3</text>
	</g>
	<g fill="black" font-family="Arial" font-size="15" stroke="none" transform="rotate(45,68.4099025766973,359.623106012294)">
		<text text-anchor="end" x="68.4099025766973" y="364.623106012294">CK2</text>
	</g>
	<line stroke="black" stroke-width="1" x1="60.9099025766973" x2="120.909902576697" y1="382.123106012294" y2="442.123106012294" />
	<line stroke="black" stroke-width="1" x1="480.909902576697" x2="180.909902576697" y1="142.123106012294" y2="442.123106012294" />
	<g fill="black" font-family="Arial" font-size="15" stroke="none" transform="rotate(-45,503.409902576697,149.623106012294)">
		<text x="503.409902576697" y="154.623106012294">JXBR161</text>
	</g>
	<g fill="black" font-family="Arial" font-size="15" stroke="none" transform="rotate(45,98.4099025766973,329.623106012294)">
		<text text-anchor="end" x="98.4099025766973" y="334.623106012294">CK3</text>
	</g>
	<line stroke="black" stroke-width="1" x1="90.9099025766973" x2="180.909902576697" y1="352.123106012294" y2="442.123106012294" />
	<line stroke="black" stroke-width="1" x1="510.909902576697" x2="240.909902576697" y1="172.123106012294" y2="442.123106012294" />
	<g fill="black" font-family="Arial" font-size="15" stroke="none" transform="rotate(-45,533.409902576697,179.623106012294)">
		<text x="533.409902576697" y="184.623106012294">JXBR162</text>
	</g>
	<g fill="black" font-family="Arial" font-size="15" stroke="none" transform="rotate(45,128.409902576697,299.623106012294)">
		<text text-anchor="end" x="128.409902576697" y="304.623106012294">JXBR161</text>
	</g>
	<line stroke="black" stroke-width="1" x1="120.909902576697" x2="240.909902576697" y1="322.123106012294" y2="442.123106012294" />
	<line stroke="black" stroke-width="1" x1="540.909902576697" x2="300.909902576697" y1="202.123106012294" y2="442.123106012294" />
	<g fill="black" font-family="Arial" font-size="15" stroke="none" transform="rotate(-45,563.409902576697,209.623106012294)">
		<text x="563.409902576697" y="214.623106012294">JXBR163</text>
	</g>
	<g fill="black" font-family="Arial" font-size="15" stroke="none" transform="rotate(45,158.409902576697,269.623106012294)">
		<text text-anchor="end" x="158.409902576697" y="274.623106012294">JXBR162</text>
	</g>
	<line stroke="black" stroke-width="1" x1="150.909902576697" x2="300.909902576697" y1="292.123106012294" y2="442.123106012294" />
	<line stroke="black" stroke-width="1" x1="570.909902576697" x2="360.909902576697" y1="232.123106012294" y2="442.123106012294" />
	<g fill="black" font-family="Arial" font-size="15" stroke="none" transform="rotate(-45,593.409902576697,239.623106012294)">
		<text x="593.409902576697" y="244.623106012294">RW371</text>
	</g>
	<g fill="black" font-family="Arial" font-size="15" stroke="none" transform="rotate(45,188.409902576697,239.623106012294)">
		<text text-anchor="end" x="188.409902576697" y="244.623106012294">JXBR163</text>
	</g>
	<line stroke="black" stroke-width="1" x1="180.909902576697" x2="360.909902576697" y1="262.123106012294" y2="442.123106012294" />
	<line stroke="black" stroke-width="1" x1="600.909902576697" x2="420.909902576697" y1="262.123106012294" y2="442.123106012294" />
	<g fill="black" font-family="Arial" font-size="15" stroke="none" transform="rotate(-45,623.409902576697,269.623106012294)">
		<text x="623.409902576697" y="274.623106012294">RW372</text>
	</g>
	<g fill="black" font-family="Arial" font-size="15" stroke="none" transform="rotate(45,218.409902576697,209.623106012294)">
		<text text-anchor="end" x="218.409902576697" y="214.623106012294">RW371</text>
	</g>
	<line stroke="black" stroke-width="1" x1="210.909902576697" x2="420.909902576697" y1="232.123106012294" y2="442.123106012294" />
	<line stroke="black" stroke-width="1" x1="630.909902576697" x2="480.909902576697" y1="292.123106012294" y2="442.123106012294" />
	<g fill="black" font-family="Arial" font-size="15" stroke="none" transform="rotate(-45,653.409902576697,299.623106012294)">
		<text x="653.409902576697" y="304.623106012294">RW373</text>
	</g>
	<g fill="black" font-family="Arial" font-size="15" stroke="none" transform="rotate(45,248.409902576697,179.623106012294)">
		<text text-anchor="end" x="248.409902576697" y="184.623106012294">RW372</text>
	</g>
	<line stroke="black" stroke-width="1" x1="240.909902576697" x2="480.909902576697" y1="202.123106012294" y2="442.123106012294" />
	<line stroke="black" stroke-width="1" x1="660.909902576697" x2="540.909902576697" y1="322.123106012294" y2="442.123106012294" />
	<g fill="black" font-family="Arial" font-size="15" stroke="none" transform="rotate(-45,683.409902576697,329.623106012294)">
		<text x="683.409902576697" y="334.623106012294">R37J161</text>
	</g>
	<g fill="black" font-family="Arial" font-size="15" stroke="none" transform="rotate(45,278.409902576697,149.623106012294)">
		<text text-anchor="end" x="278.409902576697" y="154.623106012294">RW373</text>
	</g>
	<line stroke="black" stroke-width="1" x1="270.909902576697" x2="540.909902576697" y1="172.123106012294" y2="442.123106012294" />
	<line stroke="black" stroke-width="1" x1="690.909902576697" x2="600.909902576697" y1="352.123106012294" y2="442.123106012294" />
	<g fill="black" font-family="Arial" font-size="15" stroke="none" transform="rotate(-45,713.409902576697,359.623106012294)">
		<text x="713.409902576697" y="364.623106012294">R37J162</text>
	</g>
	<g fill="black" font-family="Arial" font-size="15" stroke="none" transform="rotate(45,308.409902576697,119.623106012294)">
		<text text-anchor="end" x="308.409902576697" y="124.623106012294">R37J161</text>
	</g>
	<line stroke="black" stroke-width="1" x1="300.909902576697" x2="600.909902576697" y1="142.123106012294" y2="442.123106012294" />
	<line stroke="black" stroke-width="1" x1="720.909902576697" x2="660.909902576697" y1="382.123106012294" y2="442.123106012294" />
	<g fill="black" font-family="Arial" font-size="15" stroke="none" transform="rotate(-45,743.409902576697,389.623106012294)">
		<text x="743.409902576697" y="394.623106012294">R37J163</text>
	</g>
	<g fill="black" font-family="Arial" font-size="15" stroke="none" transform="rotate(45,338.409902576697,89.6231060122938)">
		<text text-anchor="end" x="338.409902576697" y="94.6231060122938">R37J162</text>
	</g>
	<line stroke="black" stroke-width="1" x1="330.909902576697" x2="660.909902576697" y1="112.123106012294" y2="442.123106012294" />
	<line stroke="black" stroke-width="1" x1="750.909902576697" x2="720.909902576697" y1="412.123106012294" y2="442.123106012294" />
	<g fill="black" font-family="Arial" font-size="15" stroke="none" transform="rotate(-45,773.409902576697,419.623106012294)">
		<text x="773.409902576697" y="424.623106012294" />
	</g>
	<g fill="black" font-family="Arial" font-size="15" stroke="none" transform="rotate(45,368.409902576697,59.6231060122938)">
		<text text-anchor="end" x="368.409902576697" y="64.6231060122938">R37J163</text>
	</g>
	<line stroke="black" stroke-width="1" x1="360.909902576697" x2="720.909902576697" y1="82.1231060122938" y2="442.123106012294" />
	<line stroke="black" stroke-width="1" x1="390.909902576697" x2="750.909902576697" y1="52.1231060122938" y2="412.123106012294" />
	<text fill="black" font-family="Arial" font-size="10" stroke="none" text-anchor="middle" x="165.909902576697" y="495.453106012294">Beta Diversity</text>
	<line stroke="black" stroke-width="0.5" x1="45.9099025766973" x2="285.909902576697" y1="472.123106012294" y2="472.123106012294" />
	<line stroke="black" stroke-width="0.5" x1="45.9099025766973" x2="45.9099025766973" y1="472.123106012294" y2="475.123106012294" />
	<text fill="black" font-family="Arial" font-size="10" stroke="none" text-anchor="middle" x="45.9099025766973" y="484.123106012294">0</text>
	<line stroke="black" stroke-width="0.5" x1="165.909902576697" x2="165.909902576697" y1="472.123106012294" y2="475.123106012294" />
	<text fill="black" font-family="Arial" font-size="10" stroke="none" text-anchor="middle" x="165.909902576697" y="484.123106012294">0.3</text>
	<line stroke="black" stroke-width="0.5" x1="285.909902576697" x2="285.909902576697" y1="472.123106012294" y2="475.123106012294" />
	<text fill="black" font-family="Arial" font-size="10" stroke="none" text-anchor="middle" x="285.909902576697" y="484.123106012294">0.6</text>
	<linearGradient gradientUnits="userSpaceOnUse" id="gradient_1" x1="45.9099025766973" x2="285.909902576697" y1="0" y2="0">
		<stop offset="0" stop-opacity="1" style="stop-color:rgb(255,0,0)" />
		<stop offset="100%" stop-opacity="1" style="stop-color:rgb(240,249,256)" />
	</linearGradient>
	<rect fill="url(#gradient_1)" height="20" width="240" x="45.9099025766973" y="452.123106012294" />
	<!-- 
	Generated using the Perl SVG Module V2.50
	by Ronan Oger
	Info: http://www.roitsystems.com/
 -->
</svg>