<?xml version="1.0" encoding="UTF-8" standalone="yes"?>
<!DOCTYPE svg PUBLIC "-//W3C//DTD SVG 1.0//EN" "http://www.w3.org/TR/2001/REC-SVG-20010904/DTD/svg10.dtd">
<svg height="450" width="650" xmlns="http://www.w3.org/2000/svg" xmlns:svg="http://www.w3.org/2000/svg" xmlns:xlink="http://www.w3.org/1999/xlink">
	<text fill="black" font-family="Arial" font-size="15" stroke="none" text-anchor="end" x="92.5" y="355">0</text>
	<line stroke="black" stroke-width="2" x1="100" x2="95" y1="350" y2="350" />
	<text fill="black" font-family="Arial" font-size="15" stroke="none" text-anchor="end" x="92.5" y="280">0.25</text>
	<line stroke="black" stroke-width="2" x1="100" x2="95" y1="275" y2="275" />
	<line stroke="black" stroke-dasharray="3 2" stroke-width="0.5" x1="100" x2="550" y1="275" y2="275" />
	<text fill="black" font-family="Arial" font-size="15" stroke="none" text-anchor="end" x="92.5" y="205">0.5</text>
	<line stroke="black" stroke-width="2" x1="100" x2="95" y1="200" y2="200" />
	<line stroke="black" stroke-dasharray="3 2" stroke-width="0.5" x1="100" x2="550" y1="200" y2="200" />
	<text fill="black" font-family="Arial" font-size="15" stroke="none" text-anchor="end" x="92.5" y="130">0.75</text>
	<line stroke="black" stroke-width="2" x1="100" x2="95" y1="125" y2="125" />
	<line stroke="black" stroke-dasharray="3 2" stroke-width="0.5" x1="100" x2="550" y1="125" y2="125" />
	<text fill="black" font-family="Arial" font-size="15" stroke="none" text-anchor="end" x="92.5" y="55">1</text>
	<line stroke="black" stroke-width="2" x1="100" x2="95" y1="50" y2="50" />
	<line stroke="black" stroke-width="1" x1="100" x2="100" y1="50" y2="350" />
	<text fill="black" font-family="Arial" font-size="15" stroke="none" text-anchor="middle" x="325" y="415.920090359058">Sample Name</text>
	<g transform="rotate(-90,47.5,200)">
		<text fill="black" font-family="Arial" font-size="15" stroke="none" text-anchor="middle" x="47.5" y="200">Relative Abundance</text>
	</g>
	<line stroke="black" stroke-width="2" x1="137.5" x2="137.5" y1="350" y2="352.7" />
	<g fill="black" font-family="Arial" font-size="13.5" stroke="none" text-anchor="end" transform="rotate(-45,118.75,359)">
		<text x="118.75" y="363.5">CK1</text>
	</g>
	<rect fill="crimson" height="286.57720100272" stroke="crimson" width="18.75" x="109.375" y="63.4227989972804" />
	<rect fill="blue" height="3.46851496829376" stroke="blue" width="18.75" x="109.375" y="59.9542840289866" />
	<rect fill="lightseagreen" height="9.95428402898652" stroke="lightseagreen" width="18.75" x="109.375" y="50.0000000000001" />
	<line stroke="black" stroke-width="2" x1="175" x2="175" y1="350" y2="352.7" />
	<g fill="black" font-family="Arial" font-size="13.5" stroke="none" text-anchor="end" transform="rotate(-45,156.25,359)">
		<text x="156.25" y="363.5">CK2</text>
	</g>
	<rect fill="crimson" height="287.369082131805" stroke="crimson" width="18.75" x="146.875" y="62.630917868195" />
	<rect fill="blue" height="4.42281951572283" stroke="blue" width="18.75" x="146.875" y="58.2080983524722" />
	<rect fill="lightseagreen" height="8.20809835247229" stroke="lightseagreen" width="18.75" x="146.875" y="49.9999999999999" />
	<line stroke="black" stroke-width="2" x1="212.5" x2="212.5" y1="350" y2="352.7" />
	<g fill="black" font-family="Arial" font-size="13.5" stroke="none" text-anchor="end" transform="rotate(-45,193.75,359)">
		<text x="193.75" y="363.5">CK3</text>
	</g>
	<rect fill="crimson" height="291.571201801513" stroke="crimson" width="18.75" x="184.375" y="58.4287981984865" />
	<rect fill="blue" height="1.62335885145015" stroke="blue" width="18.75" x="184.375" y="56.8054393470363" />
	<rect fill="lightseagreen" height="6.80543934703623" stroke="lightseagreen" width="18.75" x="184.375" y="50.0000000000001" />
	<line stroke="black" stroke-width="2" x1="250" x2="250" y1="350" y2="352.7" />
	<g fill="black" font-family="Arial" font-size="13.5" stroke="none" text-anchor="end" transform="rotate(-45,231.25,359)">
		<text x="231.25" y="363.5">JXBR161</text>
	</g>
	<rect fill="crimson" height="287.902679038501" stroke="crimson" width="18.75" x="221.875" y="62.0973209614994" />
	<rect fill="blue" height="1.41216124595626" stroke="blue" width="18.75" x="221.875" y="60.6851597155432" />
	<rect fill="lightseagreen" height="10.6851597155432" stroke="lightseagreen" width="18.75" x="221.875" y="50" />
	<line stroke="black" stroke-width="2" x1="287.5" x2="287.5" y1="350" y2="352.7" />
	<g fill="black" font-family="Arial" font-size="13.5" stroke="none" text-anchor="end" transform="rotate(-45,268.75,359)">
		<text x="268.75" y="363.5">JXBR162</text>
	</g>
	<rect fill="crimson" height="293.816908283911" stroke="crimson" width="18.75" x="259.375" y="56.1830917160891" />
	<rect fill="blue" height="1.60239308865099" stroke="blue" width="18.75" x="259.375" y="54.5806986274381" />
	<rect fill="lightseagreen" height="4.58069862743805" stroke="lightseagreen" width="18.75" x="259.375" y="50.0000000000001" />
	<line stroke="black" stroke-width="2" x1="325" x2="325" y1="350" y2="352.7" />
	<g fill="black" font-family="Arial" font-size="13.5" stroke="none" text-anchor="end" transform="rotate(-45,306.25,359)">
		<text x="306.25" y="363.5">JXBR163</text>
	</g>
	<rect fill="crimson" height="291.051788343291" stroke="crimson" width="18.75" x="296.875" y="58.948211656709" />
	<rect fill="blue" height="1.18862042088854" stroke="blue" width="18.75" x="296.875" y="57.7595912358205" />
	<rect fill="lightseagreen" height="7.75959123582057" stroke="lightseagreen" width="18.75" x="296.875" y="49.9999999999999" />
	<line stroke="black" stroke-width="2" x1="362.5" x2="362.5" y1="350" y2="352.7" />
	<g fill="black" font-family="Arial" font-size="13.5" stroke="none" text-anchor="end" transform="rotate(-45,343.75,359)">
		<text x="343.75" y="363.5">RW371</text>
	</g>
	<rect fill="crimson" height="295.308889231165" stroke="crimson" width="18.75" x="334.375" y="54.6911107688345" />
	<rect fill="blue" height="0.747188414728086" stroke="blue" width="18.75" x="334.375" y="53.9439223541064" />
	<rect fill="lightseagreen" height="3.94392235410627" stroke="lightseagreen" width="18.75" x="334.375" y="50.0000000000001" />
	<line stroke="black" stroke-width="2" x1="400" x2="400" y1="350" y2="352.7" />
	<g fill="black" font-family="Arial" font-size="13.5" stroke="none" text-anchor="end" transform="rotate(-45,381.25,359)">
		<text x="381.25" y="363.5">RW372</text>
	</g>
	<rect fill="crimson" height="294.643320622214" stroke="crimson" width="18.75" x="371.875" y="55.3566793777862" />
	<rect fill="blue" height="0.976301235849621" stroke="blue" width="18.75" x="371.875" y="54.3803781419366" />
	<rect fill="lightseagreen" height="4.38037814193645" stroke="lightseagreen" width="18.75" x="371.875" y="50.0000000000002" />
	<line stroke="black" stroke-width="2" x1="437.5" x2="437.5" y1="350" y2="352.7" />
	<g fill="black" font-family="Arial" font-size="13.5" stroke="none" text-anchor="end" transform="rotate(-45,418.75,359)">
		<text x="418.75" y="363.5">RW373</text>
	</g>
	<rect fill="crimson" height="290.85855427726" stroke="crimson" width="18.75" x="409.375" y="59.1414457227404" />
	<rect fill="blue" height="0.380815407703851" stroke="blue" width="18.75" x="409.375" y="58.7606303150366" />
	<rect fill="lightseagreen" height="8.76063031503642" stroke="lightseagreen" width="18.75" x="409.375" y="50.0000000000001" />
	<line stroke="black" stroke-width="2" x1="475" x2="475" y1="350" y2="352.7" />
	<g fill="black" font-family="Arial" font-size="13.5" stroke="none" text-anchor="end" transform="rotate(-45,456.25,359)">
		<text x="456.25" y="363.5">R37J161</text>
	</g>
	<rect fill="crimson" height="292.026374126007" stroke="crimson" width="18.75" x="446.875" y="57.9736258739927" />
	<rect fill="blue" height="1.04700733246178" stroke="blue" width="18.75" x="446.875" y="56.9266185415309" />
	<rect fill="lightseagreen" height="6.92661854153091" stroke="lightseagreen" width="18.75" x="446.875" y="50" />
	<line stroke="black" stroke-width="2" x1="512.5" x2="512.5" y1="350" y2="352.7" />
	<g fill="black" font-family="Arial" font-size="13.5" stroke="none" text-anchor="end" transform="rotate(-45,493.75,359)">
		<text x="493.75" y="363.5">R37J162</text>
	</g>
	<rect fill="crimson" height="289.838859555024" stroke="crimson" width="18.75" x="484.375" y="60.1611404449763" />
	<rect fill="blue" height="1.4219545752505" stroke="blue" width="18.75" x="484.375" y="58.7391858697258" />
	<rect fill="lightseagreen" height="8.73918586972572" stroke="lightseagreen" width="18.75" x="484.375" y="50.0000000000001" />
	<line stroke="black" stroke-width="2" x1="550" x2="550" y1="350" y2="352.7" />
	<g fill="black" font-family="Arial" font-size="13.5" stroke="none" text-anchor="end" transform="rotate(-45,531.25,359)">
		<text x="531.25" y="363.5">R37J163</text>
	</g>
	<rect fill="crimson" height="293.835837652565" stroke="crimson" width="18.75" x="521.875" y="56.1641623474346" />
	<rect fill="blue" height="1.00352193906584" stroke="blue" width="18.75" x="521.875" y="55.1606404083688" />
	<rect fill="lightseagreen" height="5.16064040836887" stroke="lightseagreen" width="18.75" x="521.875" y="49.9999999999999" />
	<line stroke="black" stroke-width="2" x1="100" x2="550" y1="350" y2="350" />
	<line stroke="black" stroke-width="2" x1="100" x2="100" y1="50" y2="352.7" />
	<rect fill="lightseagreen" height="8.4" stroke="lightseagreen" width="8.4" x="564.4" y="120.2" />
	<text fill="black" font-family="Arial" font-size="12" stroke="none" x="577" y="128.6">Others</text>
	<rect fill="blue" height="8.4" stroke="blue" width="8.4" x="564.4" y="134.6" />
	<text fill="black" font-family="Arial" font-size="12" stroke="none" x="577" y="143">Archaea</text>
	<rect fill="crimson" height="8.4" stroke="crimson" width="8.4" x="564.4" y="149" />
	<text fill="black" font-family="Arial" font-size="12" stroke="none" x="577" y="157.4">Bacteria</text>
	<!-- 
	Generated using the Perl SVG Module V2.64
	by Ronan Oger
	Info: http://www.roitsystems.com/
 -->
</svg>