<?xml version="1.0" encoding="UTF-8" standalone="yes"?>
<!DOCTYPE svg PUBLIC "-//W3C//DTD SVG 1.0//EN" "http://www.w3.org/TR/2001/REC-SVG-20010904/DTD/svg10.dtd">
<svg height="450" width="754" xmlns="http://www.w3.org/2000/svg" xmlns:svg="http://www.w3.org/2000/svg" xmlns:xlink="http://www.w3.org/1999/xlink">
	<text fill="black" font-family="Arial" font-size="15" stroke="none" text-anchor="end" x="92.5" y="355">0</text>
	<line stroke="black" stroke-width="2" x1="100" x2="95" y1="350" y2="350" />
	<text fill="black" font-family="Arial" font-size="15" stroke="none" text-anchor="end" x="92.5" y="280">0.25</text>
	<line stroke="black" stroke-width="2" x1="100" x2="95" y1="275" y2="275" />
	<line stroke="black" stroke-dasharray="3 2" stroke-width="0.5" x1="100" x2="550" y1="275" y2="275" />
	<text fill="black" font-family="Arial" font-size="15" stroke="none" text-anchor="end" x="92.5" y="205">0.5</text>
	<line stroke="black" stroke-width="2" x1="100" x2="95" y1="200" y2="200" />
	<line stroke="black" stroke-dasharray="3 2" stroke-width="0.5" x1="100" x2="550" y1="200" y2="200" />
	<text fill="black" font-family="Arial" font-size="15" stroke="none" text-anchor="end" x="92.5" y="130">0.75</text>
	<line stroke="black" stroke-width="2" x1="100" x2="95" y1="125" y2="125" />
	<line stroke="black" stroke-dasharray="3 2" stroke-width="0.5" x1="100" x2="550" y1="125" y2="125" />
	<text fill="black" font-family="Arial" font-size="15" stroke="none" text-anchor="end" x="92.5" y="55">1</text>
	<line stroke="black" stroke-width="2" x1="100" x2="95" y1="50" y2="50" />
	<line stroke="black" stroke-width="1" x1="100" x2="100" y1="50" y2="350" />
	<text fill="black" font-family="Arial" font-size="15" stroke="none" text-anchor="middle" x="325" y="415.920090359058">Sample Name</text>
	<g transform="rotate(-90,47.5,200)">
		<text fill="black" font-family="Arial" font-size="15" stroke="none" text-anchor="middle" x="47.5" y="200">Relative Abundance</text>
	</g>
	<line stroke="black" stroke-width="2" x1="137.5" x2="137.5" y1="350" y2="352.7" />
	<g fill="black" font-family="Arial" font-size="13.5" stroke="none" text-anchor="end" transform="rotate(-45,118.75,359)">
		<text x="118.75" y="363.5">CK1</text>
	</g>
	<rect fill="crimson" height="5.1437841026397" stroke="crimson" width="18.75" x="109.375" y="344.85621589736" />
	<rect fill="blue" height="0.471906798407313" stroke="blue" width="18.75" x="109.375" y="344.384309098953" />
	<rect fill="lightseagreen" height="20.9585606842652" stroke="lightseagreen" width="18.75" x="109.375" y="323.425748414688" />
	<rect fill="orange" height="7.10514673352007" stroke="orange" width="18.75" x="109.375" y="316.320601681168" />
	<rect fill="mediumpurple" height="1.83748709629849" stroke="mediumpurple" width="18.75" x="109.375" y="314.483114584869" />
	<rect fill="palegreen" height="11.5705648134492" stroke="palegreen" width="18.75" x="109.375" y="302.91254977142" />
	<rect fill="lightcoral" height="14.018581330187" stroke="lightcoral" width="18.75" x="109.375" y="288.893968441233" />
	<rect fill="dodgerblue" height="14.266332399351" stroke="dodgerblue" width="18.75" x="109.375" y="274.627636041882" />
	<rect fill="lawngreen" height="1.59858427960478" stroke="lawngreen" width="18.75" x="109.375" y="273.029051762277" />
	<rect fill="olive" height="8.47957528388139" stroke="olive" width="18.75" x="109.375" y="264.549476478396" />
	<rect fill="yellow" height="214.549476478396" stroke="yellow" width="18.75" x="109.375" y="49.9999999999999" />
	<line stroke="black" stroke-width="2" x1="175" x2="175" y1="350" y2="352.7" />
	<g fill="black" font-family="Arial" font-size="13.5" stroke="none" text-anchor="end" transform="rotate(-45,156.25,359)">
		<text x="156.25" y="363.5">CK2</text>
	</g>
	<rect fill="crimson" height="5.68838534100492" stroke="crimson" width="18.75" x="146.875" y="344.311614658995" />
	<rect fill="blue" height="0.559513312229997" stroke="blue" width="18.75" x="146.875" y="343.752101346765" />
	<rect fill="lightseagreen" height="16.4942240717599" stroke="lightseagreen" width="18.75" x="146.875" y="327.257877275005" />
	<rect fill="orange" height="7.97782246553781" stroke="orange" width="18.75" x="146.875" y="319.280054809467" />
	<rect fill="mediumpurple" height="3.22576552459134" stroke="mediumpurple" width="18.75" x="146.875" y="316.054289284876" />
	<rect fill="palegreen" height="9.63923444369019" stroke="palegreen" width="18.75" x="146.875" y="306.415054841186" />
	<rect fill="lightcoral" height="14.3361012960156" stroke="lightcoral" width="18.75" x="146.875" y="292.07895354517" />
	<rect fill="dodgerblue" height="12.6842048503841" stroke="dodgerblue" width="18.75" x="146.875" y="279.394748694786" />
	<rect fill="lawngreen" height="5.56468341823302" stroke="lawngreen" width="18.75" x="146.875" y="273.830065276553" />
	<rect fill="olive" height="10.756357961646" stroke="olive" width="18.75" x="146.875" y="263.073707314907" />
	<rect fill="yellow" height="213.073707314907" stroke="yellow" width="18.75" x="146.875" y="50" />
	<line stroke="black" stroke-width="2" x1="212.5" x2="212.5" y1="350" y2="352.7" />
	<g fill="black" font-family="Arial" font-size="13.5" stroke="none" text-anchor="end" transform="rotate(-45,193.75,359)">
		<text x="193.75" y="363.5">CK3</text>
	</g>
	<rect fill="crimson" height="10.9834770845227" stroke="crimson" width="18.75" x="184.375" y="339.016522915477" />
	<rect fill="blue" height="0.222859957930296" stroke="blue" width="18.75" x="184.375" y="338.793662957547" />
	<rect fill="lightseagreen" height="10.8450693211765" stroke="lightseagreen" width="18.75" x="184.375" y="327.948593636371" />
	<rect fill="orange" height="8.08160584284081" stroke="orange" width="18.75" x="184.375" y="319.86698779353" />
	<rect fill="mediumpurple" height="4.33286676102372" stroke="mediumpurple" width="18.75" x="184.375" y="315.534121032506" />
	<rect fill="palegreen" height="14.0049889351988" stroke="palegreen" width="18.75" x="184.375" y="301.529132097307" />
	<rect fill="lightcoral" height="10.8028432238845" stroke="lightcoral" width="18.75" x="184.375" y="290.726288873423" />
	<rect fill="dodgerblue" height="9.71434827146694" stroke="dodgerblue" width="18.75" x="184.375" y="281.011940601956" />
	<rect fill="lawngreen" height="6.45355520280258" stroke="lawngreen" width="18.75" x="184.375" y="274.558385399153" />
	<rect fill="olive" height="8.79944949680574" stroke="olive" width="18.75" x="184.375" y="265.758935902348" />
	<rect fill="yellow" height="215.758935902348" stroke="yellow" width="18.75" x="184.375" y="50.0000000000001" />
	<line stroke="black" stroke-width="2" x1="250" x2="250" y1="350" y2="352.7" />
	<g fill="black" font-family="Arial" font-size="13.5" stroke="none" text-anchor="end" transform="rotate(-45,231.25,359)">
		<text x="231.25" y="363.5">JXBR161</text>
	</g>
	<rect fill="crimson" height="11.1268233151892" stroke="crimson" width="18.75" x="221.875" y="338.873176684811" />
	<rect fill="blue" height="8.16109098657576" stroke="blue" width="18.75" x="221.875" y="330.712085698235" />
	<rect fill="lightseagreen" height="0.232454526083335" stroke="lightseagreen" width="18.75" x="221.875" y="330.479631172152" />
	<rect fill="orange" height="15.1540979795831" stroke="orange" width="18.75" x="221.875" y="315.325533192569" />
	<rect fill="mediumpurple" height="3.55461712802433" stroke="mediumpurple" width="18.75" x="221.875" y="311.770916064544" />
	<rect fill="palegreen" height="10.8827460628016" stroke="palegreen" width="18.75" x="221.875" y="300.888170001743" />
	<rect fill="lightcoral" height="11.4290141990976" stroke="lightcoral" width="18.75" x="221.875" y="289.459155802645" />
	<rect fill="dodgerblue" height="2.09790209790209" stroke="dodgerblue" width="18.75" x="221.875" y="287.361253704743" />
	<rect fill="lawngreen" height="9.00955000677996" stroke="lawngreen" width="18.75" x="221.875" y="278.351703697963" />
	<rect fill="olive" height="4.48443523235766" stroke="olive" width="18.75" x="221.875" y="273.867268465605" />
	<rect fill="yellow" height="223.867268465605" stroke="yellow" width="18.75" x="221.875" y="49.9999999999999" />
	<line stroke="black" stroke-width="2" x1="287.5" x2="287.5" y1="350" y2="352.7" />
	<g fill="black" font-family="Arial" font-size="13.5" stroke="none" text-anchor="end" transform="rotate(-45,268.75,359)">
		<text x="268.75" y="363.5">JXBR162</text>
	</g>
	<rect fill="crimson" height="7.70204456957322" stroke="crimson" width="18.75" x="259.375" y="342.297955430427" />
	<rect fill="blue" height="22.8813559322034" stroke="blue" width="18.75" x="259.375" y="319.416599498223" />
	<rect fill="lightseagreen" height="0.233292086232929" stroke="lightseagreen" width="18.75" x="259.375" y="319.18330741199" />
	<rect fill="orange" height="14.2206000885486" stroke="orange" width="18.75" x="259.375" y="304.962707323442" />
	<rect fill="mediumpurple" height="2.14049746273571" stroke="mediumpurple" width="18.75" x="259.375" y="302.822209860706" />
	<rect fill="palegreen" height="8.4053265521586" stroke="palegreen" width="18.75" x="259.375" y="294.416883308548" />
	<rect fill="lightcoral" height="14.9528307241702" stroke="lightcoral" width="18.75" x="259.375" y="279.464052584377" />
	<rect fill="dodgerblue" height="1.44232406598023" stroke="dodgerblue" width="18.75" x="259.375" y="278.021728518397" />
	<rect fill="lawngreen" height="6.11497723841199" stroke="lawngreen" width="18.75" x="259.375" y="271.906751279985" />
	<rect fill="olive" height="5.01152269914972" stroke="olive" width="18.75" x="259.375" y="266.895228580835" />
	<rect fill="yellow" height="216.895228580836" stroke="yellow" width="18.75" x="259.375" y="49.9999999999998" />
	<line stroke="black" stroke-width="2" x1="325" x2="325" y1="350" y2="352.7" />
	<g fill="black" font-family="Arial" font-size="13.5" stroke="none" text-anchor="end" transform="rotate(-45,306.25,359)">
		<text x="306.25" y="363.5">JXBR163</text>
	</g>
	<rect fill="crimson" height="5.81319823330734" stroke="crimson" width="18.75" x="296.875" y="344.186801766693" />
	<rect fill="blue" height="0.848705291417682" stroke="blue" width="18.75" x="296.875" y="343.338096475275" />
	<rect fill="lightseagreen" height="0.199185935740885" stroke="lightseagreen" width="18.75" x="296.875" y="343.138910539534" />
	<rect fill="orange" height="14.2439594699922" stroke="orange" width="18.75" x="296.875" y="328.894951069542" />
	<rect fill="mediumpurple" height="2.95964319736728" stroke="mediumpurple" width="18.75" x="296.875" y="325.935307872175" />
	<rect fill="palegreen" height="8.49354810773358" stroke="palegreen" width="18.75" x="296.875" y="317.441759764441" />
	<rect fill="lightcoral" height="10.3511734649692" stroke="lightcoral" width="18.75" x="296.875" y="307.090586299472" />
	<rect fill="dodgerblue" height="2.38157097081493" stroke="dodgerblue" width="18.75" x="296.875" y="304.709015328657" />
	<rect fill="lawngreen" height="12.6093357582056" stroke="lawngreen" width="18.75" x="296.875" y="292.099679570451" />
	<rect fill="olive" height="7.23131549320167" stroke="olive" width="18.75" x="296.875" y="284.86836407725" />
	<rect fill="yellow" height="234.86836407725" stroke="yellow" width="18.75" x="296.875" y="50.0000000000001" />
	<line stroke="black" stroke-width="2" x1="362.5" x2="362.5" y1="350" y2="352.7" />
	<g fill="black" font-family="Arial" font-size="13.5" stroke="none" text-anchor="end" transform="rotate(-45,343.75,359)">
		<text x="343.75" y="363.5">RW371</text>
	</g>
	<rect fill="crimson" height="28.8599599445388" stroke="crimson" width="18.75" x="334.375" y="321.140040055461" />
	<rect fill="blue" height="0.0754891388075796" stroke="blue" width="18.75" x="334.375" y="321.064550916654" />
	<rect fill="lightseagreen" height="13.8607302418731" stroke="lightseagreen" width="18.75" x="334.375" y="307.20382067478" />
	<rect fill="orange" height="18.5533816052993" stroke="orange" width="18.75" x="334.375" y="288.650439069481" />
	<rect fill="mediumpurple" height="12.1090741026034" stroke="mediumpurple" width="18.75" x="334.375" y="276.541364966878" />
	<rect fill="palegreen" height="17.6767832383297" stroke="palegreen" width="18.75" x="334.375" y="258.864581728548" />
	<rect fill="lightcoral" height="6.30411338776758" stroke="lightcoral" width="18.75" x="334.375" y="252.56046834078" />
	<rect fill="dodgerblue" height="3.78986288707443" stroke="dodgerblue" width="18.75" x="334.375" y="248.770605453706" />
	<rect fill="lawngreen" height="9.90140194114923" stroke="lawngreen" width="18.75" x="334.375" y="238.869203512557" />
	<rect fill="olive" height="1.41734709597905" stroke="olive" width="18.75" x="334.375" y="237.451856416578" />
	<rect fill="yellow" height="187.451856416578" stroke="yellow" width="18.75" x="334.375" y="50.0000000000001" />
	<line stroke="black" stroke-width="2" x1="400" x2="400" y1="350" y2="352.7" />
	<g fill="black" font-family="Arial" font-size="13.5" stroke="none" text-anchor="end" transform="rotate(-45,381.25,359)">
		<text x="381.25" y="363.5">RW372</text>
	</g>
	<rect fill="crimson" height="30.8742787549659" stroke="crimson" width="18.75" x="371.875" y="319.125721245034" />
	<rect fill="blue" height="0.207638708646954" stroke="blue" width="18.75" x="371.875" y="318.918082536387" />
	<rect fill="lightseagreen" height="8.64495777347421" stroke="lightseagreen" width="18.75" x="371.875" y="310.273124762913" />
	<rect fill="orange" height="19.6478128057176" stroke="orange" width="18.75" x="371.875" y="290.625311957195" />
	<rect fill="mediumpurple" height="14.0096232555352" stroke="mediumpurple" width="18.75" x="371.875" y="276.61568870166" />
	<rect fill="palegreen" height="16.7288917283923" stroke="palegreen" width="18.75" x="371.875" y="259.886796973268" />
	<rect fill="lightcoral" height="7.64869127717778" stroke="lightcoral" width="18.75" x="371.875" y="252.23810569609" />
	<rect fill="dodgerblue" height="4.15277417293908" stroke="dodgerblue" width="18.75" x="371.875" y="248.085331523151" />
	<rect fill="lawngreen" height="5.70008185756785" stroke="lawngreen" width="18.75" x="371.875" y="242.385249665583" />
	<rect fill="olive" height="2.79313993651047" stroke="olive" width="18.75" x="371.875" y="239.592109729073" />
	<rect fill="yellow" height="189.592109729073" stroke="yellow" width="18.75" x="371.875" y="49.9999999999998" />
	<line stroke="black" stroke-width="2" x1="437.5" x2="437.5" y1="350" y2="352.7" />
	<g fill="black" font-family="Arial" font-size="13.5" stroke="none" text-anchor="end" transform="rotate(-45,418.75,359)">
		<text x="418.75" y="363.5">RW373</text>
	</g>
	<rect fill="crimson" height="20.9654827413707" stroke="crimson" width="18.75" x="409.375" y="329.034517258629" />
	<rect fill="blue" height="0.245747873936969" stroke="blue" width="18.75" x="409.375" y="328.788769384692" />
	<rect fill="lightseagreen" height="16.0880440220106" stroke="lightseagreen" width="18.75" x="409.375" y="312.700725362682" />
	<rect fill="orange" height="17.8570535267629" stroke="orange" width="18.75" x="409.375" y="294.843671835919" />
	<rect fill="mediumpurple" height="18.3523011505749" stroke="mediumpurple" width="18.75" x="409.375" y="276.491370685344" />
	<rect fill="palegreen" height="17.2342421210601" stroke="palegreen" width="18.75" x="409.375" y="259.257128564284" />
	<rect fill="lightcoral" height="9.36468234117066" stroke="lightcoral" width="18.75" x="409.375" y="249.892446223113" />
	<rect fill="dodgerblue" height="4.21335667833918" stroke="dodgerblue" width="18.75" x="409.375" y="245.679089544774" />
	<rect fill="lawngreen" height="9.27651325662834" stroke="lawngreen" width="18.75" x="409.375" y="236.402576288146" />
	<rect fill="olive" height="5.02188594297153" stroke="olive" width="18.75" x="409.375" y="231.380690345174" />
	<rect fill="yellow" height="181.380690345174" stroke="yellow" width="18.75" x="409.375" y="49.9999999999999" />
	<line stroke="black" stroke-width="2" x1="475" x2="475" y1="350" y2="352.7" />
	<g fill="black" font-family="Arial" font-size="13.5" stroke="none" text-anchor="end" transform="rotate(-45,456.25,359)">
		<text x="456.25" y="363.5">R37J161</text>
	</g>
	<rect fill="crimson" height="16.1638151537542" stroke="crimson" width="18.75" x="446.875" y="333.836184846246" />
	<rect fill="blue" height="0.521798442562383" stroke="blue" width="18.75" x="446.875" y="333.314386403683" />
	<rect fill="lightseagreen" height="13.5173080202352" stroke="lightseagreen" width="18.75" x="446.875" y="319.797078383448" />
	<rect fill="orange" height="13.125106576479" stroke="orange" width="18.75" x="446.875" y="306.671971806969" />
	<rect fill="mediumpurple" height="13.3280281930311" stroke="mediumpurple" width="18.75" x="446.875" y="293.343943613938" />
	<rect fill="palegreen" height="10.7224464275563" stroke="palegreen" width="18.75" x="446.875" y="282.621497186382" />
	<rect fill="lightcoral" height="10.3967487068719" stroke="lightcoral" width="18.75" x="446.875" y="272.22474847951" />
	<rect fill="dodgerblue" height="5.72273063150112" stroke="dodgerblue" width="18.75" x="446.875" y="266.502017848009" />
	<rect fill="lawngreen" height="9.83573011993401" stroke="lawngreen" width="18.75" x="446.875" y="256.666287728075" />
	<rect fill="olive" height="5.71079406582159" stroke="olive" width="18.75" x="446.875" y="250.955493662253" />
	<rect fill="yellow" height="200.955493662253" stroke="yellow" width="18.75" x="446.875" y="50.0000000000001" />
	<line stroke="black" stroke-width="2" x1="512.5" x2="512.5" y1="350" y2="352.7" />
	<g fill="black" font-family="Arial" font-size="13.5" stroke="none" text-anchor="end" transform="rotate(-45,493.75,359)">
		<text x="493.75" y="363.5">R37J162</text>
	</g>
	<rect fill="crimson" height="16.5059104038957" stroke="crimson" width="18.75" x="484.375" y="333.494089596104" />
	<rect fill="blue" height="0.196653292321878" stroke="blue" width="18.75" x="484.375" y="333.297436303782" />
	<rect fill="lightseagreen" height="14.0315365609447" stroke="lightseagreen" width="18.75" x="484.375" y="319.265899742838" />
	<rect fill="orange" height="13.13903315733" stroke="orange" width="18.75" x="484.375" y="306.126866585508" />
	<rect fill="mediumpurple" height="12.9942444695765" stroke="mediumpurple" width="18.75" x="484.375" y="293.132622115931" />
	<rect fill="palegreen" height="10.4355906442016" stroke="palegreen" width="18.75" x="484.375" y="282.69703147173" />
	<rect fill="lightcoral" height="6.94553496178584" stroke="lightcoral" width="18.75" x="484.375" y="275.751496509944" />
	<rect fill="dodgerblue" height="4.24425347384802" stroke="dodgerblue" width="18.75" x="484.375" y="271.507243036096" />
	<rect fill="lawngreen" height="7.04710314573234" stroke="lawngreen" width="18.75" x="484.375" y="264.460139890363" />
	<rect fill="olive" height="4.11891401280768" stroke="olive" width="18.75" x="484.375" y="260.341225877556" />
	<rect fill="yellow" height="210.341225877556" stroke="yellow" width="18.75" x="484.375" y="50.0000000000001" />
	<line stroke="black" stroke-width="2" x1="550" x2="550" y1="350" y2="352.7" />
	<g fill="black" font-family="Arial" font-size="13.5" stroke="none" text-anchor="end" transform="rotate(-45,531.25,359)">
		<text x="531.25" y="363.5">R37J163</text>
	</g>
	<rect fill="crimson" height="22.661140246997" stroke="crimson" width="18.75" x="521.875" y="327.338859753003" />
	<rect fill="blue" height="0.433706033435352" stroke="blue" width="18.75" x="521.875" y="326.905153719568" />
	<rect fill="lightseagreen" height="11.5970225004228" stroke="lightseagreen" width="18.75" x="521.875" y="315.308131219145" />
	<rect fill="orange" height="14.0816044047306" stroke="orange" width="18.75" x="521.875" y="301.226526814414" />
	<rect fill="mediumpurple" height="9.6960981836637" stroke="mediumpurple" width="18.75" x="521.875" y="291.530428630751" />
	<rect fill="palegreen" height="9.59228556927759" stroke="palegreen" width="18.75" x="521.875" y="281.938143061473" />
	<rect fill="lightcoral" height="10.4573906891619" stroke="lightcoral" width="18.75" x="521.875" y="271.480752372311" />
	<rect fill="dodgerblue" height="4.39242706202613" stroke="dodgerblue" width="18.75" x="521.875" y="267.088325310285" />
	<rect fill="lawngreen" height="5.79966472370463" stroke="lawngreen" width="18.75" x="521.875" y="261.28866058658" />
	<rect fill="olive" height="6.18031097645376" stroke="olive" width="18.75" x="521.875" y="255.108349610127" />
	<rect fill="yellow" height="205.108349610127" stroke="yellow" width="18.75" x="521.875" y="50" />
	<line stroke="black" stroke-width="2" x1="100" x2="550" y1="350" y2="350" />
	<line stroke="black" stroke-width="2" x1="100" x2="100" y1="50" y2="352.7" />
	<rect fill="yellow" height="7" stroke="yellow" width="7" x="562" y="97" />
	<text fill="black" font-family="Arial" font-size="10" stroke="none" x="572.5" y="104">Others</text>
	<rect fill="olive" height="7" stroke="olive" width="7" x="562" y="109" />
	<text fill="black" font-family="Arial" font-size="10" stroke="none" x="572.5" y="116">Anaerolineaceae</text>
	<rect fill="lawngreen" height="7" stroke="lawngreen" width="7" x="562" y="121" />
	<text fill="black" font-family="Arial" font-size="10" stroke="none" x="572.5" y="128">Micrococcaceae</text>
	<rect fill="dodgerblue" height="7" stroke="dodgerblue" width="7" x="562" y="133" />
	<text fill="black" font-family="Arial" font-size="10" stroke="none" x="572.5" y="140">Unknown Family</text>
	<rect fill="lightcoral" height="7" stroke="lightcoral" width="7" x="562" y="145" />
	<text fill="black" font-family="Arial" font-size="10" stroke="none" x="572.5" y="152">Nitrosomonadaceae</text>
	<rect fill="palegreen" height="7" stroke="palegreen" width="7" x="562" y="157" />
	<text fill="black" font-family="Arial" font-size="10" stroke="none" x="572.5" y="164">Chitinophagaceae</text>
	<rect fill="mediumpurple" height="7" stroke="mediumpurple" width="7" x="562" y="169" />
	<text fill="black" font-family="Arial" font-size="10" stroke="none" x="572.5" y="176">Oxalobacteraceae</text>
	<rect fill="orange" height="7" stroke="orange" width="7" x="562" y="181" />
	<text fill="black" font-family="Arial" font-size="10" stroke="none" x="572.5" y="188">Gemmatimonadaceae</text>
	<rect fill="lightseagreen" height="7" stroke="lightseagreen" width="7" x="562" y="193" />
	<text fill="black" font-family="Arial" font-size="10" stroke="none" x="572.5" y="200">Acidobacteriaceae (Subgroup 1)</text>
	<rect fill="blue" height="7" stroke="blue" width="7" x="562" y="205" />
	<text fill="black" font-family="Arial" font-size="10" stroke="none" x="572.5" y="212">Pseudomonadaceae</text>
	<rect fill="crimson" height="7" stroke="crimson" width="7" x="562" y="217" />
	<text fill="black" font-family="Arial" font-size="10" stroke="none" x="572.5" y="224">Sphingomonadaceae</text>
	<!-- 
	Generated using the Perl SVG Module V2.64
	by Ronan Oger
	Info: http://www.roitsystems.com/
 -->
</svg>