<?xml version="1.0" encoding="UTF-8" standalone="yes"?>
<!DOCTYPE svg PUBLIC "-//W3C//DTD SVG 1.0//EN" "http://www.w3.org/TR/2001/REC-SVG-20010904/DTD/svg10.dtd">
<svg height="377" width="870" xmlns="http://www.w3.org/2000/svg" xmlns:svg="http://www.w3.org/2000/svg" xmlns:xlink="http://www.w3.org/1999/xlink">
	<path d="M 40 134.65 L 40 65.15 A 13.9 13.9 0 0 1 53.9,51.25 L 132.85 51.25" style="fill: none; stroke: black; stroke-width: 1.5" />
	<path d="M 40 134.65 L 40 206.3 A 11.74 11.74 0 0 0 51.74,218.05 L 110.45 218.05" style="fill: none; stroke: black; stroke-width: 1.5" />
	<path d="M 110.45 218.05 L 110.45 148.36 A 7.26 7.26 0 0 1 117.71,141.09 L 154.04 141.09" style="fill: none; stroke: black; stroke-width: 1.5" />
	<path d="M 110.45 218.05 L 110.45 288.62 A 6.38 6.38 0 0 0 116.83,295 L 148.73 295" style="fill: none; stroke: black; stroke-width: 1.5" />
	<path d="M 154.04 141.09 L 154.04 113.1 A 5.6 5.6 0 0 1 159.64,107.5 L 240 107.5" style="fill: none; stroke: black; stroke-width: 1.5" />
	<text fill="black" font-family="Arial" font-size="15" stroke="none" text-anchor="start" x="247.5" y="112.5">CK3</text>
	<path d="M 154.04 141.09 L 154.04 171.87 A 2.81 2.81 0 0 0 156.85,174.69 L 170.92 174.69" style="fill: none; stroke: black; stroke-width: 1.5" />
	<path d="M 170.92 174.69 L 170.92 147.23 A 2.23 2.23 0 0 1 173.15,145 L 184.33 145" style="fill: none; stroke: black; stroke-width: 1.5" />
	<path d="M 170.92 174.69 L 170.92 203.6 A 0.78 0.78 0 0 0 171.7,204.38 L 175.57 204.38" style="fill: none; stroke: black; stroke-width: 1.5" />
	<path d="M 175.57 204.38 L 175.57 186.15 A 3.65 3.65 0 0 1 179.22,182.5 L 240 182.5" style="fill: none; stroke: black; stroke-width: 1.5" />
	<text fill="black" font-family="Arial" font-size="15" stroke="none" text-anchor="start" x="247.5" y="187.5">RW371</text>
	<path d="M 175.57 204.38 L 175.57 225.61 A 0.64 0.64 0 0 0 176.21,226.25 L 179.41 226.25" style="fill: none; stroke: black; stroke-width: 1.5" />
	<path d="M 132.85 51.25 L 132.85 35.63 A 3.13 3.13 0 0 1 135.98,32.5 L 240 32.5" style="fill: none; stroke: black; stroke-width: 1.5" />
	<text fill="black" font-family="Arial" font-size="15" stroke="none" text-anchor="start" x="247.5" y="37.5">JXBR163</text>
	<path d="M 132.85 51.25 L 132.85 67.41 A 2.59 2.59 0 0 0 135.44,70 L 148.41 70" style="fill: none; stroke: black; stroke-width: 1.5" />
	<path d="M 179.41 226.25 L 179.41 210.63 A 3.13 3.13 0 0 1 182.54,207.5 L 240 207.5" style="fill: none; stroke: black; stroke-width: 1.5" />
	<text fill="black" font-family="Arial" font-size="15" stroke="none" text-anchor="start" x="247.5" y="212.5">R37J162</text>
	<path d="M 179.41 226.25 L 179.41 243.58 A 1.42 1.42 0 0 0 180.83,245 L 187.95 245" style="fill: none; stroke: black; stroke-width: 1.5" />
	<path d="M 148.41 70 L 148.41 59.58 A 2.08 2.08 0 0 1 150.49,57.5 L 240 57.5" style="fill: none; stroke: black; stroke-width: 1.5" />
	<text fill="black" font-family="Arial" font-size="15" stroke="none" text-anchor="start" x="247.5" y="62.5">JXBR161</text>
	<path d="M 148.41 70 L 148.41 80.42 A 2.08 2.08 0 0 0 150.49,82.5 L 240 82.5" style="fill: none; stroke: black; stroke-width: 1.5" />
	<text fill="black" font-family="Arial" font-size="15" stroke="none" text-anchor="start" x="247.5" y="87.5">JXBR162</text>
	<path d="M 184.33 145 L 184.33 134.58 A 2.08 2.08 0 0 1 186.41,132.5 L 240 132.5" style="fill: none; stroke: black; stroke-width: 1.5" />
	<text fill="black" font-family="Arial" font-size="15" stroke="none" text-anchor="start" x="247.5" y="137.5">RW372</text>
	<path d="M 184.33 145 L 184.33 155.42 A 2.08 2.08 0 0 0 186.41,157.5 L 240 157.5" style="fill: none; stroke: black; stroke-width: 1.5" />
	<text fill="black" font-family="Arial" font-size="15" stroke="none" text-anchor="start" x="247.5" y="162.5">R37J163</text>
	<path d="M 187.95 245 L 187.95 234.58 A 2.08 2.08 0 0 1 190.03,232.5 L 240 232.5" style="fill: none; stroke: black; stroke-width: 1.5" />
	<text fill="black" font-family="Arial" font-size="15" stroke="none" text-anchor="start" x="247.5" y="237.5">RW373</text>
	<path d="M 187.95 245 L 187.95 255.42 A 2.08 2.08 0 0 0 190.03,257.5 L 240 257.5" style="fill: none; stroke: black; stroke-width: 1.5" />
	<text fill="black" font-family="Arial" font-size="15" stroke="none" text-anchor="start" x="247.5" y="262.5">R37J161</text>
	<path d="M 148.73 295 L 148.73 284.58 A 2.08 2.08 0 0 1 150.81,282.5 L 240 282.5" style="fill: none; stroke: black; stroke-width: 1.5" />
	<text fill="black" font-family="Arial" font-size="15" stroke="none" text-anchor="start" x="247.5" y="287.5">CK1</text>
	<path d="M 148.73 295 L 148.73 305.42 A 2.08 2.08 0 0 0 150.81,307.5 L 240 307.5" style="fill: none; stroke: black; stroke-width: 1.5" />
	<text fill="black" font-family="Arial" font-size="15" stroke="none" text-anchor="start" x="247.5" y="312.5">CK2</text>
	<text fill="black" font-family="Arial" font-size="12" stroke="none" text-anchor="start" x="40" y="340">Weighted Unifrac Distance</text>
	<line stroke="black" stroke-width="1.5" x1="40" x2="240" y1="355" y2="355" />
	<line stroke="black" stroke-width="1.5" x1="40" x2="40" y1="355" y2="347.5" />
	<text fill="black" font-family="Arial" font-size="15" stroke="none" text-anchor="middle" x="40" y="370">0</text>
	<line stroke="black" stroke-width="1.5" x1="44.0861003315874" x2="44.0861003315874" y1="355" y2="351.25" />
	<line stroke="black" stroke-width="1.5" x1="48.1722006631748" x2="48.1722006631748" y1="355" y2="351.25" />
	<line stroke="black" stroke-width="1.5" x1="52.2583009947622" x2="52.2583009947622" y1="355" y2="351.25" />
	<line stroke="black" stroke-width="1.5" x1="56.3444013263496" x2="56.3444013263496" y1="355" y2="351.25" />
	<line stroke="black" stroke-width="1.5" x1="60.430501657937" x2="60.430501657937" y1="355" y2="347.5" />
	<line stroke="black" stroke-width="1.5" x1="64.5166019895244" x2="64.5166019895244" y1="355" y2="351.25" />
	<line stroke="black" stroke-width="1.5" x1="68.6027023211118" x2="68.6027023211118" y1="355" y2="351.25" />
	<line stroke="black" stroke-width="1.5" x1="72.6888026526992" x2="72.6888026526992" y1="355" y2="351.25" />
	<line stroke="black" stroke-width="1.5" x1="76.7749029842866" x2="76.7749029842866" y1="355" y2="351.25" />
	<line stroke="black" stroke-width="1.5" x1="80.861003315874" x2="80.861003315874" y1="355" y2="347.5" />
	<text fill="black" font-family="Arial" font-size="15" stroke="none" text-anchor="middle" x="80.861003315874" y="370">0.01</text>
	<line stroke="black" stroke-width="1.5" x1="84.9471036474614" x2="84.9471036474614" y1="355" y2="351.25" />
	<line stroke="black" stroke-width="1.5" x1="89.0332039790488" x2="89.0332039790488" y1="355" y2="351.25" />
	<line stroke="black" stroke-width="1.5" x1="93.1193043106362" x2="93.1193043106362" y1="355" y2="351.25" />
	<line stroke="black" stroke-width="1.5" x1="97.2054046422236" x2="97.2054046422236" y1="355" y2="351.25" />
	<line stroke="black" stroke-width="1.5" x1="101.291504973811" x2="101.291504973811" y1="355" y2="347.5" />
	<line stroke="black" stroke-width="1.5" x1="105.377605305398" x2="105.377605305398" y1="355" y2="351.25" />
	<line stroke="black" stroke-width="1.5" x1="109.463705636986" x2="109.463705636986" y1="355" y2="351.25" />
	<line stroke="black" stroke-width="1.5" x1="113.549805968573" x2="113.549805968573" y1="355" y2="351.25" />
	<line stroke="black" stroke-width="1.5" x1="117.635906300161" x2="117.635906300161" y1="355" y2="351.25" />
	<line stroke="black" stroke-width="1.5" x1="121.722006631748" x2="121.722006631748" y1="355" y2="347.5" />
	<text fill="black" font-family="Arial" font-size="15" stroke="none" text-anchor="middle" x="121.722006631748" y="370">0.02</text>
	<line stroke="black" stroke-width="1.5" x1="125.808106963335" x2="125.808106963335" y1="355" y2="351.25" />
	<line stroke="black" stroke-width="1.5" x1="129.894207294923" x2="129.894207294923" y1="355" y2="351.25" />
	<line stroke="black" stroke-width="1.5" x1="133.98030762651" x2="133.98030762651" y1="355" y2="351.25" />
	<line stroke="black" stroke-width="1.5" x1="138.066407958098" x2="138.066407958098" y1="355" y2="351.25" />
	<line stroke="black" stroke-width="1.5" x1="142.152508289685" x2="142.152508289685" y1="355" y2="347.5" />
	<line stroke="black" stroke-width="1.5" x1="146.238608621272" x2="146.238608621272" y1="355" y2="351.25" />
	<line stroke="black" stroke-width="1.5" x1="150.32470895286" x2="150.32470895286" y1="355" y2="351.25" />
	<line stroke="black" stroke-width="1.5" x1="154.410809284447" x2="154.410809284447" y1="355" y2="351.25" />
	<line stroke="black" stroke-width="1.5" x1="158.496909616035" x2="158.496909616035" y1="355" y2="351.25" />
	<line stroke="black" stroke-width="1.5" x1="162.583009947622" x2="162.583009947622" y1="355" y2="347.5" />
	<text fill="black" font-family="Arial" font-size="15" stroke="none" text-anchor="middle" x="162.583009947622" y="370">0.03</text>
	<line stroke="black" stroke-width="1.5" x1="166.669110279209" x2="166.669110279209" y1="355" y2="351.25" />
	<line stroke="black" stroke-width="1.5" x1="170.755210610797" x2="170.755210610797" y1="355" y2="351.25" />
	<line stroke="black" stroke-width="1.5" x1="174.841310942384" x2="174.841310942384" y1="355" y2="351.25" />
	<line stroke="black" stroke-width="1.5" x1="178.927411273972" x2="178.927411273972" y1="355" y2="351.25" />
	<line stroke="black" stroke-width="1.5" x1="183.013511605559" x2="183.013511605559" y1="355" y2="347.5" />
	<line stroke="black" stroke-width="1.5" x1="187.099611937146" x2="187.099611937146" y1="355" y2="351.25" />
	<line stroke="black" stroke-width="1.5" x1="191.185712268734" x2="191.185712268734" y1="355" y2="351.25" />
	<line stroke="black" stroke-width="1.5" x1="195.271812600321" x2="195.271812600321" y1="355" y2="351.25" />
	<line stroke="black" stroke-width="1.5" x1="199.357912931909" x2="199.357912931909" y1="355" y2="351.25" />
	<line stroke="black" stroke-width="1.5" x1="203.444013263496" x2="203.444013263496" y1="355" y2="347.5" />
	<text fill="black" font-family="Arial" font-size="15" stroke="none" text-anchor="middle" x="203.444013263496" y="370">0.04</text>
	<line stroke="black" stroke-width="1.5" x1="207.530113595083" x2="207.530113595083" y1="355" y2="351.25" />
	<line stroke="black" stroke-width="1.5" x1="211.616213926671" x2="211.616213926671" y1="355" y2="351.25" />
	<line stroke="black" stroke-width="1.5" x1="215.702314258258" x2="215.702314258258" y1="355" y2="351.25" />
	<line stroke="black" stroke-width="1.5" x1="219.788414589846" x2="219.788414589846" y1="355" y2="351.25" />
	<line stroke="black" stroke-width="1.5" x1="223.874514921433" x2="223.874514921433" y1="355" y2="347.5" />
	<line stroke="black" stroke-width="1.5" x1="227.96061525302" x2="227.96061525302" y1="355" y2="351.25" />
	<line stroke="black" stroke-width="1.5" x1="232.046715584608" x2="232.046715584608" y1="355" y2="351.25" />
	<line stroke="black" stroke-width="1.5" x1="236.132815916195" x2="236.132815916195" y1="355" y2="351.25" />
	<rect fill="crimson" height="20" stroke="black" width="93.68" x="330" y="22.5" />
	<rect fill="blue" height="20" stroke="black" width="71.81" x="423.68" y="22.5" />
	<rect fill="lightseagreen" height="20" stroke="black" width="46.94" x="495.49" y="22.5" />
	<rect fill="orange" height="20" stroke="black" width="66.78" x="542.43" y="22.5" />
	<rect fill="mediumpurple" height="20" stroke="black" width="23.8" x="609.21" y="22.5" />
	<rect fill="palegreen" height="20" stroke="black" width="26.5" x="633.01" y="22.5" />
	<rect fill="lightcoral" height="20" stroke="black" width="19.76" x="659.51" y="22.5" />
	<rect fill="dodgerblue" height="20" stroke="black" width="6.77" x="679.27" y="22.5" />
	<rect fill="lawngreen" height="20" stroke="black" width="1.07" x="686.04" y="22.5" />
	<rect fill="olive" height="20" stroke="black" width="5.35" x="687.11" y="22.5" />
	<rect fill="yellow" height="20" stroke="black" width="37.55" x="692.46" y="22.5" />
	<rect fill="crimson" height="20" stroke="black" width="115.29" x="330" y="47.5" />
	<line stroke="black" stroke-width="1" x1="423.68" x2="445.29" y1="42.5" y2="47.5" />
	<rect fill="blue" height="20" stroke="black" width="93.26" x="445.29" y="47.5" />
	<line stroke="black" stroke-width="1" x1="495.49" x2="538.55" y1="42.5" y2="47.5" />
	<rect fill="lightseagreen" height="20" stroke="black" width="38.94" x="538.55" y="47.5" />
	<line stroke="black" stroke-width="1" x1="542.43" x2="577.49" y1="42.5" y2="47.5" />
	<rect fill="orange" height="20" stroke="black" width="37.62" x="577.49" y="47.5" />
	<line stroke="black" stroke-width="1" x1="609.21" x2="615.11" y1="42.5" y2="47.5" />
	<rect fill="mediumpurple" height="20" stroke="black" width="24.91" x="615.11" y="47.5" />
	<line stroke="black" stroke-width="1" x1="633.01" x2="640.02" y1="42.5" y2="47.5" />
	<rect fill="palegreen" height="20" stroke="black" width="14.1" x="640.02" y="47.5" />
	<line stroke="black" stroke-width="1" x1="659.51" x2="654.12" y1="42.5" y2="47.5" />
	<rect fill="lightcoral" height="20" stroke="black" width="21.45" x="654.12" y="47.5" />
	<line stroke="black" stroke-width="1" x1="679.27" x2="675.57" y1="42.5" y2="47.5" />
	<rect fill="dodgerblue" height="20" stroke="black" width="13.06" x="675.57" y="47.5" />
	<line stroke="black" stroke-width="1" x1="686.04" x2="688.63" y1="42.5" y2="47.5" />
	<rect fill="lawngreen" height="20" stroke="black" width="0.68" x="688.63" y="47.5" />
	<line stroke="black" stroke-width="1" x1="687.11" x2="689.31" y1="42.5" y2="47.5" />
	<rect fill="olive" height="20" stroke="black" width="5.64" x="689.31" y="47.5" />
	<line stroke="black" stroke-width="1" x1="692.46" x2="694.95" y1="42.5" y2="47.5" />
	<rect fill="yellow" height="20" stroke="black" width="35.06" x="694.95" y="47.5" />
	<line stroke="black" stroke-width="1" x1="730.01" x2="730.01" y1="42.5" y2="47.5" />
	<rect fill="crimson" height="20" stroke="black" width="155.71" x="330" y="72.5" />
	<line stroke="black" stroke-width="1" x1="445.29" x2="485.71" y1="67.5" y2="72.5" />
	<rect fill="blue" height="20" stroke="black" width="64.35" x="485.71" y="72.5" />
	<line stroke="black" stroke-width="1" x1="538.55" x2="550.06" y1="67.5" y2="72.5" />
	<rect fill="lightseagreen" height="20" stroke="black" width="32.81" x="550.06" y="72.5" />
	<line stroke="black" stroke-width="1" x1="577.49" x2="582.87" y1="67.5" y2="72.5" />
	<rect fill="orange" height="20" stroke="black" width="42.48" x="582.87" y="72.5" />
	<line stroke="black" stroke-width="1" x1="615.11" x2="625.35" y1="67.5" y2="72.5" />
	<rect fill="mediumpurple" height="20" stroke="black" width="28.36" x="625.35" y="72.5" />
	<line stroke="black" stroke-width="1" x1="640.02" x2="653.71" y1="67.5" y2="72.5" />
	<rect fill="palegreen" height="20" stroke="black" width="7.7" x="653.71" y="72.5" />
	<line stroke="black" stroke-width="1" x1="654.12" x2="661.41" y1="67.5" y2="72.5" />
	<rect fill="lightcoral" height="20" stroke="black" width="21.18" x="661.41" y="72.5" />
	<line stroke="black" stroke-width="1" x1="675.57" x2="682.59" y1="67.5" y2="72.5" />
	<rect fill="dodgerblue" height="20" stroke="black" width="9.27" x="682.59" y="72.5" />
	<line stroke="black" stroke-width="1" x1="688.63" x2="691.86" y1="67.5" y2="72.5" />
	<rect fill="lawngreen" height="20" stroke="black" width="0.72" x="691.86" y="72.5" />
	<line stroke="black" stroke-width="1" x1="689.31" x2="692.58" y1="67.5" y2="72.5" />
	<rect fill="olive" height="20" stroke="black" width="9.38" x="692.58" y="72.5" />
	<line stroke="black" stroke-width="1" x1="694.95" x2="701.96" y1="67.5" y2="72.5" />
	<rect fill="yellow" height="20" stroke="black" width="28.05" x="701.96" y="72.5" />
	<line stroke="black" stroke-width="1" x1="730.01" x2="730.01" y1="67.5" y2="72.5" />
	<rect fill="crimson" height="20" stroke="black" width="111.46" x="330" y="97.5" />
	<line stroke="black" stroke-width="1" x1="485.71" x2="441.46" y1="92.5" y2="97.5" />
	<rect fill="blue" height="20" stroke="black" width="54.8" x="441.46" y="97.5" />
	<line stroke="black" stroke-width="1" x1="550.06" x2="496.26" y1="92.5" y2="97.5" />
	<rect fill="lightseagreen" height="20" stroke="black" width="67.2" x="496.26" y="97.5" />
	<line stroke="black" stroke-width="1" x1="582.87" x2="563.46" y1="92.5" y2="97.5" />
	<rect fill="orange" height="20" stroke="black" width="75.99" x="563.46" y="97.5" />
	<line stroke="black" stroke-width="1" x1="625.35" x2="639.45" y1="92.5" y2="97.5" />
	<rect fill="mediumpurple" height="20" stroke="black" width="25.75" x="639.45" y="97.5" />
	<line stroke="black" stroke-width="1" x1="653.71" x2="665.2" y1="92.5" y2="97.5" />
	<rect fill="palegreen" height="20" stroke="black" width="17.03" x="665.2" y="97.5" />
	<line stroke="black" stroke-width="1" x1="661.41" x2="682.23" y1="92.5" y2="97.5" />
	<rect fill="lightcoral" height="20" stroke="black" width="10.94" x="682.23" y="97.5" />
	<line stroke="black" stroke-width="1" x1="682.59" x2="693.17" y1="92.5" y2="97.5" />
	<rect fill="dodgerblue" height="20" stroke="black" width="1.61" x="693.17" y="97.5" />
	<line stroke="black" stroke-width="1" x1="691.86" x2="694.78" y1="92.5" y2="97.5" />
	<rect fill="lawngreen" height="20" stroke="black" width="5.91" x="694.78" y="97.5" />
	<line stroke="black" stroke-width="1" x1="692.58" x2="700.69" y1="92.5" y2="97.5" />
	<rect fill="olive" height="20" stroke="black" width="1.72" x="700.69" y="97.5" />
	<line stroke="black" stroke-width="1" x1="701.96" x2="702.41" y1="92.5" y2="97.5" />
	<rect fill="yellow" height="20" stroke="black" width="27.59" x="702.41" y="97.5" />
	<line stroke="black" stroke-width="1" x1="730.01" x2="730" y1="92.5" y2="97.5" />
	<rect fill="crimson" height="20" stroke="black" width="163.94" x="330" y="122.5" />
	<line stroke="black" stroke-width="1" x1="441.46" x2="493.94" y1="117.5" y2="122.5" />
	<rect fill="blue" height="20" stroke="black" width="35.59" x="493.94" y="122.5" />
	<line stroke="black" stroke-width="1" x1="496.26" x2="529.53" y1="117.5" y2="122.5" />
	<rect fill="lightseagreen" height="20" stroke="black" width="46.83" x="529.53" y="122.5" />
	<line stroke="black" stroke-width="1" x1="563.46" x2="576.36" y1="117.5" y2="122.5" />
	<rect fill="orange" height="20" stroke="black" width="43.21" x="576.36" y="122.5" />
	<line stroke="black" stroke-width="1" x1="639.45" x2="619.57" y1="117.5" y2="122.5" />
	<rect fill="mediumpurple" height="20" stroke="black" width="29.75" x="619.57" y="122.5" />
	<line stroke="black" stroke-width="1" x1="665.2" x2="649.32" y1="117.5" y2="122.5" />
	<rect fill="palegreen" height="20" stroke="black" width="27.13" x="649.32" y="122.5" />
	<line stroke="black" stroke-width="1" x1="682.23" x2="676.45" y1="117.5" y2="122.5" />
	<rect fill="lightcoral" height="20" stroke="black" width="26.32" x="676.45" y="122.5" />
	<line stroke="black" stroke-width="1" x1="693.17" x2="702.77" y1="117.5" y2="122.5" />
	<rect fill="dodgerblue" height="20" stroke="black" width="2.55" x="702.77" y="122.5" />
	<line stroke="black" stroke-width="1" x1="694.78" x2="705.32" y1="117.5" y2="122.5" />
	<rect fill="lawngreen" height="20" stroke="black" width="2.97" x="705.32" y="122.5" />
	<line stroke="black" stroke-width="1" x1="700.69" x2="708.29" y1="117.5" y2="122.5" />
	<rect fill="olive" height="20" stroke="black" width="0.66" x="708.29" y="122.5" />
	<line stroke="black" stroke-width="1" x1="702.41" x2="708.95" y1="117.5" y2="122.5" />
	<rect fill="yellow" height="20" stroke="black" width="21.06" x="708.95" y="122.5" />
	<line stroke="black" stroke-width="1" x1="730" x2="730.01" y1="117.5" y2="122.5" />
	<rect fill="crimson" height="20" stroke="black" width="151.67" x="330" y="147.5" />
	<line stroke="black" stroke-width="1" x1="493.94" x2="481.67" y1="142.5" y2="147.5" />
	<rect fill="blue" height="20" stroke="black" width="46.77" x="481.67" y="147.5" />
	<line stroke="black" stroke-width="1" x1="529.53" x2="528.44" y1="142.5" y2="147.5" />
	<rect fill="lightseagreen" height="20" stroke="black" width="52.68" x="528.44" y="147.5" />
	<line stroke="black" stroke-width="1" x1="576.36" x2="581.12" y1="142.5" y2="147.5" />
	<rect fill="orange" height="20" stroke="black" width="51.59" x="581.12" y="147.5" />
	<line stroke="black" stroke-width="1" x1="619.57" x2="632.71" y1="142.5" y2="147.5" />
	<rect fill="mediumpurple" height="20" stroke="black" width="20.1" x="632.71" y="147.5" />
	<line stroke="black" stroke-width="1" x1="649.32" x2="652.81" y1="142.5" y2="147.5" />
	<rect fill="palegreen" height="20" stroke="black" width="26.11" x="652.81" y="147.5" />
	<line stroke="black" stroke-width="1" x1="676.45" x2="678.92" y1="142.5" y2="147.5" />
	<rect fill="lightcoral" height="20" stroke="black" width="19.02" x="678.92" y="147.5" />
	<line stroke="black" stroke-width="1" x1="702.77" x2="697.94" y1="142.5" y2="147.5" />
	<rect fill="dodgerblue" height="20" stroke="black" width="2.56" x="697.94" y="147.5" />
	<line stroke="black" stroke-width="1" x1="705.32" x2="700.5" y1="142.5" y2="147.5" />
	<rect fill="lawngreen" height="20" stroke="black" width="5.1" x="700.5" y="147.5" />
	<line stroke="black" stroke-width="1" x1="708.29" x2="705.6" y1="142.5" y2="147.5" />
	<rect fill="olive" height="20" stroke="black" width="0.97" x="705.6" y="147.5" />
	<line stroke="black" stroke-width="1" x1="708.95" x2="706.57" y1="142.5" y2="147.5" />
	<rect fill="yellow" height="20" stroke="black" width="23.43" x="706.57" y="147.5" />
	<line stroke="black" stroke-width="1" x1="730.01" x2="730" y1="142.5" y2="147.5" />
	<rect fill="crimson" height="20" stroke="black" width="131.86" x="330" y="172.5" />
	<line stroke="black" stroke-width="1" x1="481.67" x2="461.86" y1="167.5" y2="172.5" />
	<rect fill="blue" height="20" stroke="black" width="41.54" x="461.86" y="172.5" />
	<line stroke="black" stroke-width="1" x1="528.44" x2="503.4" y1="167.5" y2="172.5" />
	<rect fill="lightseagreen" height="20" stroke="black" width="54.11" x="503.4" y="172.5" />
	<line stroke="black" stroke-width="1" x1="581.12" x2="557.51" y1="167.5" y2="172.5" />
	<rect fill="orange" height="20" stroke="black" width="60.39" x="557.51" y="172.5" />
	<line stroke="black" stroke-width="1" x1="632.71" x2="617.9" y1="167.5" y2="172.5" />
	<rect fill="mediumpurple" height="20" stroke="black" width="27.85" x="617.9" y="172.5" />
	<line stroke="black" stroke-width="1" x1="652.81" x2="645.75" y1="167.5" y2="172.5" />
	<rect fill="palegreen" height="20" stroke="black" width="27.14" x="645.75" y="172.5" />
	<line stroke="black" stroke-width="1" x1="678.92" x2="672.89" y1="167.5" y2="172.5" />
	<rect fill="lightcoral" height="20" stroke="black" width="24.83" x="672.89" y="172.5" />
	<line stroke="black" stroke-width="1" x1="697.94" x2="697.72" y1="167.5" y2="172.5" />
	<rect fill="dodgerblue" height="20" stroke="black" width="2.36" x="697.72" y="172.5" />
	<line stroke="black" stroke-width="1" x1="700.5" x2="700.08" y1="167.5" y2="172.5" />
	<rect fill="lawngreen" height="20" stroke="black" width="7.08" x="700.08" y="172.5" />
	<line stroke="black" stroke-width="1" x1="705.6" x2="707.16" y1="167.5" y2="172.5" />
	<rect fill="olive" height="20" stroke="black" width="1" x="707.16" y="172.5" />
	<line stroke="black" stroke-width="1" x1="706.57" x2="708.16" y1="167.5" y2="172.5" />
	<rect fill="yellow" height="20" stroke="black" width="21.84" x="708.16" y="172.5" />
	<line stroke="black" stroke-width="1" x1="730" x2="730" y1="167.5" y2="172.5" />
	<rect fill="crimson" height="20" stroke="black" width="121.44" x="330" y="197.5" />
	<line stroke="black" stroke-width="1" x1="461.86" x2="451.44" y1="192.5" y2="197.5" />
	<rect fill="blue" height="20" stroke="black" width="47.03" x="451.44" y="197.5" />
	<line stroke="black" stroke-width="1" x1="503.4" x2="498.47" y1="192.5" y2="197.5" />
	<rect fill="lightseagreen" height="20" stroke="black" width="80.41" x="498.47" y="197.5" />
	<line stroke="black" stroke-width="1" x1="557.51" x2="578.88" y1="192.5" y2="197.5" />
	<rect fill="orange" height="20" stroke="black" width="46.47" x="578.88" y="197.5" />
	<line stroke="black" stroke-width="1" x1="617.9" x2="625.35" y1="192.5" y2="197.5" />
	<rect fill="mediumpurple" height="20" stroke="black" width="18.29" x="625.35" y="197.5" />
	<line stroke="black" stroke-width="1" x1="645.75" x2="643.64" y1="192.5" y2="197.5" />
	<rect fill="palegreen" height="20" stroke="black" width="26.77" x="643.64" y="197.5" />
	<line stroke="black" stroke-width="1" x1="672.89" x2="670.41" y1="192.5" y2="197.5" />
	<rect fill="lightcoral" height="20" stroke="black" width="17.58" x="670.41" y="197.5" />
	<line stroke="black" stroke-width="1" x1="697.72" x2="687.99" y1="192.5" y2="197.5" />
	<rect fill="dodgerblue" height="20" stroke="black" width="2.41" x="687.99" y="197.5" />
	<line stroke="black" stroke-width="1" x1="700.08" x2="690.4" y1="192.5" y2="197.5" />
	<rect fill="lawngreen" height="20" stroke="black" width="10.57" x="690.4" y="197.5" />
	<line stroke="black" stroke-width="1" x1="707.16" x2="700.97" y1="192.5" y2="197.5" />
	<rect fill="olive" height="20" stroke="black" width="1.12" x="700.97" y="197.5" />
	<line stroke="black" stroke-width="1" x1="708.16" x2="702.09" y1="192.5" y2="197.5" />
	<rect fill="yellow" height="20" stroke="black" width="27.91" x="702.09" y="197.5" />
	<line stroke="black" stroke-width="1" x1="730" x2="730" y1="192.5" y2="197.5" />
	<rect fill="crimson" height="20" stroke="black" width="137" x="330" y="222.5" />
	<line stroke="black" stroke-width="1" x1="451.44" x2="467" y1="217.5" y2="222.5" />
	<rect fill="blue" height="20" stroke="black" width="61.16" x="467" y="222.5" />
	<line stroke="black" stroke-width="1" x1="498.47" x2="528.16" y1="217.5" y2="222.5" />
	<rect fill="lightseagreen" height="20" stroke="black" width="54.89" x="528.16" y="222.5" />
	<line stroke="black" stroke-width="1" x1="578.88" x2="583.05" y1="217.5" y2="222.5" />
	<rect fill="orange" height="20" stroke="black" width="47.45" x="583.05" y="222.5" />
	<line stroke="black" stroke-width="1" x1="625.35" x2="630.5" y1="217.5" y2="222.5" />
	<rect fill="mediumpurple" height="20" stroke="black" width="28.2" x="630.5" y="222.5" />
	<line stroke="black" stroke-width="1" x1="643.64" x2="658.7" y1="217.5" y2="222.5" />
	<rect fill="palegreen" height="20" stroke="black" width="17.74" x="658.7" y="222.5" />
	<line stroke="black" stroke-width="1" x1="670.41" x2="676.44" y1="217.5" y2="222.5" />
	<rect fill="lightcoral" height="20" stroke="black" width="23.97" x="676.44" y="222.5" />
	<line stroke="black" stroke-width="1" x1="687.99" x2="700.41" y1="217.5" y2="222.5" />
	<rect fill="dodgerblue" height="20" stroke="black" width="1.96" x="700.41" y="222.5" />
	<line stroke="black" stroke-width="1" x1="690.4" x2="702.37" y1="217.5" y2="222.5" />
	<rect fill="lawngreen" height="20" stroke="black" width="2.82" x="702.37" y="222.5" />
	<line stroke="black" stroke-width="1" x1="700.97" x2="705.19" y1="217.5" y2="222.5" />
	<rect fill="olive" height="20" stroke="black" width="0.89" x="705.19" y="222.5" />
	<line stroke="black" stroke-width="1" x1="702.09" x2="706.08" y1="217.5" y2="222.5" />
	<rect fill="yellow" height="20" stroke="black" width="23.92" x="706.08" y="222.5" />
	<line stroke="black" stroke-width="1" x1="730" x2="730" y1="217.5" y2="222.5" />
	<rect fill="crimson" height="20" stroke="black" width="125.53" x="330" y="247.5" />
	<line stroke="black" stroke-width="1" x1="467" x2="455.53" y1="242.5" y2="247.5" />
	<rect fill="blue" height="20" stroke="black" width="53" x="455.53" y="247.5" />
	<line stroke="black" stroke-width="1" x1="528.16" x2="508.53" y1="242.5" y2="247.5" />
	<rect fill="lightseagreen" height="20" stroke="black" width="71.01" x="508.53" y="247.5" />
	<line stroke="black" stroke-width="1" x1="583.05" x2="579.54" y1="242.5" y2="247.5" />
	<rect fill="orange" height="20" stroke="black" width="59.54" x="579.54" y="247.5" />
	<line stroke="black" stroke-width="1" x1="630.5" x2="639.08" y1="242.5" y2="247.5" />
	<rect fill="mediumpurple" height="20" stroke="black" width="18.79" x="639.08" y="247.5" />
	<line stroke="black" stroke-width="1" x1="658.7" x2="657.87" y1="242.5" y2="247.5" />
	<rect fill="palegreen" height="20" stroke="black" width="19.25" x="657.87" y="247.5" />
	<line stroke="black" stroke-width="1" x1="676.44" x2="677.12" y1="242.5" y2="247.5" />
	<rect fill="lightcoral" height="20" stroke="black" width="17.53" x="677.12" y="247.5" />
	<line stroke="black" stroke-width="1" x1="700.41" x2="694.65" y1="242.5" y2="247.5" />
	<rect fill="dodgerblue" height="20" stroke="black" width="2.64" x="694.65" y="247.5" />
	<line stroke="black" stroke-width="1" x1="702.37" x2="697.29" y1="242.5" y2="247.5" />
	<rect fill="lawngreen" height="20" stroke="black" width="3.05" x="697.29" y="247.5" />
	<line stroke="black" stroke-width="1" x1="705.19" x2="700.34" y1="242.5" y2="247.5" />
	<rect fill="olive" height="20" stroke="black" width="1.18" x="700.34" y="247.5" />
	<line stroke="black" stroke-width="1" x1="706.08" x2="701.52" y1="242.5" y2="247.5" />
	<rect fill="yellow" height="20" stroke="black" width="28.5" x="701.52" y="247.5" />
	<line stroke="black" stroke-width="1" x1="730" x2="730.02" y1="242.5" y2="247.5" />
	<rect fill="crimson" height="20" stroke="black" width="103.3" x="330" y="272.5" />
	<line stroke="black" stroke-width="1" x1="455.53" x2="433.3" y1="267.5" y2="272.5" />
	<rect fill="blue" height="20" stroke="black" width="74.43" x="433.3" y="272.5" />
	<line stroke="black" stroke-width="1" x1="508.53" x2="507.73" y1="267.5" y2="272.5" />
	<rect fill="lightseagreen" height="20" stroke="black" width="74.73" x="507.73" y="272.5" />
	<line stroke="black" stroke-width="1" x1="579.54" x2="582.46" y1="267.5" y2="272.5" />
	<rect fill="orange" height="20" stroke="black" width="40.31" x="582.46" y="272.5" />
	<line stroke="black" stroke-width="1" x1="639.08" x2="622.77" y1="267.5" y2="272.5" />
	<rect fill="mediumpurple" height="20" stroke="black" width="41.82" x="622.77" y="272.5" />
	<line stroke="black" stroke-width="1" x1="657.87" x2="664.59" y1="267.5" y2="272.5" />
	<rect fill="palegreen" height="20" stroke="black" width="11.97" x="664.59" y="272.5" />
	<line stroke="black" stroke-width="1" x1="677.12" x2="676.56" y1="267.5" y2="272.5" />
	<rect fill="lightcoral" height="20" stroke="black" width="9.54" x="676.56" y="272.5" />
	<line stroke="black" stroke-width="1" x1="694.65" x2="686.1" y1="267.5" y2="272.5" />
	<rect fill="dodgerblue" height="20" stroke="black" width="2.58" x="686.1" y="272.5" />
	<line stroke="black" stroke-width="1" x1="697.29" x2="688.68" y1="267.5" y2="272.5" />
	<rect fill="lawngreen" height="20" stroke="black" width="2.89" x="688.68" y="272.5" />
	<line stroke="black" stroke-width="1" x1="700.34" x2="691.57" y1="267.5" y2="272.5" />
	<rect fill="olive" height="20" stroke="black" width="2.23" x="691.57" y="272.5" />
	<line stroke="black" stroke-width="1" x1="701.52" x2="693.8" y1="267.5" y2="272.5" />
	<rect fill="yellow" height="20" stroke="black" width="36.19" x="693.8" y="272.5" />
	<line stroke="black" stroke-width="1" x1="730.02" x2="729.99" y1="267.5" y2="272.5" />
	<rect fill="crimson" height="20" stroke="black" width="113.1" x="330" y="297.5" />
	<line stroke="black" stroke-width="1" x1="433.3" x2="443.1" y1="292.5" y2="297.5" />
	<rect fill="blue" height="20" stroke="black" width="69.01" x="443.1" y="297.5" />
	<line stroke="black" stroke-width="1" x1="507.73" x2="512.11" y1="292.5" y2="297.5" />
	<rect fill="lightseagreen" height="20" stroke="black" width="71.4" x="512.11" y="297.5" />
	<line stroke="black" stroke-width="1" x1="582.46" x2="583.51" y1="292.5" y2="297.5" />
	<rect fill="orange" height="20" stroke="black" width="55.47" x="583.51" y="297.5" />
	<line stroke="black" stroke-width="1" x1="622.77" x2="638.98" y1="292.5" y2="297.5" />
	<rect fill="mediumpurple" height="20" stroke="black" width="21.94" x="638.98" y="297.5" />
	<line stroke="black" stroke-width="1" x1="664.59" x2="660.92" y1="292.5" y2="297.5" />
	<rect fill="palegreen" height="20" stroke="black" width="9.03" x="660.92" y="297.5" />
	<line stroke="black" stroke-width="1" x1="676.56" x2="669.95" y1="292.5" y2="297.5" />
	<rect fill="lightcoral" height="20" stroke="black" width="10.71" x="669.95" y="297.5" />
	<line stroke="black" stroke-width="1" x1="686.1" x2="680.66" y1="292.5" y2="297.5" />
	<rect fill="dodgerblue" height="20" stroke="black" width="3.44" x="680.66" y="297.5" />
	<line stroke="black" stroke-width="1" x1="688.68" x2="684.1" y1="292.5" y2="297.5" />
	<rect fill="lawngreen" height="20" stroke="black" width="6.65" x="684.1" y="297.5" />
	<line stroke="black" stroke-width="1" x1="691.57" x2="690.75" y1="292.5" y2="297.5" />
	<rect fill="olive" height="20" stroke="black" width="2.12" x="690.75" y="297.5" />
	<line stroke="black" stroke-width="1" x1="693.8" x2="692.87" y1="292.5" y2="297.5" />
	<rect fill="yellow" height="20" stroke="black" width="37.13" x="692.87" y="297.5" />
	<line stroke="black" stroke-width="1" x1="729.99" x2="730" y1="292.5" y2="297.5" />
	<line stroke="black" stroke-width="1" x1="330" x2="730" y1="322.5" y2="322.5" />
	<line stroke="black" stroke-width="1" x1="330" x2="330" y1="322.5" y2="330" />
	<text fill="black" font-family="Arial" font-size="15" stroke="none" text-anchor="middle" x="330" y="345">0</text>
	<line stroke="black" stroke-width="1" x1="430" x2="430" y1="322.5" y2="330" />
	<text fill="black" font-family="Arial" font-size="15" stroke="none" text-anchor="middle" x="430" y="345">0.25</text>
	<line stroke="black" stroke-width="1" x1="530" x2="530" y1="322.5" y2="330" />
	<text fill="black" font-family="Arial" font-size="15" stroke="none" text-anchor="middle" x="530" y="345">0.5</text>
	<line stroke="black" stroke-width="1" x1="630" x2="630" y1="322.5" y2="330" />
	<text fill="black" font-family="Arial" font-size="15" stroke="none" text-anchor="middle" x="630" y="345">0.75</text>
	<line stroke="black" stroke-width="1" x1="730" x2="730" y1="322.5" y2="330" />
	<text fill="black" font-family="Arial" font-size="15" stroke="none" text-anchor="middle" x="730" y="345">1</text>
	<text fill="black" font-family="Arial" font-size="15" stroke="none" text-anchor="middle" x="530" y="360">Relative Abundance in Phylum Level</text>
	<rect fill="crimson" height="11.1111111111111" stroke="black" width="11.1111111111111" x="741.111111111111" y="22.5" />
	<text fill="black" font-family="Arial" font-size="11.1111111111111" stroke="none" text-anchor="start" x="757.777777777778" y="31.9444444444444">Proteobacteria</text>
	<rect fill="blue" height="11.1111111111111" stroke="black" width="11.1111111111111" x="741.111111111111" y="39.1666666666667" />
	<text fill="black" font-family="Arial" font-size="11.1111111111111" stroke="none" text-anchor="start" x="757.777777777778" y="48.6111111111111">Acidobacteria</text>
	<rect fill="lightseagreen" height="11.1111111111111" stroke="black" width="11.1111111111111" x="741.111111111111" y="55.8333333333333" />
	<text fill="black" font-family="Arial" font-size="11.1111111111111" stroke="none" text-anchor="start" x="757.777777777778" y="65.2777777777778">Chloroflexi</text>
	<rect fill="orange" height="11.1111111111111" stroke="black" width="11.1111111111111" x="741.111111111111" y="72.5" />
	<text fill="black" font-family="Arial" font-size="11.1111111111111" stroke="none" text-anchor="start" x="757.777777777778" y="81.9444444444444">Actinobacteria</text>
	<rect fill="mediumpurple" height="11.1111111111111" stroke="black" width="11.1111111111111" x="741.111111111111" y="89.1666666666667" />
	<text fill="black" font-family="Arial" font-size="11.1111111111111" stroke="none" text-anchor="start" x="757.777777777778" y="98.6111111111111">Bacteroidetes</text>
	<rect fill="palegreen" height="11.1111111111111" stroke="black" width="11.1111111111111" x="741.111111111111" y="105.833333333333" />
	<text fill="black" font-family="Arial" font-size="11.1111111111111" stroke="none" text-anchor="start" x="757.777777777778" y="115.277777777778">Saccharibacteria</text>
	<rect fill="lightcoral" height="11.1111111111111" stroke="black" width="11.1111111111111" x="741.111111111111" y="122.5" />
	<text fill="black" font-family="Arial" font-size="11.1111111111111" stroke="none" text-anchor="start" x="757.777777777778" y="131.944444444444">Gemmatimonadetes</text>
	<rect fill="dodgerblue" height="11.1111111111111" stroke="black" width="11.1111111111111" x="741.111111111111" y="139.166666666667" />
	<text fill="black" font-family="Arial" font-size="11.1111111111111" stroke="none" text-anchor="start" x="757.777777777778" y="148.611111111111">Nitrospirae</text>
	<rect fill="lawngreen" height="11.1111111111111" stroke="black" width="11.1111111111111" x="741.111111111111" y="155.833333333333" />
	<text fill="black" font-family="Arial" font-size="11.1111111111111" stroke="none" text-anchor="start" x="757.777777777778" y="165.277777777778">Cyanobacteria</text>
	<rect fill="olive" height="11.1111111111111" stroke="black" width="11.1111111111111" x="741.111111111111" y="172.5" />
	<text fill="black" font-family="Arial" font-size="11.1111111111111" stroke="none" text-anchor="start" x="757.777777777778" y="181.944444444444">Verrucomicrobia</text>
	<rect fill="yellow" height="11.1111111111111" stroke="black" width="11.1111111111111" x="741.111111111111" y="189.166666666667" />
	<text fill="black" font-family="Arial" font-size="11.1111111111111" stroke="none" text-anchor="start" x="757.777777777778" y="198.611111111111">Others</text>
	<!-- 
	Generated using the Perl SVG Module V2.64
	by Ronan Oger
	Info: http://www.roitsystems.com/
 -->
</svg>