<?xml version="1.0" encoding="UTF-8" standalone="yes"?>
<!DOCTYPE svg PUBLIC "-//W3C//DTD SVG 1.0//EN" "http://www.w3.org/TR/2001/REC-SVG-20010904/DTD/svg10.dtd">
<svg height="377" width="870" xmlns="http://www.w3.org/2000/svg" xmlns:svg="http://www.w3.org/2000/svg" xmlns:xlink="http://www.w3.org/1999/xlink">
	<path d="M 40 132.11 L 40 59.8 A 8.55 8.55 0 0 1 48.55,51.25 L 91.31 51.25" style="fill: none; stroke: black; stroke-width: 1.5" />
	<path d="M 40 132.11 L 40 206.55 A 6.42 6.42 0 0 0 46.42,212.97 L 78.53 212.97" style="fill: none; stroke: black; stroke-width: 1.5" />
	<path d="M 78.53 212.97 L 78.53 150.86 A 1.18 1.18 0 0 1 79.71,149.69 L 85.59 149.69" style="fill: none; stroke: black; stroke-width: 1.5" />
	<path d="M 78.53 212.97 L 78.53 275.79 A 0.46 0.46 0 0 0 78.99,276.25 L 81.26 276.25" style="fill: none; stroke: black; stroke-width: 1.5" />
	<path d="M 85.59 149.69 L 85.59 120.74 A 0.74 0.74 0 0 1 86.33,120 L 90 120" style="fill: none; stroke: black; stroke-width: 1.5" />
	<path d="M 85.59 149.69 L 85.59 179.14 A 0.24 0.24 0 0 0 85.83,179.38 L 87.02 179.38" style="fill: none; stroke: black; stroke-width: 1.5" />
	<path d="M 87.02 179.38 L 87.02 161.15 A 3.65 3.65 0 0 1 90.67,157.5 L 240.01 157.5" style="fill: none; stroke: black; stroke-width: 1.5" />
	<text fill="black" font-family="Arial" font-size="15" stroke="none" text-anchor="start" x="247.51" y="162.5">R37J163</text>
	<path d="M 87.02 179.38 L 87.02 200.74 A 0.51 0.51 0 0 0 87.53,201.25 L 90.07 201.25" style="fill: none; stroke: black; stroke-width: 1.5" />
	<path d="M 91.31 51.25 L 91.31 35.63 A 3.13 3.13 0 0 1 94.44,32.5 L 240 32.5" style="fill: none; stroke: black; stroke-width: 1.5" />
	<text fill="black" font-family="Arial" font-size="15" stroke="none" text-anchor="start" x="247.5" y="37.5">JXBR162</text>
	<path d="M 91.31 51.25 L 91.31 69.21 A 0.79 0.79 0 0 0 92.1,70 L 96.06 70" style="fill: none; stroke: black; stroke-width: 1.5" />
	<path d="M 90.07 201.25 L 90.07 185.63 A 3.13 3.13 0 0 1 93.2,182.5 L 240.01 182.5" style="fill: none; stroke: black; stroke-width: 1.5" />
	<text fill="black" font-family="Arial" font-size="15" stroke="none" text-anchor="start" x="247.51" y="187.5">RW373</text>
	<path d="M 90.07 201.25 L 90.07 219.35 A 0.65 0.65 0 0 0 90.72,220 L 93.99 220" style="fill: none; stroke: black; stroke-width: 1.5" />
	<path d="M 81.26 276.25 L 81.26 260.63 A 3.13 3.13 0 0 1 84.39,257.5 L 240 257.5" style="fill: none; stroke: black; stroke-width: 1.5" />
	<text fill="black" font-family="Arial" font-size="15" stroke="none" text-anchor="start" x="247.5" y="262.5">CK3</text>
	<path d="M 81.26 276.25 L 81.26 293.35 A 1.65 1.65 0 0 0 82.91,295 L 91.18 295" style="fill: none; stroke: black; stroke-width: 1.5" />
	<path d="M 96.06 70 L 96.06 59.58 A 2.08 2.08 0 0 1 98.14,57.5 L 240 57.5" style="fill: none; stroke: black; stroke-width: 1.5" />
	<text fill="black" font-family="Arial" font-size="15" stroke="none" text-anchor="start" x="247.5" y="62.5">JXBR161</text>
	<path d="M 96.06 70 L 96.06 80.42 A 2.08 2.08 0 0 0 98.14,82.5 L 240 82.5" style="fill: none; stroke: black; stroke-width: 1.5" />
	<text fill="black" font-family="Arial" font-size="15" stroke="none" text-anchor="start" x="247.5" y="87.5">JXBR163</text>
	<path d="M 90 120 L 90 109.58 A 2.08 2.08 0 0 1 92.08,107.5 L 240 107.5" style="fill: none; stroke: black; stroke-width: 1.5" />
	<text fill="black" font-family="Arial" font-size="15" stroke="none" text-anchor="start" x="247.5" y="112.5">RW371</text>
	<path d="M 90 120 L 90 130.42 A 2.08 2.08 0 0 0 92.08,132.5 L 240 132.5" style="fill: none; stroke: black; stroke-width: 1.5" />
	<text fill="black" font-family="Arial" font-size="15" stroke="none" text-anchor="start" x="247.5" y="137.5">RW372</text>
	<path d="M 93.99 220 L 93.99 209.58 A 2.08 2.08 0 0 1 96.07,207.5 L 240.01 207.5" style="fill: none; stroke: black; stroke-width: 1.5" />
	<text fill="black" font-family="Arial" font-size="15" stroke="none" text-anchor="start" x="247.51" y="212.5">R37J161</text>
	<path d="M 93.99 220 L 93.99 230.42 A 2.08 2.08 0 0 0 96.07,232.5 L 240.01 232.5" style="fill: none; stroke: black; stroke-width: 1.5" />
	<text fill="black" font-family="Arial" font-size="15" stroke="none" text-anchor="start" x="247.51" y="237.5">R37J162</text>
	<path d="M 91.18 295 L 91.18 284.58 A 2.08 2.08 0 0 1 93.26,282.5 L 240 282.5" style="fill: none; stroke: black; stroke-width: 1.5" />
	<text fill="black" font-family="Arial" font-size="15" stroke="none" text-anchor="start" x="247.5" y="287.5">CK1</text>
	<path d="M 91.18 295 L 91.18 305.42 A 2.08 2.08 0 0 0 93.26,307.5 L 240 307.5" style="fill: none; stroke: black; stroke-width: 1.5" />
	<text fill="black" font-family="Arial" font-size="15" stroke="none" text-anchor="start" x="247.5" y="312.5">CK2</text>
	<text fill="black" font-family="Arial" font-size="11.1111111111111" stroke="none" text-anchor="start" x="40" y="340">UnWeighted Unifrac Distance</text>
	<line stroke="black" stroke-width="1.5" x1="40" x2="240" y1="355" y2="355" />
	<line stroke="black" stroke-width="1.5" x1="40" x2="40" y1="355" y2="347.5" />
	<text fill="black" font-family="Arial" font-size="15" stroke="none" text-anchor="middle" x="40" y="370">0</text>
	<line stroke="black" stroke-width="1.5" x1="44.5126942283289" x2="44.5126942283289" y1="355" y2="351.25" />
	<line stroke="black" stroke-width="1.5" x1="49.0253884566578" x2="49.0253884566578" y1="355" y2="351.25" />
	<line stroke="black" stroke-width="1.5" x1="53.5380826849867" x2="53.5380826849867" y1="355" y2="351.25" />
	<line stroke="black" stroke-width="1.5" x1="58.0507769133156" x2="58.0507769133156" y1="355" y2="351.25" />
	<line stroke="black" stroke-width="1.5" x1="62.5634711416445" x2="62.5634711416445" y1="355" y2="347.5" />
	<line stroke="black" stroke-width="1.5" x1="67.0761653699734" x2="67.0761653699734" y1="355" y2="351.25" />
	<line stroke="black" stroke-width="1.5" x1="71.5888595983023" x2="71.5888595983023" y1="355" y2="351.25" />
	<line stroke="black" stroke-width="1.5" x1="76.1015538266312" x2="76.1015538266312" y1="355" y2="351.25" />
	<line stroke="black" stroke-width="1.5" x1="80.6142480549601" x2="80.6142480549601" y1="355" y2="351.25" />
	<line stroke="black" stroke-width="1.5" x1="85.126942283289" x2="85.126942283289" y1="355" y2="347.5" />
	<text fill="black" font-family="Arial" font-size="15" stroke="none" text-anchor="middle" x="85.126942283289" y="370">0.05</text>
	<line stroke="black" stroke-width="1.5" x1="89.6396365116179" x2="89.6396365116179" y1="355" y2="351.25" />
	<line stroke="black" stroke-width="1.5" x1="94.1523307399468" x2="94.1523307399468" y1="355" y2="351.25" />
	<line stroke="black" stroke-width="1.5" x1="98.6650249682757" x2="98.6650249682757" y1="355" y2="351.25" />
	<line stroke="black" stroke-width="1.5" x1="103.177719196605" x2="103.177719196605" y1="355" y2="351.25" />
	<line stroke="black" stroke-width="1.5" x1="107.690413424933" x2="107.690413424933" y1="355" y2="347.5" />
	<line stroke="black" stroke-width="1.5" x1="112.203107653262" x2="112.203107653262" y1="355" y2="351.25" />
	<line stroke="black" stroke-width="1.5" x1="116.715801881591" x2="116.715801881591" y1="355" y2="351.25" />
	<line stroke="black" stroke-width="1.5" x1="121.22849610992" x2="121.22849610992" y1="355" y2="351.25" />
	<line stroke="black" stroke-width="1.5" x1="125.741190338249" x2="125.741190338249" y1="355" y2="351.25" />
	<line stroke="black" stroke-width="1.5" x1="130.253884566578" x2="130.253884566578" y1="355" y2="347.5" />
	<text fill="black" font-family="Arial" font-size="15" stroke="none" text-anchor="middle" x="130.253884566578" y="370">0.1</text>
	<line stroke="black" stroke-width="1.5" x1="134.766578794907" x2="134.766578794907" y1="355" y2="351.25" />
	<line stroke="black" stroke-width="1.5" x1="139.279273023236" x2="139.279273023236" y1="355" y2="351.25" />
	<line stroke="black" stroke-width="1.5" x1="143.791967251565" x2="143.791967251565" y1="355" y2="351.25" />
	<line stroke="black" stroke-width="1.5" x1="148.304661479893" x2="148.304661479893" y1="355" y2="351.25" />
	<line stroke="black" stroke-width="1.5" x1="152.817355708222" x2="152.817355708222" y1="355" y2="347.5" />
	<line stroke="black" stroke-width="1.5" x1="157.330049936551" x2="157.330049936551" y1="355" y2="351.25" />
	<line stroke="black" stroke-width="1.5" x1="161.84274416488" x2="161.84274416488" y1="355" y2="351.25" />
	<line stroke="black" stroke-width="1.5" x1="166.355438393209" x2="166.355438393209" y1="355" y2="351.25" />
	<line stroke="black" stroke-width="1.5" x1="170.868132621538" x2="170.868132621538" y1="355" y2="351.25" />
	<line stroke="black" stroke-width="1.5" x1="175.380826849867" x2="175.380826849867" y1="355" y2="347.5" />
	<text fill="black" font-family="Arial" font-size="15" stroke="none" text-anchor="middle" x="175.380826849867" y="370">0.15</text>
	<line stroke="black" stroke-width="1.5" x1="179.893521078196" x2="179.893521078196" y1="355" y2="351.25" />
	<line stroke="black" stroke-width="1.5" x1="184.406215306525" x2="184.406215306525" y1="355" y2="351.25" />
	<line stroke="black" stroke-width="1.5" x1="188.918909534853" x2="188.918909534853" y1="355" y2="351.25" />
	<line stroke="black" stroke-width="1.5" x1="193.431603763182" x2="193.431603763182" y1="355" y2="351.25" />
	<line stroke="black" stroke-width="1.5" x1="197.944297991511" x2="197.944297991511" y1="355" y2="347.5" />
	<line stroke="black" stroke-width="1.5" x1="202.45699221984" x2="202.45699221984" y1="355" y2="351.25" />
	<line stroke="black" stroke-width="1.5" x1="206.969686448169" x2="206.969686448169" y1="355" y2="351.25" />
	<line stroke="black" stroke-width="1.5" x1="211.482380676498" x2="211.482380676498" y1="355" y2="351.25" />
	<line stroke="black" stroke-width="1.5" x1="215.995074904827" x2="215.995074904827" y1="355" y2="351.25" />
	<line stroke="black" stroke-width="1.5" x1="220.507769133156" x2="220.507769133156" y1="355" y2="347.5" />
	<text fill="black" font-family="Arial" font-size="15" stroke="none" text-anchor="middle" x="220.507769133156" y="370">0.2</text>
	<line stroke="black" stroke-width="1.5" x1="225.020463361484" x2="225.020463361484" y1="355" y2="351.25" />
	<line stroke="black" stroke-width="1.5" x1="229.533157589813" x2="229.533157589813" y1="355" y2="351.25" />
	<line stroke="black" stroke-width="1.5" x1="234.045851818142" x2="234.045851818142" y1="355" y2="351.25" />
	<line stroke="black" stroke-width="1.5" x1="238.558546046471" x2="238.558546046471" y1="355" y2="351.25" />
	<rect fill="crimson" height="20" stroke="black" width="155.71" x="330" y="22.5" />
	<rect fill="blue" height="20" stroke="black" width="64.35" x="485.71" y="22.5" />
	<rect fill="lightseagreen" height="20" stroke="black" width="32.81" x="550.06" y="22.5" />
	<rect fill="orange" height="20" stroke="black" width="42.48" x="582.87" y="22.5" />
	<rect fill="mediumpurple" height="20" stroke="black" width="28.36" x="625.35" y="22.5" />
	<rect fill="palegreen" height="20" stroke="black" width="7.7" x="653.71" y="22.5" />
	<rect fill="lightcoral" height="20" stroke="black" width="21.18" x="661.41" y="22.5" />
	<rect fill="dodgerblue" height="20" stroke="black" width="9.27" x="682.59" y="22.5" />
	<rect fill="lawngreen" height="20" stroke="black" width="0.72" x="691.86" y="22.5" />
	<rect fill="olive" height="20" stroke="black" width="9.38" x="692.58" y="22.5" />
	<rect fill="yellow" height="20" stroke="black" width="28.05" x="701.96" y="22.5" />
	<rect fill="crimson" height="20" stroke="black" width="115.29" x="330" y="47.5" />
	<line stroke="black" stroke-width="1" x1="485.71" x2="445.29" y1="42.5" y2="47.5" />
	<rect fill="blue" height="20" stroke="black" width="93.26" x="445.29" y="47.5" />
	<line stroke="black" stroke-width="1" x1="550.06" x2="538.55" y1="42.5" y2="47.5" />
	<rect fill="lightseagreen" height="20" stroke="black" width="38.94" x="538.55" y="47.5" />
	<line stroke="black" stroke-width="1" x1="582.87" x2="577.49" y1="42.5" y2="47.5" />
	<rect fill="orange" height="20" stroke="black" width="37.62" x="577.49" y="47.5" />
	<line stroke="black" stroke-width="1" x1="625.35" x2="615.11" y1="42.5" y2="47.5" />
	<rect fill="mediumpurple" height="20" stroke="black" width="24.91" x="615.11" y="47.5" />
	<line stroke="black" stroke-width="1" x1="653.71" x2="640.02" y1="42.5" y2="47.5" />
	<rect fill="palegreen" height="20" stroke="black" width="14.1" x="640.02" y="47.5" />
	<line stroke="black" stroke-width="1" x1="661.41" x2="654.12" y1="42.5" y2="47.5" />
	<rect fill="lightcoral" height="20" stroke="black" width="21.45" x="654.12" y="47.5" />
	<line stroke="black" stroke-width="1" x1="682.59" x2="675.57" y1="42.5" y2="47.5" />
	<rect fill="dodgerblue" height="20" stroke="black" width="13.06" x="675.57" y="47.5" />
	<line stroke="black" stroke-width="1" x1="691.86" x2="688.63" y1="42.5" y2="47.5" />
	<rect fill="lawngreen" height="20" stroke="black" width="0.68" x="688.63" y="47.5" />
	<line stroke="black" stroke-width="1" x1="692.58" x2="689.31" y1="42.5" y2="47.5" />
	<rect fill="olive" height="20" stroke="black" width="5.64" x="689.31" y="47.5" />
	<line stroke="black" stroke-width="1" x1="701.96" x2="694.95" y1="42.5" y2="47.5" />
	<rect fill="yellow" height="20" stroke="black" width="35.06" x="694.95" y="47.5" />
	<line stroke="black" stroke-width="1" x1="730.01" x2="730.01" y1="42.5" y2="47.5" />
	<rect fill="crimson" height="20" stroke="black" width="93.68" x="330" y="72.5" />
	<line stroke="black" stroke-width="1" x1="445.29" x2="423.68" y1="67.5" y2="72.5" />
	<rect fill="blue" height="20" stroke="black" width="71.81" x="423.68" y="72.5" />
	<line stroke="black" stroke-width="1" x1="538.55" x2="495.49" y1="67.5" y2="72.5" />
	<rect fill="lightseagreen" height="20" stroke="black" width="46.94" x="495.49" y="72.5" />
	<line stroke="black" stroke-width="1" x1="577.49" x2="542.43" y1="67.5" y2="72.5" />
	<rect fill="orange" height="20" stroke="black" width="66.78" x="542.43" y="72.5" />
	<line stroke="black" stroke-width="1" x1="615.11" x2="609.21" y1="67.5" y2="72.5" />
	<rect fill="mediumpurple" height="20" stroke="black" width="23.8" x="609.21" y="72.5" />
	<line stroke="black" stroke-width="1" x1="640.02" x2="633.01" y1="67.5" y2="72.5" />
	<rect fill="palegreen" height="20" stroke="black" width="26.5" x="633.01" y="72.5" />
	<line stroke="black" stroke-width="1" x1="654.12" x2="659.51" y1="67.5" y2="72.5" />
	<rect fill="lightcoral" height="20" stroke="black" width="19.76" x="659.51" y="72.5" />
	<line stroke="black" stroke-width="1" x1="675.57" x2="679.27" y1="67.5" y2="72.5" />
	<rect fill="dodgerblue" height="20" stroke="black" width="6.77" x="679.27" y="72.5" />
	<line stroke="black" stroke-width="1" x1="688.63" x2="686.04" y1="67.5" y2="72.5" />
	<rect fill="lawngreen" height="20" stroke="black" width="1.07" x="686.04" y="72.5" />
	<line stroke="black" stroke-width="1" x1="689.31" x2="687.11" y1="67.5" y2="72.5" />
	<rect fill="olive" height="20" stroke="black" width="5.35" x="687.11" y="72.5" />
	<line stroke="black" stroke-width="1" x1="694.95" x2="692.46" y1="67.5" y2="72.5" />
	<rect fill="yellow" height="20" stroke="black" width="37.55" x="692.46" y="72.5" />
	<line stroke="black" stroke-width="1" x1="730.01" x2="730.01" y1="67.5" y2="72.5" />
	<rect fill="crimson" height="20" stroke="black" width="131.86" x="330" y="97.5" />
	<line stroke="black" stroke-width="1" x1="423.68" x2="461.86" y1="92.5" y2="97.5" />
	<rect fill="blue" height="20" stroke="black" width="41.54" x="461.86" y="97.5" />
	<line stroke="black" stroke-width="1" x1="495.49" x2="503.4" y1="92.5" y2="97.5" />
	<rect fill="lightseagreen" height="20" stroke="black" width="54.11" x="503.4" y="97.5" />
	<line stroke="black" stroke-width="1" x1="542.43" x2="557.51" y1="92.5" y2="97.5" />
	<rect fill="orange" height="20" stroke="black" width="60.39" x="557.51" y="97.5" />
	<line stroke="black" stroke-width="1" x1="609.21" x2="617.9" y1="92.5" y2="97.5" />
	<rect fill="mediumpurple" height="20" stroke="black" width="27.85" x="617.9" y="97.5" />
	<line stroke="black" stroke-width="1" x1="633.01" x2="645.75" y1="92.5" y2="97.5" />
	<rect fill="palegreen" height="20" stroke="black" width="27.14" x="645.75" y="97.5" />
	<line stroke="black" stroke-width="1" x1="659.51" x2="672.89" y1="92.5" y2="97.5" />
	<rect fill="lightcoral" height="20" stroke="black" width="24.83" x="672.89" y="97.5" />
	<line stroke="black" stroke-width="1" x1="679.27" x2="697.72" y1="92.5" y2="97.5" />
	<rect fill="dodgerblue" height="20" stroke="black" width="2.36" x="697.72" y="97.5" />
	<line stroke="black" stroke-width="1" x1="686.04" x2="700.08" y1="92.5" y2="97.5" />
	<rect fill="lawngreen" height="20" stroke="black" width="7.08" x="700.08" y="97.5" />
	<line stroke="black" stroke-width="1" x1="687.11" x2="707.16" y1="92.5" y2="97.5" />
	<rect fill="olive" height="20" stroke="black" width="1" x="707.16" y="97.5" />
	<line stroke="black" stroke-width="1" x1="692.46" x2="708.16" y1="92.5" y2="97.5" />
	<rect fill="yellow" height="20" stroke="black" width="21.84" x="708.16" y="97.5" />
	<line stroke="black" stroke-width="1" x1="730.01" x2="730" y1="92.5" y2="97.5" />
	<rect fill="crimson" height="20" stroke="black" width="163.94" x="330" y="122.5" />
	<line stroke="black" stroke-width="1" x1="461.86" x2="493.94" y1="117.5" y2="122.5" />
	<rect fill="blue" height="20" stroke="black" width="35.59" x="493.94" y="122.5" />
	<line stroke="black" stroke-width="1" x1="503.4" x2="529.53" y1="117.5" y2="122.5" />
	<rect fill="lightseagreen" height="20" stroke="black" width="46.83" x="529.53" y="122.5" />
	<line stroke="black" stroke-width="1" x1="557.51" x2="576.36" y1="117.5" y2="122.5" />
	<rect fill="orange" height="20" stroke="black" width="43.21" x="576.36" y="122.5" />
	<line stroke="black" stroke-width="1" x1="617.9" x2="619.57" y1="117.5" y2="122.5" />
	<rect fill="mediumpurple" height="20" stroke="black" width="29.75" x="619.57" y="122.5" />
	<line stroke="black" stroke-width="1" x1="645.75" x2="649.32" y1="117.5" y2="122.5" />
	<rect fill="palegreen" height="20" stroke="black" width="27.13" x="649.32" y="122.5" />
	<line stroke="black" stroke-width="1" x1="672.89" x2="676.45" y1="117.5" y2="122.5" />
	<rect fill="lightcoral" height="20" stroke="black" width="26.32" x="676.45" y="122.5" />
	<line stroke="black" stroke-width="1" x1="697.72" x2="702.77" y1="117.5" y2="122.5" />
	<rect fill="dodgerblue" height="20" stroke="black" width="2.55" x="702.77" y="122.5" />
	<line stroke="black" stroke-width="1" x1="700.08" x2="705.32" y1="117.5" y2="122.5" />
	<rect fill="lawngreen" height="20" stroke="black" width="2.97" x="705.32" y="122.5" />
	<line stroke="black" stroke-width="1" x1="707.16" x2="708.29" y1="117.5" y2="122.5" />
	<rect fill="olive" height="20" stroke="black" width="0.66" x="708.29" y="122.5" />
	<line stroke="black" stroke-width="1" x1="708.16" x2="708.95" y1="117.5" y2="122.5" />
	<rect fill="yellow" height="20" stroke="black" width="21.06" x="708.95" y="122.5" />
	<line stroke="black" stroke-width="1" x1="730" x2="730.01" y1="117.5" y2="122.5" />
	<rect fill="crimson" height="20" stroke="black" width="151.67" x="330" y="147.5" />
	<line stroke="black" stroke-width="1" x1="493.94" x2="481.67" y1="142.5" y2="147.5" />
	<rect fill="blue" height="20" stroke="black" width="46.77" x="481.67" y="147.5" />
	<line stroke="black" stroke-width="1" x1="529.53" x2="528.44" y1="142.5" y2="147.5" />
	<rect fill="lightseagreen" height="20" stroke="black" width="52.68" x="528.44" y="147.5" />
	<line stroke="black" stroke-width="1" x1="576.36" x2="581.12" y1="142.5" y2="147.5" />
	<rect fill="orange" height="20" stroke="black" width="51.59" x="581.12" y="147.5" />
	<line stroke="black" stroke-width="1" x1="619.57" x2="632.71" y1="142.5" y2="147.5" />
	<rect fill="mediumpurple" height="20" stroke="black" width="20.1" x="632.71" y="147.5" />
	<line stroke="black" stroke-width="1" x1="649.32" x2="652.81" y1="142.5" y2="147.5" />
	<rect fill="palegreen" height="20" stroke="black" width="26.11" x="652.81" y="147.5" />
	<line stroke="black" stroke-width="1" x1="676.45" x2="678.92" y1="142.5" y2="147.5" />
	<rect fill="lightcoral" height="20" stroke="black" width="19.02" x="678.92" y="147.5" />
	<line stroke="black" stroke-width="1" x1="702.77" x2="697.94" y1="142.5" y2="147.5" />
	<rect fill="dodgerblue" height="20" stroke="black" width="2.56" x="697.94" y="147.5" />
	<line stroke="black" stroke-width="1" x1="705.32" x2="700.5" y1="142.5" y2="147.5" />
	<rect fill="lawngreen" height="20" stroke="black" width="5.1" x="700.5" y="147.5" />
	<line stroke="black" stroke-width="1" x1="708.29" x2="705.6" y1="142.5" y2="147.5" />
	<rect fill="olive" height="20" stroke="black" width="0.97" x="705.6" y="147.5" />
	<line stroke="black" stroke-width="1" x1="708.95" x2="706.57" y1="142.5" y2="147.5" />
	<rect fill="yellow" height="20" stroke="black" width="23.43" x="706.57" y="147.5" />
	<line stroke="black" stroke-width="1" x1="730.01" x2="730" y1="142.5" y2="147.5" />
	<rect fill="crimson" height="20" stroke="black" width="137" x="330" y="172.5" />
	<line stroke="black" stroke-width="1" x1="481.67" x2="467" y1="167.5" y2="172.5" />
	<rect fill="blue" height="20" stroke="black" width="61.16" x="467" y="172.5" />
	<line stroke="black" stroke-width="1" x1="528.44" x2="528.16" y1="167.5" y2="172.5" />
	<rect fill="lightseagreen" height="20" stroke="black" width="54.89" x="528.16" y="172.5" />
	<line stroke="black" stroke-width="1" x1="581.12" x2="583.05" y1="167.5" y2="172.5" />
	<rect fill="orange" height="20" stroke="black" width="47.45" x="583.05" y="172.5" />
	<line stroke="black" stroke-width="1" x1="632.71" x2="630.5" y1="167.5" y2="172.5" />
	<rect fill="mediumpurple" height="20" stroke="black" width="28.2" x="630.5" y="172.5" />
	<line stroke="black" stroke-width="1" x1="652.81" x2="658.7" y1="167.5" y2="172.5" />
	<rect fill="palegreen" height="20" stroke="black" width="17.74" x="658.7" y="172.5" />
	<line stroke="black" stroke-width="1" x1="678.92" x2="676.44" y1="167.5" y2="172.5" />
	<rect fill="lightcoral" height="20" stroke="black" width="23.97" x="676.44" y="172.5" />
	<line stroke="black" stroke-width="1" x1="697.94" x2="700.41" y1="167.5" y2="172.5" />
	<rect fill="dodgerblue" height="20" stroke="black" width="1.96" x="700.41" y="172.5" />
	<line stroke="black" stroke-width="1" x1="700.5" x2="702.37" y1="167.5" y2="172.5" />
	<rect fill="lawngreen" height="20" stroke="black" width="2.82" x="702.37" y="172.5" />
	<line stroke="black" stroke-width="1" x1="705.6" x2="705.19" y1="167.5" y2="172.5" />
	<rect fill="olive" height="20" stroke="black" width="0.89" x="705.19" y="172.5" />
	<line stroke="black" stroke-width="1" x1="706.57" x2="706.08" y1="167.5" y2="172.5" />
	<rect fill="yellow" height="20" stroke="black" width="23.92" x="706.08" y="172.5" />
	<line stroke="black" stroke-width="1" x1="730" x2="730" y1="167.5" y2="172.5" />
	<rect fill="crimson" height="20" stroke="black" width="125.53" x="330" y="197.5" />
	<line stroke="black" stroke-width="1" x1="467" x2="455.53" y1="192.5" y2="197.5" />
	<rect fill="blue" height="20" stroke="black" width="53" x="455.53" y="197.5" />
	<line stroke="black" stroke-width="1" x1="528.16" x2="508.53" y1="192.5" y2="197.5" />
	<rect fill="lightseagreen" height="20" stroke="black" width="71.01" x="508.53" y="197.5" />
	<line stroke="black" stroke-width="1" x1="583.05" x2="579.54" y1="192.5" y2="197.5" />
	<rect fill="orange" height="20" stroke="black" width="59.54" x="579.54" y="197.5" />
	<line stroke="black" stroke-width="1" x1="630.5" x2="639.08" y1="192.5" y2="197.5" />
	<rect fill="mediumpurple" height="20" stroke="black" width="18.79" x="639.08" y="197.5" />
	<line stroke="black" stroke-width="1" x1="658.7" x2="657.87" y1="192.5" y2="197.5" />
	<rect fill="palegreen" height="20" stroke="black" width="19.25" x="657.87" y="197.5" />
	<line stroke="black" stroke-width="1" x1="676.44" x2="677.12" y1="192.5" y2="197.5" />
	<rect fill="lightcoral" height="20" stroke="black" width="17.53" x="677.12" y="197.5" />
	<line stroke="black" stroke-width="1" x1="700.41" x2="694.65" y1="192.5" y2="197.5" />
	<rect fill="dodgerblue" height="20" stroke="black" width="2.64" x="694.65" y="197.5" />
	<line stroke="black" stroke-width="1" x1="702.37" x2="697.29" y1="192.5" y2="197.5" />
	<rect fill="lawngreen" height="20" stroke="black" width="3.05" x="697.29" y="197.5" />
	<line stroke="black" stroke-width="1" x1="705.19" x2="700.34" y1="192.5" y2="197.5" />
	<rect fill="olive" height="20" stroke="black" width="1.18" x="700.34" y="197.5" />
	<line stroke="black" stroke-width="1" x1="706.08" x2="701.52" y1="192.5" y2="197.5" />
	<rect fill="yellow" height="20" stroke="black" width="28.5" x="701.52" y="197.5" />
	<line stroke="black" stroke-width="1" x1="730" x2="730.02" y1="192.5" y2="197.5" />
	<rect fill="crimson" height="20" stroke="black" width="121.44" x="330" y="222.5" />
	<line stroke="black" stroke-width="1" x1="455.53" x2="451.44" y1="217.5" y2="222.5" />
	<rect fill="blue" height="20" stroke="black" width="47.03" x="451.44" y="222.5" />
	<line stroke="black" stroke-width="1" x1="508.53" x2="498.47" y1="217.5" y2="222.5" />
	<rect fill="lightseagreen" height="20" stroke="black" width="80.41" x="498.47" y="222.5" />
	<line stroke="black" stroke-width="1" x1="579.54" x2="578.88" y1="217.5" y2="222.5" />
	<rect fill="orange" height="20" stroke="black" width="46.47" x="578.88" y="222.5" />
	<line stroke="black" stroke-width="1" x1="639.08" x2="625.35" y1="217.5" y2="222.5" />
	<rect fill="mediumpurple" height="20" stroke="black" width="18.29" x="625.35" y="222.5" />
	<line stroke="black" stroke-width="1" x1="657.87" x2="643.64" y1="217.5" y2="222.5" />
	<rect fill="palegreen" height="20" stroke="black" width="26.77" x="643.64" y="222.5" />
	<line stroke="black" stroke-width="1" x1="677.12" x2="670.41" y1="217.5" y2="222.5" />
	<rect fill="lightcoral" height="20" stroke="black" width="17.58" x="670.41" y="222.5" />
	<line stroke="black" stroke-width="1" x1="694.65" x2="687.99" y1="217.5" y2="222.5" />
	<rect fill="dodgerblue" height="20" stroke="black" width="2.41" x="687.99" y="222.5" />
	<line stroke="black" stroke-width="1" x1="697.29" x2="690.4" y1="217.5" y2="222.5" />
	<rect fill="lawngreen" height="20" stroke="black" width="10.57" x="690.4" y="222.5" />
	<line stroke="black" stroke-width="1" x1="700.34" x2="700.97" y1="217.5" y2="222.5" />
	<rect fill="olive" height="20" stroke="black" width="1.12" x="700.97" y="222.5" />
	<line stroke="black" stroke-width="1" x1="701.52" x2="702.09" y1="217.5" y2="222.5" />
	<rect fill="yellow" height="20" stroke="black" width="27.91" x="702.09" y="222.5" />
	<line stroke="black" stroke-width="1" x1="730.02" x2="730" y1="217.5" y2="222.5" />
	<rect fill="crimson" height="20" stroke="black" width="111.46" x="330" y="247.5" />
	<line stroke="black" stroke-width="1" x1="451.44" x2="441.46" y1="242.5" y2="247.5" />
	<rect fill="blue" height="20" stroke="black" width="54.8" x="441.46" y="247.5" />
	<line stroke="black" stroke-width="1" x1="498.47" x2="496.26" y1="242.5" y2="247.5" />
	<rect fill="lightseagreen" height="20" stroke="black" width="67.2" x="496.26" y="247.5" />
	<line stroke="black" stroke-width="1" x1="578.88" x2="563.46" y1="242.5" y2="247.5" />
	<rect fill="orange" height="20" stroke="black" width="75.99" x="563.46" y="247.5" />
	<line stroke="black" stroke-width="1" x1="625.35" x2="639.45" y1="242.5" y2="247.5" />
	<rect fill="mediumpurple" height="20" stroke="black" width="25.75" x="639.45" y="247.5" />
	<line stroke="black" stroke-width="1" x1="643.64" x2="665.2" y1="242.5" y2="247.5" />
	<rect fill="palegreen" height="20" stroke="black" width="17.03" x="665.2" y="247.5" />
	<line stroke="black" stroke-width="1" x1="670.41" x2="682.23" y1="242.5" y2="247.5" />
	<rect fill="lightcoral" height="20" stroke="black" width="10.94" x="682.23" y="247.5" />
	<line stroke="black" stroke-width="1" x1="687.99" x2="693.17" y1="242.5" y2="247.5" />
	<rect fill="dodgerblue" height="20" stroke="black" width="1.61" x="693.17" y="247.5" />
	<line stroke="black" stroke-width="1" x1="690.4" x2="694.78" y1="242.5" y2="247.5" />
	<rect fill="lawngreen" height="20" stroke="black" width="5.91" x="694.78" y="247.5" />
	<line stroke="black" stroke-width="1" x1="700.97" x2="700.69" y1="242.5" y2="247.5" />
	<rect fill="olive" height="20" stroke="black" width="1.72" x="700.69" y="247.5" />
	<line stroke="black" stroke-width="1" x1="702.09" x2="702.41" y1="242.5" y2="247.5" />
	<rect fill="yellow" height="20" stroke="black" width="27.59" x="702.41" y="247.5" />
	<line stroke="black" stroke-width="1" x1="730" x2="730" y1="242.5" y2="247.5" />
	<rect fill="crimson" height="20" stroke="black" width="103.3" x="330" y="272.5" />
	<line stroke="black" stroke-width="1" x1="441.46" x2="433.3" y1="267.5" y2="272.5" />
	<rect fill="blue" height="20" stroke="black" width="74.43" x="433.3" y="272.5" />
	<line stroke="black" stroke-width="1" x1="496.26" x2="507.73" y1="267.5" y2="272.5" />
	<rect fill="lightseagreen" height="20" stroke="black" width="74.73" x="507.73" y="272.5" />
	<line stroke="black" stroke-width="1" x1="563.46" x2="582.46" y1="267.5" y2="272.5" />
	<rect fill="orange" height="20" stroke="black" width="40.31" x="582.46" y="272.5" />
	<line stroke="black" stroke-width="1" x1="639.45" x2="622.77" y1="267.5" y2="272.5" />
	<rect fill="mediumpurple" height="20" stroke="black" width="41.82" x="622.77" y="272.5" />
	<line stroke="black" stroke-width="1" x1="665.2" x2="664.59" y1="267.5" y2="272.5" />
	<rect fill="palegreen" height="20" stroke="black" width="11.97" x="664.59" y="272.5" />
	<line stroke="black" stroke-width="1" x1="682.23" x2="676.56" y1="267.5" y2="272.5" />
	<rect fill="lightcoral" height="20" stroke="black" width="9.54" x="676.56" y="272.5" />
	<line stroke="black" stroke-width="1" x1="693.17" x2="686.1" y1="267.5" y2="272.5" />
	<rect fill="dodgerblue" height="20" stroke="black" width="2.58" x="686.1" y="272.5" />
	<line stroke="black" stroke-width="1" x1="694.78" x2="688.68" y1="267.5" y2="272.5" />
	<rect fill="lawngreen" height="20" stroke="black" width="2.89" x="688.68" y="272.5" />
	<line stroke="black" stroke-width="1" x1="700.69" x2="691.57" y1="267.5" y2="272.5" />
	<rect fill="olive" height="20" stroke="black" width="2.23" x="691.57" y="272.5" />
	<line stroke="black" stroke-width="1" x1="702.41" x2="693.8" y1="267.5" y2="272.5" />
	<rect fill="yellow" height="20" stroke="black" width="36.19" x="693.8" y="272.5" />
	<line stroke="black" stroke-width="1" x1="730" x2="729.99" y1="267.5" y2="272.5" />
	<rect fill="crimson" height="20" stroke="black" width="113.1" x="330" y="297.5" />
	<line stroke="black" stroke-width="1" x1="433.3" x2="443.1" y1="292.5" y2="297.5" />
	<rect fill="blue" height="20" stroke="black" width="69.01" x="443.1" y="297.5" />
	<line stroke="black" stroke-width="1" x1="507.73" x2="512.11" y1="292.5" y2="297.5" />
	<rect fill="lightseagreen" height="20" stroke="black" width="71.4" x="512.11" y="297.5" />
	<line stroke="black" stroke-width="1" x1="582.46" x2="583.51" y1="292.5" y2="297.5" />
	<rect fill="orange" height="20" stroke="black" width="55.47" x="583.51" y="297.5" />
	<line stroke="black" stroke-width="1" x1="622.77" x2="638.98" y1="292.5" y2="297.5" />
	<rect fill="mediumpurple" height="20" stroke="black" width="21.94" x="638.98" y="297.5" />
	<line stroke="black" stroke-width="1" x1="664.59" x2="660.92" y1="292.5" y2="297.5" />
	<rect fill="palegreen" height="20" stroke="black" width="9.03" x="660.92" y="297.5" />
	<line stroke="black" stroke-width="1" x1="676.56" x2="669.95" y1="292.5" y2="297.5" />
	<rect fill="lightcoral" height="20" stroke="black" width="10.71" x="669.95" y="297.5" />
	<line stroke="black" stroke-width="1" x1="686.1" x2="680.66" y1="292.5" y2="297.5" />
	<rect fill="dodgerblue" height="20" stroke="black" width="3.44" x="680.66" y="297.5" />
	<line stroke="black" stroke-width="1" x1="688.68" x2="684.1" y1="292.5" y2="297.5" />
	<rect fill="lawngreen" height="20" stroke="black" width="6.65" x="684.1" y="297.5" />
	<line stroke="black" stroke-width="1" x1="691.57" x2="690.75" y1="292.5" y2="297.5" />
	<rect fill="olive" height="20" stroke="black" width="2.12" x="690.75" y="297.5" />
	<line stroke="black" stroke-width="1" x1="693.8" x2="692.87" y1="292.5" y2="297.5" />
	<rect fill="yellow" height="20" stroke="black" width="37.13" x="692.87" y="297.5" />
	<line stroke="black" stroke-width="1" x1="729.99" x2="730" y1="292.5" y2="297.5" />
	<line stroke="black" stroke-width="1" x1="330" x2="730" y1="322.5" y2="322.5" />
	<line stroke="black" stroke-width="1" x1="330" x2="330" y1="322.5" y2="330" />
	<text fill="black" font-family="Arial" font-size="15" stroke="none" text-anchor="middle" x="330" y="345">0</text>
	<line stroke="black" stroke-width="1" x1="430" x2="430" y1="322.5" y2="330" />
	<text fill="black" font-family="Arial" font-size="15" stroke="none" text-anchor="middle" x="430" y="345">0.25</text>
	<line stroke="black" stroke-width="1" x1="530" x2="530" y1="322.5" y2="330" />
	<text fill="black" font-family="Arial" font-size="15" stroke="none" text-anchor="middle" x="530" y="345">0.5</text>
	<line stroke="black" stroke-width="1" x1="630" x2="630" y1="322.5" y2="330" />
	<text fill="black" font-family="Arial" font-size="15" stroke="none" text-anchor="middle" x="630" y="345">0.75</text>
	<line stroke="black" stroke-width="1" x1="730" x2="730" y1="322.5" y2="330" />
	<text fill="black" font-family="Arial" font-size="15" stroke="none" text-anchor="middle" x="730" y="345">1</text>
	<text fill="black" font-family="Arial" font-size="15" stroke="none" text-anchor="middle" x="530" y="360">Relative Abundance in Phylum Level</text>
	<rect fill="crimson" height="11.1111111111111" stroke="black" width="11.1111111111111" x="741.111111111111" y="22.5" />
	<text fill="black" font-family="Arial" font-size="11.1111111111111" stroke="none" text-anchor="start" x="757.777777777778" y="31.9444444444444">Proteobacteria</text>
	<rect fill="blue" height="11.1111111111111" stroke="black" width="11.1111111111111" x="741.111111111111" y="39.1666666666667" />
	<text fill="black" font-family="Arial" font-size="11.1111111111111" stroke="none" text-anchor="start" x="757.777777777778" y="48.6111111111111">Acidobacteria</text>
	<rect fill="lightseagreen" height="11.1111111111111" stroke="black" width="11.1111111111111" x="741.111111111111" y="55.8333333333333" />
	<text fill="black" font-family="Arial" font-size="11.1111111111111" stroke="none" text-anchor="start" x="757.777777777778" y="65.2777777777778">Chloroflexi</text>
	<rect fill="orange" height="11.1111111111111" stroke="black" width="11.1111111111111" x="741.111111111111" y="72.5" />
	<text fill="black" font-family="Arial" font-size="11.1111111111111" stroke="none" text-anchor="start" x="757.777777777778" y="81.9444444444444">Actinobacteria</text>
	<rect fill="mediumpurple" height="11.1111111111111" stroke="black" width="11.1111111111111" x="741.111111111111" y="89.1666666666667" />
	<text fill="black" font-family="Arial" font-size="11.1111111111111" stroke="none" text-anchor="start" x="757.777777777778" y="98.6111111111111">Bacteroidetes</text>
	<rect fill="palegreen" height="11.1111111111111" stroke="black" width="11.1111111111111" x="741.111111111111" y="105.833333333333" />
	<text fill="black" font-family="Arial" font-size="11.1111111111111" stroke="none" text-anchor="start" x="757.777777777778" y="115.277777777778">Saccharibacteria</text>
	<rect fill="lightcoral" height="11.1111111111111" stroke="black" width="11.1111111111111" x="741.111111111111" y="122.5" />
	<text fill="black" font-family="Arial" font-size="11.1111111111111" stroke="none" text-anchor="start" x="757.777777777778" y="131.944444444444">Gemmatimonadetes</text>
	<rect fill="dodgerblue" height="11.1111111111111" stroke="black" width="11.1111111111111" x="741.111111111111" y="139.166666666667" />
	<text fill="black" font-family="Arial" font-size="11.1111111111111" stroke="none" text-anchor="start" x="757.777777777778" y="148.611111111111">Nitrospirae</text>
	<rect fill="lawngreen" height="11.1111111111111" stroke="black" width="11.1111111111111" x="741.111111111111" y="155.833333333333" />
	<text fill="black" font-family="Arial" font-size="11.1111111111111" stroke="none" text-anchor="start" x="757.777777777778" y="165.277777777778">Cyanobacteria</text>
	<rect fill="olive" height="11.1111111111111" stroke="black" width="11.1111111111111" x="741.111111111111" y="172.5" />
	<text fill="black" font-family="Arial" font-size="11.1111111111111" stroke="none" text-anchor="start" x="757.777777777778" y="181.944444444444">Verrucomicrobia</text>
	<rect fill="yellow" height="11.1111111111111" stroke="black" width="11.1111111111111" x="741.111111111111" y="189.166666666667" />
	<text fill="black" font-family="Arial" font-size="11.1111111111111" stroke="none" text-anchor="start" x="757.777777777778" y="198.611111111111">Others</text>
	<!-- 
	Generated using the Perl SVG Module V2.64
	by Ronan Oger
	Info: http://www.roitsystems.com/
 -->
</svg>