<?xml version="1.0" encoding="UTF-8" standalone="yes"?>
<!DOCTYPE svg PUBLIC "-//W3C//DTD SVG 1.0//EN" "http://www.w3.org/TR/2001/REC-SVG-20010904/DTD/svg10.dtd">
<svg height="450" width="706" xmlns="http://www.w3.org/2000/svg" xmlns:svg="http://www.w3.org/2000/svg" xmlns:xlink="http://www.w3.org/1999/xlink">
	<text fill="black" font-family="Arial" font-size="15" stroke="none" text-anchor="end" x="92.5" y="355">0</text>
	<line stroke="black" stroke-width="2" x1="100" x2="95" y1="350" y2="350" />
	<text fill="black" font-family="Arial" font-size="15" stroke="none" text-anchor="end" x="92.5" y="280">0.25</text>
	<line stroke="black" stroke-width="2" x1="100" x2="95" y1="275" y2="275" />
	<line stroke="black" stroke-dasharray="3 2" stroke-width="0.5" x1="100" x2="550" y1="275" y2="275" />
	<text fill="black" font-family="Arial" font-size="15" stroke="none" text-anchor="end" x="92.5" y="205">0.5</text>
	<line stroke="black" stroke-width="2" x1="100" x2="95" y1="200" y2="200" />
	<line stroke="black" stroke-dasharray="3 2" stroke-width="0.5" x1="100" x2="550" y1="200" y2="200" />
	<text fill="black" font-family="Arial" font-size="15" stroke="none" text-anchor="end" x="92.5" y="130">0.75</text>
	<line stroke="black" stroke-width="2" x1="100" x2="95" y1="125" y2="125" />
	<line stroke="black" stroke-dasharray="3 2" stroke-width="0.5" x1="100" x2="550" y1="125" y2="125" />
	<text fill="black" font-family="Arial" font-size="15" stroke="none" text-anchor="end" x="92.5" y="55">1</text>
	<line stroke="black" stroke-width="2" x1="100" x2="95" y1="50" y2="50" />
	<line stroke="black" stroke-width="1" x1="100" x2="100" y1="50" y2="350" />
	<text fill="black" font-family="Arial" font-size="15" stroke="none" text-anchor="middle" x="325" y="410.574363164907">Group Name</text>
	<g transform="rotate(-90,47.5,200)">
		<text fill="black" font-family="Arial" font-size="15" stroke="none" text-anchor="middle" x="47.5" y="200">Relative Abundance</text>
	</g>
	<line stroke="black" stroke-width="2" x1="212.5" x2="212.5" y1="350" y2="352.7" />
	<g fill="black" font-family="Arial" font-size="13.5" stroke="none" text-anchor="end" transform="rotate(-45,156.25,359)">
		<text x="156.25" y="363.5">CK</text>
	</g>
	<rect fill="crimson" height="6.47668728291594" stroke="crimson" width="56.25" x="128.125" y="343.523312717084" />
	<rect fill="blue" height="2.79830077343212" stroke="blue" width="56.25" x="128.125" y="340.725011943652" />
	<rect fill="lightseagreen" height="4.21372035069138" stroke="lightseagreen" width="56.25" x="128.125" y="336.511291592961" />
	<rect fill="orange" height="0.424548400841865" stroke="orange" width="56.25" x="128.125" y="336.086743192119" />
	<rect fill="mediumpurple" height="3.02916833447388" stroke="mediumpurple" width="56.25" x="128.125" y="333.057574857645" />
	<rect fill="palegreen" height="4.73123555463732" stroke="palegreen" width="56.25" x="128.125" y="328.326339303008" />
	<rect fill="lightcoral" height="6.23342414812701" stroke="lightcoral" width="56.25" x="128.125" y="322.092915154881" />
	<rect fill="dodgerblue" height="3.44751894844212" stroke="dodgerblue" width="56.25" x="128.125" y="318.645396206438" />
	<rect fill="lawngreen" height="5.84451302180841" stroke="lawngreen" width="56.25" x="128.125" y="312.80088318463" />
	<rect fill="olive" height="0.783245316151692" stroke="olive" width="56.25" x="128.125" y="312.017637868478" />
	<rect fill="yellow" height="262.017637868478" stroke="yellow" width="56.25" x="128.125" y="50.0000000000001" />
	<line stroke="black" stroke-width="2" x1="325" x2="325" y1="350" y2="352.7" />
	<g fill="black" font-family="Arial" font-size="13.5" stroke="none" text-anchor="end" transform="rotate(-45,268.75,359)">
		<text x="268.75" y="363.5">JXBR16</text>
	</g>
	<rect fill="crimson" height="7.81866539468118" stroke="crimson" width="56.25" x="240.625" y="342.181334605319" />
	<rect fill="blue" height="1.98101817051279" stroke="blue" width="56.25" x="240.625" y="340.200316434806" />
	<rect fill="lightseagreen" height="0.974218868117382" stroke="lightseagreen" width="56.25" x="240.625" y="339.226097566689" />
	<rect fill="orange" height="11.5213359255718" stroke="orange" width="56.25" x="240.625" y="327.704761641117" />
	<rect fill="mediumpurple" height="1.78809089302331" stroke="mediumpurple" width="56.25" x="240.625" y="325.916670748094" />
	<rect fill="palegreen" height="8.98325621210934" stroke="palegreen" width="56.25" x="240.625" y="316.933414535984" />
	<rect fill="lightcoral" height="1.74976097034329" stroke="lightcoral" width="56.25" x="240.625" y="315.183653565641" />
	<rect fill="dodgerblue" height="0.0376910906353611" stroke="dodgerblue" width="56.25" x="240.625" y="315.145962475006" />
	<rect fill="lawngreen" height="0.184622460908802" stroke="lawngreen" width="56.25" x="240.625" y="314.961340014097" />
	<rect fill="olive" height="5.80059496557771" stroke="olive" width="56.25" x="240.625" y="309.160745048519" />
	<rect fill="yellow" height="259.160745048519" stroke="yellow" width="56.25" x="240.625" y="50" />
	<line stroke="black" stroke-width="2" x1="437.5" x2="437.5" y1="350" y2="352.7" />
	<g fill="black" font-family="Arial" font-size="13.5" stroke="none" text-anchor="end" transform="rotate(-45,381.25,359)">
		<text x="381.25" y="363.5">RW37</text>
	</g>
	<rect fill="crimson" height="26.7011413892741" stroke="crimson" width="56.25" x="353.125" y="323.298858610726" />
	<rect fill="blue" height="13.6039816918227" stroke="blue" width="56.25" x="353.125" y="309.694876918903" />
	<rect fill="lightseagreen" height="13.4667297800996" stroke="lightseagreen" width="56.25" x="353.125" y="296.228147138804" />
	<rect fill="orange" height="0.165771789483691" stroke="orange" width="56.25" x="353.125" y="296.06237534932" />
	<rect fill="mediumpurple" height="11.3146673374118" stroke="mediumpurple" width="56.25" x="353.125" y="284.747708011908" />
	<rect fill="palegreen" height="8.32186266490524" stroke="palegreen" width="56.25" x="353.125" y="276.425845347003" />
	<rect fill="lightcoral" height="1.98569648908423" stroke="lightcoral" width="56.25" x="353.125" y="274.440148857919" />
	<rect fill="dodgerblue" height="5.94758284133238" stroke="dodgerblue" width="56.25" x="353.125" y="268.492566016586" />
	<rect fill="lawngreen" height="2.03679460340536" stroke="lawngreen" width="56.25" x="353.125" y="266.455771413181" />
	<rect fill="olive" height="1.65415291011684" stroke="olive" width="56.25" x="353.125" y="264.801618503064" />
	<rect fill="yellow" height="214.801618503064" stroke="yellow" width="56.25" x="353.125" y="49.9999999999999" />
	<line stroke="black" stroke-width="2" x1="550" x2="550" y1="350" y2="352.7" />
	<g fill="black" font-family="Arial" font-size="13.5" stroke="none" text-anchor="end" transform="rotate(-45,493.75,359)">
		<text x="493.75" y="363.5">R37J16</text>
	</g>
	<rect fill="crimson" height="17.9786193639764" stroke="crimson" width="56.25" x="465.625" y="332.021380636024" />
	<rect fill="blue" height="11.0235052102652" stroke="blue" width="56.25" x="465.625" y="320.997875425758" />
	<rect fill="lightseagreen" height="8.56911610966839" stroke="lightseagreen" width="56.25" x="465.625" y="312.42875931609" />
	<rect fill="orange" height="0.394563787812363" stroke="orange" width="56.25" x="465.625" y="312.034195528278" />
	<rect fill="mediumpurple" height="5.01399521127705" stroke="mediumpurple" width="56.25" x="465.625" y="307.020200317001" />
	<rect fill="palegreen" height="7.68556301217411" stroke="palegreen" width="56.25" x="465.625" y="299.334637304826" />
	<rect fill="lightcoral" height="2.43078272012949" stroke="lightcoral" width="56.25" x="465.625" y="296.903854584697" />
	<rect fill="dodgerblue" height="5.38023134252853" stroke="dodgerblue" width="56.25" x="465.625" y="291.523623242168" />
	<rect fill="lawngreen" height="2.42943378410278" stroke="lawngreen" width="56.25" x="465.625" y="289.094189458066" />
	<rect fill="olive" height="1.50069132971369" stroke="olive" width="56.25" x="465.625" y="287.593498128352" />
	<rect fill="yellow" height="237.593498128352" stroke="yellow" width="56.25" x="465.625" y="49.9999999999998" />
	<line stroke="black" stroke-width="2" x1="100" x2="550" y1="350" y2="350" />
	<line stroke="black" stroke-width="2" x1="100" x2="100" y1="50" y2="352.7" />
	<rect fill="yellow" height="7" stroke="yellow" width="7" x="562" y="97" />
	<text fill="black" font-family="Arial" font-size="10" stroke="none" x="572.5" y="104">Others</text>
	<rect fill="olive" height="7" stroke="olive" width="7" x="562" y="109" />
	<text fill="black" font-family="Arial" font-size="10" stroke="none" x="572.5" y="116">Blastocatella</text>
	<rect fill="lawngreen" height="7" stroke="lawngreen" width="7" x="562" y="121" />
	<text fill="black" font-family="Arial" font-size="10" stroke="none" x="572.5" y="128">Candidatus Solibacter</text>
	<rect fill="dodgerblue" height="7" stroke="dodgerblue" width="7" x="562" y="133" />
	<text fill="black" font-family="Arial" font-size="10" stroke="none" x="572.5" y="140">Burkholderia</text>
	<rect fill="lightcoral" height="7" stroke="lightcoral" width="7" x="562" y="145" />
	<text fill="black" font-family="Arial" font-size="10" stroke="none" x="572.5" y="152">Bryobacter</text>
	<rect fill="palegreen" height="7" stroke="palegreen" width="7" x="562" y="157" />
	<text fill="black" font-family="Arial" font-size="10" stroke="none" x="572.5" y="164">Arthrobacter</text>
	<rect fill="mediumpurple" height="7" stroke="mediumpurple" width="7" x="562" y="169" />
	<text fill="black" font-family="Arial" font-size="10" stroke="none" x="572.5" y="176">Flavisolibacter</text>
	<rect fill="orange" height="7" stroke="orange" width="7" x="562" y="181" />
	<text fill="black" font-family="Arial" font-size="10" stroke="none" x="572.5" y="188">Pseudomonas</text>
	<rect fill="lightseagreen" height="7" stroke="lightseagreen" width="7" x="562" y="193" />
	<text fill="black" font-family="Arial" font-size="10" stroke="none" x="572.5" y="200">Gemmatimonas</text>
	<rect fill="blue" height="7" stroke="blue" width="7" x="562" y="205" />
	<text fill="black" font-family="Arial" font-size="10" stroke="none" x="572.5" y="212">Massilia</text>
	<rect fill="crimson" height="7" stroke="crimson" width="7" x="562" y="217" />
	<text fill="black" font-family="Arial" font-size="10" stroke="none" x="572.5" y="224">Sphingomonas</text>
	<!-- 
	Generated using the Perl SVG Module V2.64
	by Ronan Oger
	Info: http://www.roitsystems.com/
 -->
</svg>